<svg width="593" height="593" viewBox="0 0 593 593" fill="none" xmlns="http://www.w3.org/2000/svg">
<g opacity="0.2">
<path opacity="0.2" d="M157.64 34.548L147.055 40.4326L144.498 41.9289C122.779 55.9426 120.501 57.4054 105.952 69.3644L100.067 74.4451C106.365 68.9848 111.792 64.2726 123.907 55.6076C123.907 55.6188 123.896 55.6188 123.896 55.6299C111.043 65.0766 102.825 72.089 91.335 83.3781C91.3685 83.8248 91.6811 84.2156 92.2729 84.5394C92.5967 84.7181 93.0099 84.8744 93.5124 85.0195C93.892 85.1312 94.3275 85.2205 94.8077 85.2987L99.129 81.4128C113.109 66.7739 125.18 54.1337 153.732 37.6299C176.366 26.5083 190.034 19.7974 222.226 10.6745L226.302 9.60259C226.268 9.59142 226.268 9.55792 226.302 9.53559C211.931 12.9748 202.082 15.945 188.66 20.8693L188.671 20.8582C202.607 15.6324 212.132 12.7515 226.391 9.46859C226.458 9.43509 226.558 9.39043 226.681 9.33459C209.921 13.3545 186.985 18.8371 157.64 34.548Z" fill="#293D82"/>
<path opacity="0.2" d="M200.342 16.6708C190.081 20.445 183.682 22.9128 172.918 27.5914C191.465 19.0157 200.778 14.7056 226.695 9.33458C226.829 9.27875 226.985 9.22292 227.164 9.16709C216.332 11.0988 209.186 12.9636 199.862 16.3023C199.884 16.2912 199.907 16.2912 199.929 16.28C210.76 12.4723 217.728 10.641 227.532 9.04426C227.733 8.97726 227.956 8.92143 228.202 8.85443C215.428 11.0319 215.428 11.0319 200.342 16.6708Z" fill="#293D82"/>
<g opacity="0.2">
<path opacity="0.2" d="M214.423 11.8918C218.487 10.7081 224.015 9.41286 228.213 8.84338C228.459 8.77638 228.727 8.69821 229.017 8.63121C227.231 8.53072 226.036 8.54189 224.461 8.95504C220.609 10.0158 219.571 10.295 214.423 11.8918Z" fill="#293D82"/>
<path opacity="0.2" d="M231.998 7.16833C231.373 7.3135 230.535 7.49215 229.91 7.63731C228.916 7.87181 227.588 8.18446 226.594 8.41895C228.224 8.0393 228.849 8.21796 229.553 8.50828C229.832 8.44129 230.111 8.37429 230.379 8.31845C230.859 7.96114 231.451 7.40283 231.998 7.16833Z" fill="#293D82"/>
</g>
<g opacity="0.2">
<path opacity="0.2" d="M237.916 5.90638C236.944 6.10738 235.66 6.37536 234.689 6.57636C233.405 7.09 231.551 7.51432 230.412 8.30713C230.691 8.2513 230.959 8.19546 231.216 8.13963C234.242 6.96718 236.565 6.20787 240.875 5.31458C239.982 5.5044 238.798 5.72772 237.916 5.90638Z" fill="#293D82"/>
<path opacity="0.2" d="M249.651 3.78491L247.652 4.10874C246.144 4.36556 244.123 4.72288 242.616 5.00204C238.764 5.78368 236.307 6.47599 231.695 8.0616C231.93 8.01694 232.142 7.98344 232.332 7.96111C237.491 6.57649 244.402 4.78988 249.651 3.78491Z" fill="#293D82"/>
</g>
<path opacity="0.2" d="M291.679 0.0553589C287.369 0.211687 281.619 0.39035 277.308 0.647174C268.052 1.37298 268.052 1.37298 263.25 1.90896C261.184 2.16578 258.426 2.50078 256.349 2.77993C249.102 4.13105 239.455 6.01815 232.342 7.94992C232.543 7.91642 232.721 7.89408 232.878 7.88292C245.116 4.66703 254.06 2.99209 267.047 1.51814C267.058 1.51814 267.08 1.51814 267.091 1.51814C255.009 2.93626 246.434 4.5442 233.135 7.87175C233.246 7.87175 233.336 7.87175 233.403 7.88292C256.628 3.01442 266.243 1.00449 291.679 0.0553589Z" fill="#293D82"/>
<path opacity="0.2" d="M72.9458 101.825C54.3428 124.939 53.9855 125.386 45.6108 138.651C30.447 164.937 30.447 164.937 24.2944 179.14L18.8006 192.796C15.9755 200.423 14.7249 204.588 12.9941 210.35C13.05 211.109 13.5748 211.768 14.5797 212.315C15.1269 212.617 15.8304 212.885 16.679 213.119C17.3267 213.298 18.0525 213.465 18.8676 213.599L21.045 208.262C24.7745 187.682 27.9904 169.917 44.5947 140.94C58.184 121.589 66.3912 109.909 89.6729 87.4315L92.2635 84.5283C91.6717 84.2045 91.359 83.8137 91.3255 83.367C91.292 82.8757 91.5712 82.3174 92.1741 81.6921C90.6332 83.1772 88.5786 85.176 87.06 86.6722L72.9458 101.825Z" fill="#293D82"/>
<path opacity="0.2" d="M9.40971 222.577C2.87744 252.692 2.87744 252.692 1.39233 268.224C-0.304944 298.898 -0.33844 299.49 0.688857 315.346C4.00524 346.656 4.07224 347.248 7.76827 363.205L8.00276 364.232C8.50525 364.846 9.10822 365.784 9.78937 366.186C10.4258 366.532 11.2298 366.845 12.2013 367.124C12.9494 367.336 13.7869 367.515 14.7249 367.682L14.0214 361.876C6.14916 338.929 -0.63993 319.109 0.309203 284.349C2.44196 260.821 3.72608 246.618 13.8427 216.324L14.5797 212.315C13.5747 211.768 13.0499 211.109 12.9941 210.35C12.9718 210.093 13.0053 209.814 13.0946 209.535L9.40971 222.577Z" fill="#293D82"/>
<g opacity="0.2">
<path opacity="0.2" d="M65.6983 482.371C70.4105 487.775 76.5185 495.145 81.4539 500.349C81.6996 500.606 82.0346 500.851 82.4477 501.086C82.9949 501.387 83.6872 501.655 84.5358 501.89C85.1835 502.068 85.9093 502.225 86.7133 502.37L83.4639 498.35C65.341 480.607 57.0668 472.5 42.5283 449.274C49.1946 459.391 58.0383 472.98 65.6983 482.371Z" fill="#293D82"/>
<path opacity="0.2" d="M19.2691 401.226L27.2307 420.309C17.0471 395.073 16.2096 393.018 11.2294 370.529L9.77782 366.186C9.20834 365.627 8.23687 364.991 7.99121 364.232C11.1178 375.409 15.1153 390.394 19.2691 401.226Z" fill="#293D82"/>
</g>
<g opacity="0.2">
<path opacity="0.2" d="M209.577 579.719C209.633 579.741 209.7 579.753 209.755 579.775C210.135 579.875 210.559 579.976 211.028 580.054L206.082 578.424C196.546 575.107 183.928 570.395 174.615 566.498C185 570.73 198.891 576.313 209.577 579.719Z" fill="#293D82"/>
<path opacity="0.2" d="M97.2777 515.792L103.374 521.174C97.97 516.116 90.6784 509.46 85.5643 504.112L82.4489 501.075C82.0357 500.851 81.7007 500.606 81.4551 500.338L97.2777 515.792Z" fill="#293D82"/>
</g>
<path opacity="0.2" d="M304.879 4.63352C333.967 9.28986 342.755 11.0765 371.263 24.8333C374.021 23.7167 376.455 22.667 378.532 21.6844C380.296 20.8469 381.804 20.0653 383.043 19.3283C368.817 13.8345 359.136 10.8978 344.709 7.65958C344.72 7.64841 344.732 7.64841 344.743 7.63725C361.191 10.2278 371.776 12.4834 386.672 16.5479C387.197 15.9003 387.342 15.3196 387.108 14.8395C386.895 14.4152 386.393 14.0467 385.567 13.7564C360.554 6.96727 345.022 3.60622 310.719 2.13228C280.291 1.19431 268.008 1.21664 233.482 7.9164C233.493 7.93874 233.471 7.97224 233.415 8.00574C247.686 5.28117 257.724 4.04171 271.749 3.27124C271.738 3.27124 271.738 3.2824 271.727 3.2824C257.065 4.35437 247.362 5.56032 233.27 8.0839C233.181 8.12856 233.058 8.17323 232.924 8.22906C275.791 2.54543 298.838 4.04171 304.879 4.63352Z" fill="#293D82"/>
<path opacity="0.2" d="M277.512 14.1472C293.346 22.935 297.98 25.9946 309.861 44.5083C315.343 42.9897 320.591 41.4934 325.594 40.0194C329.837 38.78 333.902 37.5517 337.776 36.3569C328.821 28.9313 322.657 24.811 313.333 20.0207C313.367 20.0095 313.412 19.9983 313.445 19.9872C330.284 24.3643 339.898 27.1559 353.007 31.4772C356.77 30.2155 360.254 28.9983 363.459 27.8259C363.671 27.7477 363.894 27.6695 364.106 27.5914C366.675 26.6534 369.042 25.7378 371.208 24.8668C342.232 17.7204 325.047 13.9239 292.765 10.0827C272.241 6.21915 262.873 4.46604 232.903 8.24024C232.758 8.29607 232.579 8.3519 232.378 8.4189C242.428 7.32461 249.284 7.26878 258.574 8.20674C258.552 8.21791 258.529 8.21791 258.507 8.22908C247.676 7.76009 240.987 7.83826 231.987 8.54173C231.764 8.60873 231.529 8.67573 231.272 8.74272C256.33 9.71419 277.4 14.1025 277.512 14.1472Z" fill="#293D82"/>
<path opacity="0.2" d="M232.277 25.8383C229.172 39.4389 227.855 44.0729 219.67 66.7069C225.867 65.3558 232.154 63.9488 238.507 62.486C243.901 61.2466 249.339 59.9736 254.81 58.6672C254.375 49.3098 253.928 43.6374 252.499 36.7031C252.555 36.692 252.61 36.6808 252.666 36.6585C255.804 38.8805 255.804 38.8805 277.846 52.9835C283.854 51.4649 289.694 49.9463 295.332 48.45C295.712 48.3495 296.092 48.249 296.471 48.1485C301.027 46.9314 305.46 45.7255 309.748 44.5418C263.051 25.883 263.051 25.883 252.756 21.5282C246.748 13.3991 244.269 10.0381 231.238 8.7428C231.004 8.8098 230.747 8.86562 230.49 8.93262C230.457 8.94379 230.434 8.94379 230.401 8.95496C232.478 10.0492 233.55 11.4674 234.655 14.6051C234.622 14.6163 234.588 14.6163 234.555 14.6274C231.238 11.914 230.144 10.6187 229.854 9.07778C229.574 9.14478 229.306 9.20061 229.038 9.25644C224.438 14.1249 223.868 17.5083 232.277 25.8383Z" fill="#293D82"/>
<path opacity="0.2" d="M188.203 34.7489C167.914 52.0008 161.504 57.9524 139.719 81.8036C144.241 81.1224 149.009 80.3631 153.989 79.5256C158.21 78.8222 162.587 78.0517 167.11 77.2366C173.307 67.7452 177.907 61.1906 185.366 51.2303C185.411 51.2192 185.467 51.208 185.512 51.208C184.361 58.9574 185.054 64.3395 187.03 73.4847C192.569 72.4016 198.241 71.2514 204.036 70.0455C204.427 69.9673 204.818 69.878 205.198 69.7998C209.91 68.8172 214.7 67.7899 219.546 66.7291C210.468 55.3395 203.299 46.3507 204.483 32.404C215.828 20.0541 220.194 15.4648 229.004 9.25635C228.736 9.31218 228.468 9.36801 228.223 9.41267C221.579 12.3606 216.688 15.1075 209.541 19.8978C209.519 19.8978 209.486 19.909 209.463 19.909C215.013 15.3643 219.636 12.7402 227.787 9.49084C227.575 9.52434 227.374 9.55784 227.195 9.58017C203.065 18.8705 201.089 20.9809 188.203 34.7489Z" fill="#293D82"/>
<path opacity="0.2" d="M222.217 10.6745C202.196 16.8718 183.28 22.7229 159.987 38.0095C136.918 51.9562 125.339 58.9574 99.1202 81.4016L94.7988 85.2987C96.1946 85.5331 97.9812 85.6671 100.136 85.7006C101.968 85.723 104.056 85.6783 106.389 85.5666C117.422 74.78 125.216 67.8904 137.309 58.2316C137.331 58.2316 137.365 58.2316 137.387 58.2205C128.007 68.0356 123.396 74.8247 117.69 84.651C121.084 84.3049 124.769 83.8694 128.7 83.3446C128.968 83.3111 129.224 83.2776 129.492 83.2441C132.708 82.8197 136.103 82.3396 139.643 81.8036C143.83 67.4661 147.135 56.1324 167.681 38.3222C191.655 24.1187 201.269 18.7365 227.186 9.56903C227.007 9.59136 226.84 9.6137 226.706 9.6137C213.921 13.4437 204.921 16.7378 192.291 22.2092C192.28 22.2092 192.269 22.2092 192.247 22.2092C204.184 16.7043 212.826 13.5219 226.483 9.6137C226.416 9.6137 226.36 9.60253 226.326 9.60253C226.315 9.60253 226.304 9.59136 226.293 9.59136L222.217 10.6745Z" fill="#293D82"/>
<path opacity="0.2" d="M441.476 54.3793C462.826 74.9364 469.124 81.5468 486.454 111.338C491.121 109.451 495.242 107.676 498.748 106.001C501.729 104.583 504.275 103.254 506.374 102.015C496.582 89.4748 489.681 81.826 479.051 71.7205C479.073 71.7093 479.095 71.687 479.118 71.6758C493.444 81.2676 501.562 87.4984 512.505 97.3247C513.387 96.2193 513.644 95.2478 513.242 94.4215L512.84 93.8632C507.871 88.9612 501.439 82.2503 496.28 77.5493C485.371 68.5269 474.093 59.1919 453.725 48.4277C429.037 32.4934 418.887 26.3966 387.085 14.8395C387.32 15.3309 387.174 15.9003 386.65 16.548C386.169 17.151 385.377 17.8098 384.282 18.5356C396.621 23.3817 405.174 27.4798 416.988 34.1907C416.955 34.213 416.921 34.2242 416.888 34.2465C403.611 29.1882 393.93 26.017 378.521 21.6733C376.444 22.6559 374.009 23.7167 371.251 24.8222C371.229 24.8333 371.218 24.8333 371.195 24.8445C369.029 25.7155 366.662 26.6311 364.094 27.5691C422.884 44.218 441.342 54.29 441.476 54.3793Z" fill="#293D82"/>
<path opacity="0.2" d="M369.052 79.5593C377.706 104.661 379.66 112.388 382.619 144.603C391.887 142.035 400.765 139.5 409.229 137.021C416.409 134.922 423.287 132.845 429.83 130.824C425.074 117.659 421.5 108.793 415.113 96.9117C415.191 96.8894 415.27 96.867 415.348 96.8335C438.149 110.747 442.895 113.639 455.602 122.549C461.967 120.417 467.863 118.351 473.278 116.374C473.647 116.24 474.004 116.107 474.362 115.973C478.694 114.376 482.703 112.835 486.365 111.361C459.711 94.8683 444.146 85.8906 406.962 69.1077C392.021 50.0134 385.724 42.6548 363.458 27.8036C360.265 28.9761 356.77 30.1932 353.007 31.455C349.545 32.6163 345.849 33.8223 341.941 35.0506C349.4 41.0692 354.559 46.2615 361.649 54.8595C361.549 54.893 361.448 54.9153 361.359 54.9488C349.545 49.6784 340.411 45.9377 325.593 40.0084C320.591 41.4712 315.343 42.9674 309.86 44.4972C309.827 44.5084 309.793 44.5195 309.748 44.5307C305.461 45.7255 301.028 46.9315 296.472 48.1374C338.881 66.2268 347.703 69.9786 369.052 79.5593Z" fill="#293D82"/>
<path opacity="0.2" d="M249.328 110.501C243.332 135.022 241.49 142.325 230.067 182.144C240.541 179.855 251.182 177.476 261.935 175.009C271.058 172.92 280.259 170.754 289.516 168.543C290.677 149.103 291.113 141.834 291.101 130.913C291.213 130.879 291.336 130.857 291.448 130.824C303.574 140.482 316.259 149.404 328.475 158.94C338.636 156.361 348.507 153.804 358.054 151.269C358.702 151.102 359.338 150.923 359.986 150.755C367.702 148.701 375.195 146.657 382.453 144.647C381.035 143.821 381.035 143.821 302.726 98.9439C302 76.2206 301.441 67.3992 295.356 48.4389C289.717 49.9352 283.877 51.4538 277.869 52.9724C273.492 54.0779 269.015 55.1945 264.448 56.3111C263.242 56.6014 262.047 56.9029 260.841 57.1933C261.567 64.6188 261.533 71.2963 261.209 81.7591C261.075 81.7925 260.93 81.826 260.796 81.8595C250.389 73.3173 245.498 69.2528 238.531 62.4637C232.177 63.9265 225.879 65.3335 219.693 66.6846C219.649 66.6958 219.615 66.7069 219.57 66.7069C214.724 67.7677 209.934 68.7838 205.222 69.7776C215.617 82.5965 223.322 91.4179 249.328 110.501Z" fill="#293D82"/>
<path opacity="0.2" d="M132.663 134.084C114.116 166.701 109.158 176.337 94.8428 207.681C102.492 206.531 110.554 205.247 118.973 203.84C126.119 202.645 133.523 201.35 141.16 199.965C144.689 188.397 144.689 188.397 154.225 160.537C154.325 160.515 154.426 160.504 154.515 160.481C159.775 171.167 164.498 178.202 174.849 193.6C184.218 191.758 193.821 189.815 203.613 187.772C204.272 187.638 204.931 187.492 205.59 187.358C213.563 185.695 221.669 183.964 229.865 182.177C207.778 162.871 193.195 149.538 176.904 127.306C186.082 107.564 188.852 101.613 204.027 70.0233C198.231 71.2292 192.559 72.3793 187.02 73.4625C181.917 74.4674 176.937 75.4166 172.102 76.3099C162.477 92.2553 160.735 95.1362 155.755 104.013C155.643 104.036 155.531 104.058 155.42 104.069C153.533 93.5952 153.198 87.8558 153.979 79.5034C148.999 80.3409 144.231 81.1002 139.709 81.7813C139.686 81.7813 139.653 81.7925 139.631 81.7925C136.091 82.3173 132.708 82.7975 129.481 83.2329C125.505 101.858 125.07 113.025 132.663 134.084Z" fill="#293D82"/>
<path opacity="0.2" d="M89.6725 87.4426C77.4789 102.763 65.9665 117.223 57.9938 142.738C41.4119 167.427 34.165 178.626 21.0334 208.262L18.8672 213.599C21.2233 214.001 24.2493 214.224 27.8895 214.28C30.9826 214.325 34.5111 214.247 38.4528 214.046C44.0136 199.943 48.3461 190.407 56.2518 174.807C56.3077 174.807 56.3635 174.796 56.4193 174.796C55.2134 188.363 55.8275 197.765 57.5806 212.505C63.3312 211.913 69.5509 211.176 76.1948 210.305C76.6414 210.249 77.0881 210.182 77.5347 210.126C82.9839 209.401 88.7122 208.597 94.6973 207.692C86.0546 186.923 79.8127 171.915 80.9516 142.749C97.4107 119.78 104.914 109.306 128.699 83.3334C124.768 83.8471 121.083 84.2826 117.689 84.6399C114.562 84.9637 111.67 85.2094 109.046 85.388C99.8114 94.8012 92.9665 102.115 83.2407 113.829C83.1849 113.829 83.129 113.829 83.0732 113.84C88.5447 102.461 92.6985 95.6163 100.146 85.6784C97.9913 85.6449 96.2047 85.5109 94.809 85.2764C94.3288 85.1982 93.9045 85.0977 93.5137 84.9972C93.0112 84.8521 92.598 84.6957 92.2742 84.5171L89.6725 87.4426Z" fill="#293D82"/>
<path opacity="0.2" d="M540.689 166.422C549.801 198.592 552.28 208.686 554.345 249.644C559.739 247.466 564.484 245.412 568.538 243.491C571.977 241.861 574.925 240.32 577.348 238.891C574.634 221.337 572.178 210.271 567.588 195.063C567.611 195.041 567.644 195.03 567.667 195.007C575.729 209.691 579.804 219.037 584.416 233.475C585.276 232.403 585.622 231.432 585.432 230.583L585.198 229.556C582.049 218.099 577.638 202.879 573.741 191.657C565.009 171.949 564.484 170.765 556.322 158.594C542.811 132.644 537.227 121.902 513.265 94.4103C513.667 95.2366 513.41 96.208 512.528 97.3135C511.713 98.3296 510.373 99.4574 508.519 100.686C516.771 111.26 522.265 119.49 529.5 132.152C529.456 132.175 529.4 132.208 529.355 132.242C519.462 122.516 512.025 116.14 498.771 106.001C495.254 107.665 491.144 109.451 486.477 111.338C486.443 111.35 486.421 111.361 486.388 111.372C482.725 112.846 478.716 114.387 474.384 115.984C529.165 150.632 540.611 166.288 540.689 166.422Z" fill="#293D82"/>
<path opacity="0.2" d="M441.88 200.791C441.198 235.999 440.54 246.517 434.521 288.056C445.207 285.085 455.458 282.16 465.228 279.301C473.514 276.878 481.442 274.489 489.012 272.155C489.068 254.3 488.823 242.363 487.304 226.708C487.405 226.675 487.505 226.641 487.594 226.619C502.535 242.508 508.721 249.097 518.748 262.608C526.084 260.14 532.896 257.762 539.138 255.484C539.562 255.327 539.975 255.171 540.388 255.026C545.391 253.183 550.014 251.408 554.246 249.7C535.922 225.737 524.566 212.549 492.742 186.744C487.672 156.897 485.305 145.116 473.268 116.385C467.864 118.362 461.957 120.428 455.592 122.56C449.729 124.526 443.488 126.558 436.866 128.635C441.299 140.371 443.823 150.152 446.703 163.072C446.558 163.116 446.413 163.161 446.268 163.206C434.51 154.261 425.945 148.366 409.218 137.021C400.754 139.5 391.877 142.034 382.609 144.603C382.553 144.614 382.486 144.636 382.43 144.647C375.172 146.657 367.68 148.701 359.964 150.755C390.705 168.454 413.004 181.496 441.88 200.791Z" fill="#293D82"/>
<path opacity="0.2" d="M278.517 243C266.703 293.538 265.184 300.037 258.473 331.358C270.555 328.723 282.838 325.976 295.244 323.129C305.774 320.717 316.393 318.227 327.068 315.67C331.501 270.513 331.501 270.513 331.579 269.397C331.724 269.363 331.869 269.33 332.014 269.285C345.313 281.099 359.126 292.321 372.023 304.593C383.748 301.623 395.137 298.664 406.158 295.738C406.906 295.537 407.643 295.347 408.38 295.146C417.28 292.779 425.923 290.423 434.308 288.1C406.516 265.835 393.049 255.528 351.064 227.267C355.754 194.069 357.284 182.099 358.043 151.269C348.496 153.804 338.636 156.372 328.463 158.94C321.049 160.816 313.478 162.703 305.774 164.601C303.741 165.104 301.709 165.595 299.677 166.087C299.308 176.438 298.538 183.752 296.472 203.304C296.271 203.348 296.059 203.404 295.858 203.449C265.642 178.269 265.642 178.269 261.935 175.008C251.182 177.476 240.54 179.855 230.066 182.144C229.999 182.155 229.932 182.177 229.865 182.188C221.658 183.975 213.563 185.706 205.59 187.369C227.107 205.615 240.127 216.379 278.517 243Z" fill="#293D82"/>
<path opacity="0.2" d="M119.319 275.192C108.745 315.201 106.69 325.608 102.403 360.849C111.224 359.531 120.525 358.046 130.251 356.416C138.492 355.031 147.045 353.546 155.855 351.949C156.581 337.009 157.061 332.375 159.719 306.603C159.842 306.581 159.965 306.559 160.087 306.536C165.425 313.001 165.425 313.001 194.748 344.613C205.556 342.492 216.633 340.247 227.945 337.891C228.704 337.735 229.463 337.578 230.223 337.411C239.424 335.49 248.77 333.492 258.239 331.426C227.643 307.429 207.12 291.037 180.109 265.824C187.422 239.862 190.761 228.015 203.625 187.794C193.821 189.837 184.218 191.78 174.86 193.623C166.229 195.32 157.81 196.928 149.625 198.436C146.051 211.165 142.166 223.805 138.793 236.602C138.626 236.635 138.458 236.658 138.302 236.691C128.967 222.387 124.646 215.274 118.984 203.862C110.554 205.28 102.492 206.565 94.8542 207.704C94.8095 207.715 94.7648 207.715 94.7202 207.726C88.735 208.619 83.0068 209.434 77.5576 210.16C87.4174 231.644 94.7313 246.294 119.319 275.192Z" fill="#293D82"/>
<path opacity="0.2" d="M13.8532 216.324C11.3855 237.618 9.2527 256.008 17.4487 286.995C13.0269 316.239 11.3408 329.404 14.0319 361.876L14.7353 367.682C17.4599 368.151 20.9438 368.408 25.1535 368.464C28.7155 368.52 32.7912 368.419 37.347 368.196C36.1076 352.853 35.9624 342.648 36.7329 324.525C36.7999 324.525 36.8669 324.513 36.9339 324.513C43.2651 339.208 48.9823 349.314 59.4116 366.432C66.0443 365.751 73.2242 364.902 80.8955 363.886C81.4091 363.819 81.9228 363.752 82.4476 363.685C88.7342 362.847 95.3446 361.909 102.245 360.882C80.3818 335.892 65.9327 318.439 49.7081 286.827C57.29 259.035 60.7515 246.338 76.1945 210.327C69.5394 211.198 63.3198 211.935 57.5803 212.527C52.2875 213.074 47.3967 213.498 42.9525 213.8C37.4029 228.528 34.2651 237.428 30.3234 251.285C30.2341 251.285 30.1559 251.296 30.0666 251.296C27.945 236.423 27.4091 227.434 27.8892 214.291C24.249 214.235 21.2229 214.012 18.8669 213.61C18.0629 213.476 17.3259 213.309 16.6783 213.13C15.8296 212.896 15.1373 212.628 14.579 212.326L13.8532 216.324Z" fill="#293D82"/>
<path opacity="0.2" d="M576.836 318.395C569.902 353.647 567.043 364.589 552.527 400.489C557.183 398.613 561.281 396.838 564.776 395.174C567.747 393.767 570.293 392.438 572.381 391.199C578.02 375.22 581.023 364.679 584.306 349.426C584.329 349.403 584.351 349.392 584.384 349.37C583.569 363.752 582.129 372.774 578.489 386.52C578.891 386.017 579.159 385.549 579.304 385.113C582.43 373.645 586.294 358.258 588.639 346.601L590.559 333.815C591.051 326.903 591.687 317.669 591.62 310.735C592.726 278.129 592.748 277.504 588.393 245.099L585.456 230.583C585.646 231.432 585.3 232.403 584.44 233.475C583.502 234.648 581.95 235.943 579.817 237.361C582.006 251.866 582.866 262.653 583.089 278.587C583.033 278.62 582.989 278.643 582.933 278.676C579.114 266.025 575.619 257.471 568.573 243.491C564.52 245.412 559.774 247.467 554.381 249.644C554.347 249.655 554.314 249.677 554.28 249.689C550.048 251.397 545.425 253.172 540.423 255.015C574.726 299.367 576.724 316.575 576.836 318.395Z" fill="#293D82"/>
<path opacity="0.2" d="M477.667 352.876C467.986 385.224 464.502 396.212 449.071 433.63C458.294 431.073 467.149 428.549 475.579 426.071C482.726 423.971 489.582 421.917 496.103 419.907C501.541 404.899 505.237 393.945 509.19 379.027C509.279 378.994 509.368 378.971 509.469 378.938C515.521 392.013 518.815 399.406 521.785 411.655C528.128 409.522 534.001 407.468 539.383 405.502C539.752 405.368 540.109 405.234 540.466 405.1C544.788 403.515 548.774 401.974 552.426 400.511C548.584 378.536 544.922 365.281 528.005 338.862C535.241 305.497 537.809 292.098 539.115 255.472C532.873 257.75 526.062 260.14 518.726 262.596C511.97 264.863 504.757 267.208 497.119 269.609C497.097 284.237 496.014 296.575 494.272 311.75C494.115 311.795 493.959 311.851 493.803 311.896C485.339 301.098 478.449 293.449 465.206 279.29C455.435 282.149 445.196 285.074 434.499 288.044C434.432 288.067 434.365 288.078 434.286 288.1C425.912 290.423 417.258 292.779 408.358 295.146C436.386 316.373 455.011 330.845 477.667 352.876Z" fill="#293D82"/>
<path opacity="0.2" d="M313.748 395.241C305.173 431.096 302.872 440.732 297.122 471.026C307.551 468.748 318.159 466.381 328.867 463.924C337.957 461.836 347.124 459.692 356.336 457.481C358.693 444.64 361.395 431.855 363.55 418.969C363.684 418.936 363.818 418.902 363.963 418.869C391.812 444.439 391.812 444.439 395.15 447.923C405.278 445.355 415.104 442.809 424.607 440.274C425.243 440.107 425.891 439.928 426.528 439.761C434.21 437.717 441.669 435.685 448.905 433.675C430.503 414.849 419.694 404.676 386.307 379.407C396.591 342.045 399.65 329.84 406.16 295.738C395.15 298.664 383.761 301.623 372.025 304.593C363.472 306.759 354.74 308.937 345.84 311.125C343.495 311.706 341.139 312.275 338.794 312.845C337.845 322.984 337.666 324.179 333.133 354.908C332.91 354.964 332.697 355.009 332.474 355.065C320.124 344.356 307.495 333.949 295.246 323.129C282.84 325.976 270.557 328.723 258.475 331.359C258.397 331.381 258.319 331.392 258.241 331.414C248.772 333.48 239.426 335.479 230.225 337.399C255.215 355.891 268.983 366.074 313.748 395.241Z" fill="#293D82"/>
<path opacity="0.2" d="M154.004 427.534C154.797 460.039 155.556 468.815 162.401 496.474C170.016 495.335 178.045 494.051 186.442 492.644C193.555 491.449 200.936 490.165 208.54 488.792C205.748 476.286 204.821 469.229 202.778 453.763C202.89 453.741 203.012 453.719 203.124 453.696C208.406 457.895 208.406 457.895 242.106 482.449C251.429 480.618 260.999 478.675 270.769 476.643C271.428 476.509 272.076 476.375 272.735 476.23C280.674 474.566 288.747 472.846 296.921 471.06C266.872 452.412 244.964 438.644 215.329 417.953C218.668 391.176 220.041 380.099 227.958 337.857C216.647 340.214 205.57 342.458 194.761 344.58C184.8 346.534 175.086 348.387 165.639 350.14C165.103 363.618 164.21 377.085 164.02 390.585C163.841 390.618 163.663 390.652 163.495 390.685C148.901 376.482 141.352 368.944 130.275 356.393C120.55 358.024 111.248 359.509 102.427 360.826C102.371 360.838 102.315 360.838 102.27 360.849C95.3697 361.887 88.7593 362.825 82.4727 363.652C105.71 388.441 119.511 401.963 154.004 427.534Z" fill="#293D82"/>
<path opacity="0.2" d="M11.2426 370.53C20.0751 392.304 27.7017 411.097 51.7762 439.381C61.2005 463.634 65.1087 473.672 83.466 498.339L86.7154 502.359C89.0603 502.761 92.0752 502.984 95.7043 503.04C98.7862 503.084 102.304 503.006 106.234 502.805C98.7638 491.907 94.275 484.057 87.7315 470.524C87.7985 470.524 87.8544 470.512 87.9214 470.512C100.271 482.081 109.807 489.651 125.284 501.287C131.012 500.695 137.209 499.958 143.831 499.098C144.278 499.042 144.724 498.986 145.171 498.919C150.598 498.205 156.304 497.39 162.266 496.496C134.384 478.854 113.928 465.32 84.8953 438.968C80.6745 411.175 79.2899 399.729 80.8978 363.875C73.2266 364.879 66.0467 365.728 59.4139 366.42C53.3059 367.046 47.667 367.537 42.5305 367.883C43.904 383.393 44.9759 392.628 47.6782 406.362C47.5888 406.362 47.4883 406.373 47.399 406.373C37.327 391.578 31.9114 382.366 25.1446 368.464C20.9349 368.408 17.4511 368.14 14.7265 367.682C13.7885 367.526 12.9511 367.336 12.2029 367.124C11.2315 366.856 10.4275 366.543 9.79102 366.186L11.2426 370.53Z" fill="#293D82"/>
<path opacity="0.2" d="M537.618 459.023C517.128 487.184 510.294 495.559 484.467 520.247C487.203 519.142 489.603 518.103 491.658 517.132C493.4 516.305 494.896 515.524 496.124 514.798C507.827 503.799 515.129 496.039 525.078 484.068C525.09 484.057 525.112 484.046 525.123 484.035C517.564 493.928 513.265 498.529 507.067 504.927C515.788 495.413 526.999 482.349 535.016 472.243L544.631 458.397L547.701 453.506L558.354 435.138L559.27 433.407C572.312 405.927 572.312 405.927 577.281 391.288L579.302 385.113C579.157 385.56 578.889 386.029 578.487 386.52C577.672 387.536 576.332 388.653 574.489 389.881C569.699 403.158 565.612 412.638 558.89 426.082C558.845 426.104 558.812 426.127 558.767 426.149C562.24 414.905 563.703 407.379 564.786 395.163C561.28 396.826 557.193 398.602 552.536 400.478C552.503 400.489 552.48 400.5 552.447 400.511C548.796 401.985 544.798 403.515 540.488 405.101C544.843 428.896 543.882 447.03 537.618 459.023Z" fill="#293D82"/>
<path opacity="0.2" d="M464.323 484.515C448.356 508.757 442.895 516.774 423.745 539.71C429.161 538.202 434.353 536.728 439.3 535.277C443.498 534.048 447.518 532.843 451.348 531.659C460.806 521.498 466.892 514.251 474.596 503.967C474.663 503.944 474.719 503.933 474.786 503.911C472.888 513.715 470.934 519.063 466.423 526.824C470.141 525.573 473.591 524.367 476.751 523.217C476.964 523.139 477.176 523.061 477.388 522.983C479.923 522.045 482.268 521.151 484.411 520.28C493.869 506.635 500.714 496.776 500.882 474.231C517.944 448.079 524.588 437.416 539.383 405.525C534.001 407.49 528.116 409.545 521.785 411.677C515.945 413.632 509.725 415.653 503.137 417.73C498.414 430.336 493.813 440.419 487.929 452.602C487.806 452.635 487.683 452.68 487.549 452.713C484.523 442.999 481.285 436.377 475.59 426.082C467.16 428.55 458.316 431.073 449.081 433.641C449.026 433.653 448.959 433.675 448.903 433.686C441.667 435.696 434.208 437.728 426.526 439.772C443.889 455.784 455.1 466.783 464.323 484.515Z" fill="#293D82"/>
<path opacity="0.2" d="M343.136 515.825C336.838 540.57 335.799 546.13 334.538 561.652C340.668 560.312 346.888 558.927 353.174 557.475C358.512 556.247 363.894 554.985 369.298 553.701C371.721 546.041 374.368 538.459 376.746 530.788C376.836 530.766 376.925 530.743 377.025 530.721C385.769 539.632 388.404 542.312 392.089 548.085C398.029 546.577 403.802 545.081 409.385 543.596C409.765 543.495 410.133 543.395 410.513 543.294C415.024 542.088 419.401 540.905 423.644 539.721C419.29 527.941 415.192 520.593 396.555 504.056C409.508 476.241 413.651 467.017 424.605 440.263C415.102 442.787 405.265 445.344 395.148 447.912C387.767 449.788 380.219 451.664 372.537 453.551C370.504 454.053 368.483 454.545 366.462 455.036C366.339 455.673 366.339 455.673 359.115 487.094C358.936 487.139 358.768 487.184 358.59 487.217C353.811 483.242 353.811 483.242 328.865 463.913C318.157 466.37 307.56 468.748 297.12 471.015C297.053 471.026 296.986 471.048 296.919 471.06C288.745 472.846 280.683 474.566 272.732 476.23C296.182 489.473 319.787 502.437 343.136 515.825Z" fill="#293D82"/>
<path opacity="0.2" d="M225.053 539.71C235.147 558.659 238.877 563.93 255.47 576.592C259.936 575.922 264.66 575.174 269.584 574.348C273.76 573.644 278.093 572.896 282.559 572.081C277.065 566.609 273.961 562.59 268.747 554.17C268.825 554.159 268.903 554.137 268.981 554.126C279.41 558.983 286.099 561.73 302.268 568.363C307.739 567.291 313.356 566.152 319.095 564.957C319.475 564.879 319.866 564.801 320.245 564.711C324.913 563.74 329.647 562.724 334.438 561.674C299.197 545.829 291.861 542.524 270.678 532.452C268.992 514.586 268.222 506.434 270.779 476.643C261.02 478.675 251.45 480.618 242.115 482.449C233.517 484.135 225.131 485.743 216.98 487.251C220.966 505.508 221.379 507.406 223.925 515.624C223.78 515.647 223.646 515.68 223.501 515.702C208.929 506.97 200.13 501.7 186.451 492.644C178.054 494.051 170.026 495.335 162.41 496.474C162.366 496.485 162.321 496.485 162.276 496.496C156.313 497.39 150.607 498.194 145.181 498.92C164.32 510.041 186.027 522.637 218.8 536.974C220.665 537.789 223.546 538.314 225.053 539.71Z" fill="#293D82"/>
<path opacity="0.2" d="M85.5742 504.112C102.458 518.918 117.041 531.715 149.479 548.453C167.981 561.328 177.272 567.793 206.081 578.412L211.027 580.042C212.401 580.277 214.176 580.411 216.309 580.445C218.118 580.467 220.184 580.422 222.484 580.31C210.257 575.665 202.708 572.047 191.43 565.426C191.475 565.426 191.52 565.415 191.553 565.415C205.835 571.031 216.856 574.694 233.661 579.406C237.022 579.06 240.663 578.624 244.548 578.122C244.805 578.088 245.073 578.055 245.33 578.021C248.512 577.597 251.862 577.128 255.368 576.603C228.715 569.111 208.705 563.07 174.625 547.917C159.908 530.944 154.28 523.809 143.817 499.087C137.196 499.958 130.999 500.695 125.27 501.276C120 501.823 115.131 502.247 110.698 502.538C117.61 512.565 122.389 518.952 130.92 528.209C130.842 528.209 130.775 528.22 130.697 528.22C116.136 518.829 107.628 512.699 95.6909 503.04C92.0618 502.984 89.047 502.761 86.702 502.359C85.8981 502.225 85.1723 502.057 84.5246 501.879C83.6871 501.644 82.9837 501.376 82.4365 501.075L85.5742 504.112Z" fill="#293D82"/>
<path opacity="0.2" d="M436.375 557.643L425.577 563.17L427.877 562.054C449.953 550.318 450.813 549.86 469.304 537.187C478.449 530.096 490.431 520.359 499.096 512.688C498.649 513.101 498.068 513.548 497.365 514.017C486.858 523.642 479.064 530.007 467.551 538.314C467.529 538.325 467.506 538.337 467.484 538.348C477.645 530.766 483.519 525.607 491.659 517.121C489.604 518.092 487.204 519.142 484.468 520.236C484.446 520.247 484.434 520.247 484.412 520.258C482.268 521.118 479.923 522.023 477.389 522.961C469.874 532.608 460.505 544.612 436.375 557.643Z" fill="#293D82"/>
<path opacity="0.2" d="M407.777 567.58C400.91 571.366 391.541 576.067 384.339 579.182C393.964 576.022 398.632 574.358 408.112 570.707C412.054 568.675 417.358 566.04 421.143 563.728C442.515 550.965 451.37 545.683 476.762 523.206C473.602 524.367 470.152 525.573 466.433 526.813C463.005 527.963 459.354 529.146 455.49 530.363C447.763 538.314 441.298 544.221 432.432 551.445C432.365 551.468 432.309 551.479 432.242 551.501C436.206 545.985 437.926 542.043 439.322 535.265C434.375 536.717 429.183 538.202 423.767 539.698C423.733 539.71 423.7 539.721 423.666 539.732C419.423 540.904 415.035 542.099 410.535 543.305C412.858 548.71 417.76 559.965 407.777 567.58Z" fill="#293D82"/>
<path opacity="0.2" d="M360.489 579.808C360.053 581.472 359.54 583.761 359.674 585.469C359.93 585.547 360.265 585.648 360.511 585.726C361.27 585.559 362.298 585.324 363.057 585.145C363.984 584.933 365.212 584.643 366.128 584.42C367.434 584.018 367.847 583.828 369.232 582.957C369.254 582.957 369.277 582.946 369.299 582.946C368.852 583.671 368.852 583.671 368.115 583.928C371.688 582.99 372.325 582.823 376.01 581.751C380.979 578.948 381.269 578.769 381.023 575.196C391.207 565.482 395.439 561.216 409.375 543.607C403.791 545.092 398.019 546.588 392.078 548.096C387.746 549.19 383.313 550.295 378.813 551.401C377.618 551.691 376.434 551.982 375.239 552.272C374.625 553.913 374.625 553.913 368.64 568.53C368.551 568.552 368.461 568.575 368.383 568.597C364.587 565.336 361.416 563.081 353.186 557.498C346.899 558.938 340.68 560.334 334.549 561.674C334.505 561.685 334.471 561.696 334.427 561.696C329.625 562.746 324.891 563.751 320.234 564.733C356.424 578.178 356.424 578.178 360.489 579.808Z" fill="#293D82"/>
<path opacity="0.2" d="M314.407 589.12C328.075 590.628 329.828 590.818 342.166 589.176L345.315 588.663C346.7 588.428 348.554 588.104 349.938 587.847C346.689 588.417 345.282 588.529 342.658 588.696C342.68 588.696 342.691 588.685 342.714 588.685C346.432 588.35 348.073 588.171 351.781 587.501C352.763 587.311 354.07 587.055 355.052 586.865C355.879 586.697 356.984 586.474 357.81 586.295C352.261 586.954 346.521 587.635 332.63 586.106C325.495 581.114 322.536 579.037 319.075 564.946C313.346 566.14 307.73 567.279 302.247 568.351C297.2 569.345 292.276 570.283 287.496 571.165C292.488 576.246 295.715 579.115 301.711 582.633C301.644 582.644 301.566 582.655 301.499 582.666C289.35 579.942 281.299 577.843 269.575 574.325C264.65 575.151 259.927 575.9 255.46 576.57C255.438 576.57 255.405 576.581 255.382 576.581C251.887 577.106 248.537 577.575 245.344 577.999C281.087 586.184 288.814 586.865 314.407 589.12Z" fill="#293D82"/>
<path opacity="0.2" d="M216.969 581.885C227.565 584.453 241.769 587.569 252.5 589.478C262.203 590.628 275.167 591.912 284.915 592.538L290.387 592.716C305.964 592.705 306.578 592.705 315.645 592.136C324.902 591.41 324.902 591.41 329.703 590.874C331.144 590.695 333.053 590.472 334.482 590.293C315.656 592.058 312.764 592.326 295.702 592.058C274.475 589.601 265.687 588.574 244.549 578.133C240.663 578.647 237.023 579.071 233.662 579.417C230.569 579.741 227.711 579.987 225.109 580.154C236.376 584.308 244.092 586.508 255.66 588.875C255.626 588.875 255.582 588.875 255.548 588.875C240.686 586.497 230.781 584.375 216.299 580.434C214.166 580.4 212.402 580.277 211.017 580.032C210.548 579.953 210.113 579.853 209.744 579.752C209.677 579.73 209.621 579.719 209.565 579.697L216.969 581.885Z" fill="#293D82"/>
</g>
<path d="M96.062 78.9451C94.7444 79.6933 93.6836 80.3856 92.9131 81.0332C95.0347 79.0345 97.9044 76.3992 100.059 74.4451L105.944 69.3645C127.194 52.7267 128.466 51.7329 144.49 41.929L147.047 40.4327C127.685 52.9277 117.959 59.2032 101.813 76.0754C99.5458 77.1027 97.6252 78.063 96.062 78.9451Z" fill="url(#paint0_linear_104_1841)"/>
<path d="M142.49 61.7045C138.56 62.9104 134.819 64.0829 131.29 65.233C137.499 56.4898 142.2 51.1858 149.938 44.2292C149.904 44.2404 149.871 44.2516 149.837 44.2627C137.309 53.2069 128.856 59.9179 117.545 69.8893C114.206 71.0841 111.146 72.2343 108.399 73.3174C108.21 73.3955 108.031 73.4625 107.852 73.5407C105.653 74.4228 103.654 75.2603 101.867 76.0643C125.997 55.9873 140.48 45.223 167.737 30.4501L172.918 27.5915C182.934 23.2925 188.562 20.9587 200.343 16.6709C194.681 19.2503 187.144 22.7677 181.617 25.6151C167.737 36.5245 163.829 40.0977 157.174 57.3496C152.026 58.8236 147.124 60.2863 142.49 61.7045Z" fill="url(#paint1_linear_104_1841)"/>
<path d="M225.033 13.9909C229.823 20.378 231.755 22.5108 245.299 34.9165C238.979 36.3458 232.592 37.8309 226.149 39.3607C222.152 40.3098 218.132 41.2813 214.101 42.2639C212.627 42.6212 211.175 42.9786 209.712 43.347C207.881 36.9823 207.021 33.0629 207.111 27.9376C207.055 27.9488 206.999 27.9599 206.943 27.9823C194.158 41.4376 193.399 42.2416 187.48 49.0195C181.741 50.527 176.191 52.0232 170.843 53.4972C170.485 53.5977 170.128 53.6982 169.76 53.7987C165.449 54.9935 161.273 56.1659 157.242 57.3384C176.973 39.9302 187.961 30.7962 204.944 19.3619C207.39 16.7043 211.265 13.7006 214.402 11.914C219.539 10.3284 220.466 10.0492 224.441 8.97727C223.157 9.49092 223.157 9.49092 222.476 10.0269C222.509 10.0157 222.543 10.0157 222.576 10.0046C224.407 9.1336 224.988 8.88795 226.585 8.44129C227.579 8.2068 228.907 7.89415 229.901 7.65966C230.526 7.51449 231.364 7.32467 231.989 7.19067C231.531 7.79365 231.118 8.32963 225.033 13.9909Z" fill="url(#paint2_linear_104_1841)"/>
<path d="M270.536 4.39919C291.941 7.32475 299.412 8.60886 328.656 18.3905C323.799 19.1833 318.718 20.0543 313.436 21.0034C308.959 21.8074 304.347 22.656 299.613 23.5605C290.702 18.9377 284.628 16.1573 275.572 12.5617C275.527 12.5729 275.471 12.5841 275.427 12.5952C277.961 16.8607 278.52 20.5344 278.866 27.6697C273.126 28.8421 267.275 30.0816 261.324 31.3769C260.922 31.4662 260.52 31.5555 260.118 31.6337C255.283 32.6833 250.381 33.7776 245.434 34.8942C251.665 23.2478 256.165 14.8396 253.541 8.00589C243.39 6.15229 241.28 5.77263 234.703 6.58777C235.675 6.38678 236.959 6.11879 237.93 5.91779C238.823 5.73913 240.007 5.50465 240.9 5.33715C243.759 4.81234 245.177 4.64484 248.259 4.37685C248.292 4.37685 248.315 4.36568 248.348 4.36568C246.64 4.46618 245.289 4.54435 242.642 5.01333C244.15 4.74534 246.171 4.38802 247.678 4.12003L249.677 3.79621C261.245 2.62375 261.245 2.62375 270.536 4.39919Z" fill="url(#paint3_linear_104_1841)"/>
<path d="M373.174 12.986C370.918 13.0865 368.406 13.2428 365.67 13.4773C351.333 9.11132 341.685 6.78874 327.459 4.26516C327.426 4.26516 327.404 4.27633 327.37 4.27633C337.565 7.02323 343.74 9.59147 352.751 14.8619C348.943 15.3421 344.879 15.8892 340.591 16.5257C340.301 16.5704 340.01 16.6151 339.72 16.6485C336.203 17.1734 332.54 17.7428 328.744 18.3682C321.083 10.1163 315.545 4.14233 292.777 1.2056C269.495 1.16094 268.591 1.14977 256.353 2.76888C258.418 2.50089 261.176 2.14357 263.253 1.89791C272.052 0.993444 272.387 0.959944 277.312 0.636122C281.622 0.43513 287.372 0.133642 291.683 0.0443115L301.788 0.167141C333.076 2.1324 343.706 3.1262 380.12 12.9302C378.165 12.852 375.843 12.8744 373.174 12.986Z" fill="url(#paint4_linear_104_1841)"/>
<path d="M51.7651 133.57C39.3594 158.918 35.8979 166.835 30.7391 198.011C26.8979 199.742 23.6373 201.361 21.0021 202.857C18.7688 204.119 16.9822 205.303 15.6758 206.386C19.6733 192.071 23.0232 182.747 28.9413 169.47C28.9301 169.481 28.919 169.492 28.9078 169.504C24.9326 177.722 22.6547 182.78 18.7912 192.796L24.285 179.14C37.3718 151.749 37.3718 151.749 45.6014 138.651C62.3396 114.141 62.6634 113.672 72.9364 101.825L87.0505 86.6945C78.4414 95.3484 72.7689 102.126 67.9227 108.167C67.9451 108.156 67.9674 108.134 67.9786 108.123C77.6151 96.8335 84.7056 89.4637 96.0506 78.9563C97.6027 78.0742 99.5344 77.1139 101.812 76.0866C101.824 76.0754 101.835 76.0754 101.857 76.0642C103.644 75.2603 105.642 74.4228 107.842 73.5406C66.8173 110.479 53.9314 130.031 51.7651 133.57Z" fill="url(#paint5_linear_104_1841)"/>
<path d="M115.211 109.909C115.222 131.505 115.591 138.316 124.356 166.321C115.669 168.834 107.383 171.29 99.5448 173.691C92.9008 175.723 86.5807 177.711 80.5956 179.654C80.1825 167.527 80.2941 158.616 82.0249 146.267C81.9579 146.289 81.8797 146.311 81.8127 146.334C70.9703 163.172 65.175 172.619 57.3363 187.537C51.6862 189.558 46.5162 191.49 41.8598 193.343C41.5472 193.466 41.2345 193.589 40.933 193.712C37.2147 195.197 33.8313 196.626 30.8164 197.977C46.0807 169.85 56.0187 153.201 81.0869 122.226C88.3227 102.528 91.3152 94.3657 108.388 73.3173C111.135 72.223 114.195 71.0841 117.534 69.8893C120.616 68.795 123.932 67.6449 127.483 66.4724C122.134 73.9761 118.874 79.8608 114.999 88.9613C115.088 88.9278 115.178 88.9054 115.267 88.8719C124.468 78.934 131.346 72.0779 142.49 61.6932C147.124 60.2751 152.015 58.8235 157.163 57.3384C157.196 57.3272 157.23 57.3161 157.263 57.3049C161.294 56.1436 165.47 54.96 169.781 53.7652C129.951 91.3955 115.233 109.842 115.211 109.909Z" fill="url(#paint6_linear_104_1841)"/>
<path d="M230.133 79.1573C244.102 95.9402 247.954 100.474 273.413 128.389C262.727 130.812 251.918 133.314 241.031 135.904C234.265 137.512 227.464 139.154 220.653 140.829C218.163 141.443 215.695 142.046 213.238 142.66C205.969 128.959 202.385 122.013 198.577 113.058C198.465 113.092 198.354 113.114 198.242 113.147C190.75 126.201 182.81 138.997 175.653 152.241C165.949 154.786 156.558 157.321 147.514 159.811C146.9 159.979 146.297 160.146 145.694 160.314C138.402 162.335 131.334 164.322 124.522 166.288C142.009 140.661 151.589 126.86 178.121 93.2938C172.013 75.9303 169.947 69.13 170.862 53.4861C176.211 52.0121 181.761 50.5158 187.5 49.0084C192.782 47.6238 198.231 46.2168 203.825 44.8099C205.042 50.5382 206.974 55.4513 210.112 62.5196C210.246 62.4861 210.391 62.4526 210.525 62.4191C215.74 54.7255 221.122 47.1548 226.158 39.3496C232.601 37.8198 238.988 36.3347 245.308 34.9054C245.353 34.8942 245.386 34.883 245.431 34.883C250.377 33.7664 255.279 32.6721 260.114 31.6225C253.314 44.8545 248.892 52.9836 230.133 79.1573Z" fill="url(#paint7_linear_104_1841)"/>
<path d="M350.563 53.7652C378.267 71.9439 386.809 77.9625 414.401 100.44C406.183 101.78 397.585 103.254 388.663 104.851C381.092 106.202 373.287 107.642 365.269 109.172C357.152 100.518 356.794 100.172 338.102 81.7032C338.001 81.7256 337.901 81.7479 337.8 81.7591C336.673 90.3571 336.304 91.8087 330.174 116.118C320.47 118.105 310.566 120.205 300.505 122.382C299.824 122.527 299.143 122.672 298.462 122.829C290.277 124.604 281.991 126.446 273.617 128.345C287.519 103.109 296.541 86.1809 304.692 63.7367C289.261 51.867 281.511 45.9042 261.312 31.3769C267.263 30.0927 273.114 28.8533 278.854 27.6697C284.135 26.5865 289.317 25.5481 294.364 24.5654C303.944 30.0369 309.36 33.1523 318.226 38.8136C318.349 38.7913 318.46 38.7689 318.583 38.7466C317.4 30.3496 316.25 26.3632 313.436 21.0034C318.717 20.0543 323.798 19.1833 328.655 18.3905C328.689 18.3905 328.722 18.3793 328.745 18.3793C332.552 17.754 336.215 17.1845 339.721 16.6597C346.41 25.4699 351.691 32.4377 350.563 53.7652Z" fill="url(#paint8_linear_104_1841)"/>
<path d="M433.293 42.5879C464.291 60.7889 473.57 66.975 501.43 91.2282C498.136 91.083 494.205 91.1053 489.694 91.2952C485.875 91.4627 481.632 91.7418 477.009 92.1326C465.675 81.748 457.625 75.1041 443.901 64.7976C443.834 64.8088 443.778 64.8088 443.711 64.8199C449.194 74.6128 451.673 81.882 455.157 94.4775C448.725 95.2815 441.847 96.2195 434.588 97.2914C434.097 97.3584 433.617 97.4366 433.126 97.5036C427.185 98.3857 420.988 99.3572 414.556 100.407C416.03 77.6388 415.773 64.8534 406.985 46.0271C382.643 33.2417 371.533 27.413 340.591 16.5258C344.89 15.8894 348.954 15.3311 352.751 14.8621C356.257 14.4266 359.54 14.0581 362.577 13.7566C375.932 18.0891 384.999 21.5172 397.248 26.8658C397.315 26.8658 397.382 26.8546 397.449 26.8546C388.997 20.6797 383.101 17.3075 373.174 12.9861C375.843 12.8745 378.165 12.8521 380.108 12.9415C381.649 13.0085 382.956 13.1425 384.016 13.3435C406.65 21.9526 406.651 21.9526 433.293 42.5879Z" fill="url(#paint9_linear_104_1841)"/>
<path d="M8.94222 274.489C12.7946 305.006 14.3802 314.453 28.4385 349.683C24.0055 351.681 20.2425 353.546 17.2053 355.277C14.6259 356.74 12.5713 358.102 11.0526 359.341C6.53031 343.429 4.35289 332.944 2.42113 317.803C2.40996 317.814 2.38763 317.836 2.37646 317.848C2.77844 330.722 2.77845 330.722 8.00426 364.243L7.76977 363.216C1.75115 331.437 1.75115 331.437 0.690355 315.357C-0.10245 283.924 -0.102453 283.924 1.39383 268.236C5.52534 237.651 5.52535 237.651 9.41121 222.588L13.0961 209.546C13.2859 208.932 13.7326 208.262 14.4249 207.536C10.9187 220.277 9.08739 229.5 7.42361 242.777C7.45711 242.754 7.47945 242.732 7.51294 242.71C11.3095 228.16 14.704 218.11 20.9906 202.88C23.6259 201.383 26.8864 199.764 30.7276 198.033C30.7499 198.022 30.7723 198.011 30.7946 198C33.8095 196.649 37.1929 195.22 40.9112 193.734C10.5055 251.754 8.95339 274.266 8.94222 274.489Z" fill="url(#paint10_linear_104_1841)"/>
<path d="M95.5026 242.207C109.572 271.374 114.262 279.972 136.46 313.113C126.433 316.005 116.875 318.842 107.83 321.611C100.159 323.956 92.8674 326.256 85.9666 328.489C78.6862 313.314 74.0745 302.985 69.072 288.659C68.9827 288.693 68.8934 288.715 68.8041 288.748C64.1031 307.463 61.3338 318.964 59.1229 337.59C52.6018 339.923 46.6279 342.157 41.268 344.289C40.9107 344.435 40.5534 344.569 40.1961 344.714C35.9082 346.433 32.0001 348.075 28.5273 349.638C31.9107 316.698 34.9479 298.162 49.8996 258.901C43.3785 232.258 41.1675 221.606 41.8599 193.333C46.5162 191.49 51.6862 189.547 57.3363 187.526C62.5398 185.661 68.1564 183.741 74.1639 181.742C74.3984 193.411 75.6936 202.422 77.8376 214.035C77.9716 213.99 78.1056 213.946 78.2396 213.901C85.1738 199.251 90.6341 189.257 99.5336 173.669C107.372 171.268 115.658 168.812 124.345 166.299C124.401 166.288 124.457 166.266 124.513 166.254C131.324 164.289 138.381 162.29 145.684 160.281C126.79 187.984 113.101 208.642 95.5026 242.207Z" fill="url(#paint11_linear_104_1841)"/>
<path d="M252.322 200.233C285.352 240.342 288.802 244.53 308.489 269.33C296.161 272.122 283.677 275.014 271.115 278.006C263.31 279.86 255.46 281.758 247.599 283.679C244.729 284.382 241.882 285.086 239.046 285.789C219.281 253.764 219.281 253.764 215.418 246.964C215.273 246.997 215.139 247.031 214.993 247.076C199.003 286.816 199.003 286.816 195.665 296.855C184.465 299.792 173.622 302.717 163.193 305.587C162.49 305.777 161.786 305.978 161.094 306.167C152.675 308.501 144.523 310.801 136.662 313.068C150.397 279.089 158.314 261.123 181.763 219.584C164.969 193.779 159.106 184.444 147.516 159.8C156.549 157.31 165.94 154.786 175.655 152.229C184.599 149.884 193.811 147.517 203.269 145.139C207.892 154.507 212.738 162.469 220.074 174.528C220.275 174.473 220.487 174.428 220.688 174.372C227.31 161.464 234.367 148.779 241.044 135.904C251.931 133.314 262.752 130.801 273.427 128.389C273.494 128.378 273.561 128.356 273.639 128.345C282.002 126.446 290.299 124.615 298.484 122.829C285.095 146.557 281.064 153.726 252.322 200.233Z" fill="url(#paint12_linear_104_1841)"/>
<path d="M416.644 165.584C444.08 197.274 450.701 205.95 471.18 237.071C461.7 238.623 451.773 240.32 441.478 242.163C432.746 243.726 423.735 245.39 414.489 247.154C407.454 234.558 406.505 233.04 390.593 207.614C390.459 207.636 390.336 207.659 390.202 207.692C385.39 223.727 379.327 239.337 373.978 255.182C362.789 257.483 351.355 259.895 339.742 262.407C338.961 262.574 338.179 262.742 337.386 262.921C327.939 264.975 318.37 267.097 308.722 269.285C333.724 220.645 341.272 205.962 353.767 179.419C335.99 159.644 327.884 150.622 300.504 122.393C310.565 120.216 320.469 118.128 330.173 116.129C339.106 114.298 347.86 112.545 356.402 110.881C364.833 120.294 373.498 129.495 381.761 139.053C381.939 139.02 382.118 138.986 382.297 138.953C385.613 124.113 387.277 116.464 388.65 104.851C397.572 103.254 406.17 101.78 414.389 100.44C414.444 100.429 414.489 100.418 414.545 100.418C420.977 99.3684 427.174 98.3969 433.114 97.5148C430.959 118.362 429.117 131.806 416.644 165.584Z" fill="url(#paint13_linear_104_1841)"/>
<path d="M529.536 150.331C551.478 181.597 557.05 190.831 571.633 226.44C567.825 226.273 563.292 226.295 558.088 226.518C553.678 226.708 548.787 227.032 543.449 227.49C537.341 212.717 532.674 203.103 523.451 186.387C523.372 186.398 523.294 186.398 523.216 186.409C522.825 200.49 521.407 210.562 518.247 230.192C510.821 231.119 502.893 232.202 494.508 233.442C493.949 233.52 493.38 233.609 492.81 233.687C485.954 234.703 478.797 235.82 471.382 237.037C482.091 206.955 488.88 186.443 492.788 155.356C473.158 132.979 464.191 122.773 434.601 97.2801C441.87 96.2082 448.737 95.2702 455.169 94.4662C461.098 93.7293 466.648 93.1039 471.784 92.6015C483.23 103.41 490.019 110.099 499.957 121.176C500.057 121.165 500.158 121.165 500.258 121.154C497.031 108.324 494.563 101.345 489.695 91.2838C494.206 91.094 498.137 91.0717 501.431 91.2169C504.032 91.3285 506.243 91.563 508.03 91.898C516.125 104.628 526.197 120.472 528.944 145.094C529.123 146.68 528.978 148.857 529.536 150.331Z" fill="url(#paint14_linear_104_1841)"/>
<path d="M43.2446 426.83C63.5561 453.797 70.5573 461.937 98.5512 486.827C94.7211 488.546 91.4717 490.165 88.8477 491.65C86.6256 492.912 84.8501 494.085 83.5437 495.157C71.8638 483.745 64.829 475.939 55.6504 464.226C55.6392 464.237 55.628 464.26 55.6057 464.271C64.0362 478.374 70.1665 486.838 80.8749 499.121C80.9084 499.567 81.0983 499.969 81.4556 500.349C76.7211 494.967 70.2112 487.943 65.7 482.371C58.4643 472.645 49.0846 459.458 42.53 449.263L35.4841 436.5L27.2322 420.32L19.2707 401.237C15.6193 390.227 10.9406 375.465 8.0039 364.243L7.95924 363.931C7.88107 362.982 8.45055 361.887 9.61184 360.659C13.4977 374.159 17.0374 383.728 23.1342 397.228C23.1677 397.206 23.2012 397.173 23.2347 397.15C19.7731 382.321 18.3104 372.149 17.2049 355.266C20.2421 353.546 24.0052 351.67 28.4382 349.671C28.4605 349.66 28.494 349.649 28.5163 349.638C32.0002 348.075 35.8972 346.433 40.1851 344.714C34.066 404.978 42.2843 424.776 43.2446 426.83Z" fill="url(#paint15_linear_104_1841)"/>
<path d="M130.108 394.437C152.753 419.025 160.67 427.355 191.801 455.271C183.148 457.772 174.896 460.217 167.09 462.607C160.469 464.628 154.171 466.616 148.208 468.547C136.45 457.135 128.143 448.727 117.981 436.992C117.903 437.014 117.814 437.047 117.736 437.07C119.712 454.746 121.119 463.344 125.038 476.397C119.411 478.407 114.252 480.339 109.618 482.181C109.305 482.304 109.004 482.427 108.691 482.55C104.984 484.035 101.623 485.453 98.6189 486.804C89.2616 461.658 84.8733 445.98 85.0742 411.052C64.7963 385.281 56.9799 374.818 41.2578 344.289C46.6288 342.156 52.5916 339.923 59.1127 337.589C65.1201 335.445 71.6077 333.212 78.5308 330.923C84.6499 343.731 90.7579 354.004 98.6301 366.432C98.7753 366.387 98.9204 366.343 99.0656 366.298C101.131 350.766 103.532 339.51 107.82 321.61C116.865 318.841 126.423 316.005 136.45 313.113C136.517 313.091 136.584 313.079 136.64 313.057C144.501 310.79 152.653 308.49 161.072 306.156C147.282 338.393 138.304 360.424 130.108 394.437Z" fill="url(#paint16_linear_104_1841)"/>
<path d="M287.463 352.318C311.984 381.517 319.388 390.328 340.302 417.473C329.661 419.885 318.885 422.386 308.043 424.965C301.298 426.573 294.531 428.204 287.742 429.867C285.263 430.47 282.807 431.084 280.361 431.687C256.209 399.808 256.209 399.808 254.891 397.988C254.757 398.021 254.623 398.055 254.5 398.088C245.11 430.068 245.11 430.068 242.921 441.235C233.251 443.769 223.894 446.293 214.894 448.772C214.291 448.939 213.677 449.107 213.074 449.274C205.804 451.284 198.77 453.272 191.981 455.226C197.296 427.031 201.271 410.617 216.982 371.725C191.277 342.313 183.237 332.687 163.205 305.587C173.634 302.717 184.466 299.791 195.677 296.855C205.994 294.141 216.624 291.417 227.545 288.67C233.765 298.932 238.522 305.777 251.206 324.045C251.43 323.989 251.642 323.933 251.865 323.877C257.984 308.457 264.751 293.315 271.138 278.006C283.7 275.014 296.184 272.121 308.512 269.33C308.59 269.308 308.668 269.296 308.746 269.274C318.405 267.085 327.963 264.964 337.41 262.909C334.395 268.403 334.395 268.403 287.463 352.318Z" fill="url(#paint17_linear_104_1841)"/>
<path d="M452.353 317.546C468.142 349.682 471.994 358.671 480.737 389.624C472.552 390.964 463.988 392.427 455.1 394.013C447.562 395.364 439.779 396.793 431.807 398.323C427.988 385.56 426.034 380.39 418.765 361.161C418.642 361.184 418.519 361.206 418.407 361.228C411.573 376.079 403.891 390.506 396.856 405.246C387.198 407.233 377.327 409.31 367.299 411.488C366.618 411.633 365.948 411.778 365.267 411.923C357.116 413.699 348.853 415.53 340.523 417.417C356.568 388.72 373.005 360.235 389.04 331.526C373.05 307.675 366.439 297.804 339.774 262.385C351.387 259.872 362.822 257.46 374.01 255.16C384.317 253.038 394.422 251.017 404.282 249.108C411.026 261.413 418.128 273.528 424.638 285.968C424.828 285.934 425.018 285.901 425.207 285.856C434.855 261.257 436.865 256.143 441.499 242.14C451.794 240.298 461.721 238.6 471.201 237.048C471.257 237.037 471.324 237.026 471.38 237.015C478.806 235.809 485.952 234.692 492.808 233.665C482.021 260.71 474.83 277.928 452.353 317.546Z" fill="url(#paint18_linear_104_1841)"/>
<path d="M565.637 302.248C570.382 334.72 571.466 344.691 567.446 380.457C564.163 380.311 560.243 380.334 555.755 380.523C551.947 380.68 547.726 380.97 543.114 381.361C544.086 367.425 544.064 358.068 543.014 341.308C542.936 341.319 542.869 341.319 542.791 341.33C536.761 355.087 531.624 364.801 521.34 383.695C514.931 384.499 508.086 385.437 500.85 386.497C500.37 386.564 499.879 386.643 499.387 386.71C493.469 387.592 487.294 388.552 480.885 389.602C499.03 361.53 512.117 340.638 528.04 307.485C518.549 280.742 514.216 268.526 494.485 233.441C502.871 232.202 510.81 231.119 518.225 230.192C525.059 229.332 531.468 228.618 537.408 228.037C543.606 243.424 547.011 252.268 551.377 266.829C551.489 266.817 551.59 266.806 551.69 266.806C555.487 249.778 556.972 240.365 558.066 226.518C563.27 226.295 567.803 226.273 571.611 226.44C574.614 226.574 577.16 226.831 579.226 227.222C578.958 245.523 578.645 266.27 567.803 296.185C567.167 298.016 565.827 300.327 565.637 302.248Z" fill="url(#paint19_linear_104_1841)"/>
<path d="M143.171 539.185C173.555 555.03 183.336 559.508 217.985 570.931C215.741 571.947 213.832 572.885 212.291 573.767C210.984 574.504 209.946 575.196 209.175 575.833C193.676 571.043 183.761 567.346 169.881 561.216C169.87 561.227 169.859 561.239 169.859 561.25C183.47 568.731 192.649 572.84 207.612 578.167C207.645 578.613 207.958 578.993 208.539 579.317C208.818 579.473 209.164 579.607 209.588 579.741C199.003 576.045 184.967 570.875 174.627 566.52C154.326 556.437 151.714 555.142 138.269 546.119C116.529 532.05 115.222 531.212 103.386 521.196L97.2892 515.814L81.4666 500.371C81.1092 500.003 80.9194 499.59 80.8859 499.143C80.8189 498.317 81.3102 497.379 82.3152 496.318C92.0187 505.664 99.6118 512.096 111.325 520.928C111.348 520.906 111.381 520.884 111.403 520.872C102.068 510.856 96.5969 503.766 88.8698 491.673C91.4939 490.188 94.7433 488.568 98.5733 486.849C98.5956 486.838 98.618 486.827 98.6403 486.815C101.644 485.464 105.016 484.046 108.712 482.561C122.503 519.823 136.226 534.038 143.171 539.185Z" fill="url(#paint20_linear_104_1841)"/>
<path d="M207.378 515.233C233.597 531.536 242.496 536.93 272.723 552.406C267.643 553.869 262.797 555.309 258.218 556.716C254.333 557.9 250.637 559.072 247.141 560.2C234.948 554.84 225.256 550.284 211.767 542.903C211.711 542.926 211.655 542.937 211.599 542.959C219.483 553.042 224.608 558.157 233.541 564.812C230.236 565.995 227.21 567.123 224.496 568.206C224.318 568.273 224.128 568.351 223.949 568.418C221.772 569.289 219.795 570.127 218.031 570.92C201.773 560.49 188.932 552.238 174.784 527.371C147.427 510.789 136.595 503.944 109.629 482.181C114.263 480.339 119.411 478.418 125.05 476.397C130.242 474.544 135.836 472.623 141.81 470.635C151.681 480.026 160.558 487.418 171.68 496.296C171.792 496.262 171.914 496.217 172.026 496.184C169.257 485.475 168.051 477.313 167.102 462.596C174.907 460.206 183.159 457.761 191.813 455.259C191.868 455.248 191.924 455.226 191.98 455.215C198.769 453.261 205.804 451.273 213.073 449.263C207.345 474.063 204.107 490.88 207.378 515.233Z" fill="url(#paint21_linear_104_1841)"/>
<path d="M323.707 484.102C343.84 507.25 348.24 512.855 359.886 530.219C353.633 531.637 347.313 533.1 340.948 534.618C336.995 535.556 333.02 536.516 329.034 537.499C327.582 537.856 326.13 538.214 324.701 538.571C317.745 531.257 310.632 524.077 303.742 516.707C303.653 516.73 303.563 516.752 303.474 516.774C302.168 528.298 301.542 534.752 302.715 544.176C297.042 545.673 291.548 547.147 286.267 548.598C285.909 548.699 285.552 548.799 285.206 548.889C280.94 550.072 276.809 551.234 272.823 552.384C268.021 535.969 266.357 525.294 271.885 498.417C245.465 476.14 237.046 468.893 214.881 448.772C223.881 446.293 233.238 443.769 242.908 441.235C251.819 438.901 260.998 436.534 270.411 434.166C273.213 437.795 273.213 437.795 293.614 462.417C293.793 462.372 293.96 462.328 294.139 462.283C297.79 450.838 300.794 443.267 308.041 424.954C318.883 422.375 329.659 419.874 340.3 417.462C340.367 417.451 340.434 417.428 340.501 417.417C348.831 415.53 357.094 413.699 365.246 411.923C347.704 440.632 336.158 459.804 323.707 484.102Z" fill="url(#paint22_linear_104_1841)"/>
<path d="M445.611 458.397C448.056 482.717 448.436 490.065 442.339 513.871C437.538 514.653 432.502 515.513 427.287 516.451C422.865 517.243 418.298 518.081 413.608 518.974C414.569 510.075 414.613 504.268 413.843 491.952C413.765 491.963 413.686 491.985 413.597 491.996C406.853 502.403 399.751 512.587 393.074 523.039C387.401 524.2 381.606 525.428 375.721 526.701C375.319 526.791 374.928 526.869 374.526 526.958C369.736 527.996 364.89 529.068 359.999 530.185C371.009 510.778 376.425 501.733 398.534 468.815C389.634 449.207 385.57 440.263 367.268 411.488C377.296 409.31 387.167 407.233 396.825 405.246C405.725 403.414 414.446 401.673 422.954 400.02C430.291 423.927 430.291 423.927 432.222 431.989C432.379 431.955 432.524 431.933 432.68 431.9C453.773 396.29 453.773 396.29 455.08 394.012C463.968 392.427 472.533 390.953 480.718 389.624C480.773 389.613 480.818 389.602 480.874 389.602C487.283 388.552 493.458 387.592 499.376 386.71C485.876 405.86 474.208 422.386 449.854 453.026C448.592 454.634 446.191 456.421 445.611 458.397Z" fill="url(#paint23_linear_104_1841)"/>
<path d="M529.347 447.086C518.248 473.885 514.462 481.992 493.224 508.489C491.292 508.4 489.003 508.422 486.357 508.534C484.124 508.634 481.645 508.791 478.942 509.025C486.647 498.462 491.114 491.07 497.333 478.619C497.289 478.619 497.233 478.631 497.188 478.631C486.792 490.154 478.585 498.372 466.179 510.387C462.416 510.856 458.396 511.404 454.153 512.029C453.863 512.073 453.584 512.118 453.293 512.152C449.821 512.665 446.192 513.235 442.429 513.849C462.148 494.118 477.893 478.061 500.918 451.106C503.988 427.712 505.25 418.031 500.862 386.486C508.098 385.415 514.954 384.488 521.352 383.684C527.259 382.947 532.786 382.321 537.911 381.83C536.918 395.687 536.058 404.006 533.568 416.68C533.657 416.669 533.735 416.669 533.825 416.658C543.807 401.483 548.933 393.041 555.755 380.513C560.244 380.323 564.163 380.3 567.446 380.446C570.037 380.557 572.237 380.792 574.023 381.127C565.09 397.642 554.974 416.356 533.579 442.005C532.306 443.535 530.374 445.389 529.347 447.086Z" fill="url(#paint24_linear_104_1841)"/>
<path d="M282.459 588.92C316.93 590.036 327.549 589.757 361.628 584.341C361.584 584.364 361.55 584.375 361.539 584.397C345.326 587.68 334.438 589.21 318.348 590.449C318.348 590.449 318.348 590.449 318.337 590.46C334.282 589.444 345.18 587.926 361.517 584.431C361.517 584.442 361.528 584.442 361.539 584.453H361.55L355.777 585.804C334.416 589.746 314.25 593.464 281.722 591.376C257.012 589.623 242.105 588.551 212.514 580.567L208.516 579.317C207.925 578.993 207.623 578.613 207.59 578.166C207.556 577.686 207.835 577.128 208.427 576.514C221.827 580.444 231.642 582.733 245.935 585.29C245.946 585.279 245.957 585.268 245.968 585.257C232.892 581.974 224.384 579.082 212.268 573.789C213.809 572.918 215.719 571.969 217.963 570.953C217.974 570.942 217.985 570.942 218.008 570.931C219.772 570.138 221.748 569.3 223.926 568.429C233.975 574.281 254.879 586.496 282.459 588.92Z" fill="url(#paint25_linear_104_1841)"/>
<path d="M307.519 579.574C333.481 584.185 341.04 585.09 362.223 584.141C362.122 584.174 362.033 584.197 361.943 584.23C349.862 585.782 341.465 586.218 328.646 585.95C328.635 585.95 328.623 585.961 328.601 585.961C340.147 586.687 348.522 586.262 361.787 584.286C361.72 584.308 361.664 584.331 361.62 584.353C333.961 588.451 318.697 589.333 295.761 584.163C267.901 579.987 256.634 578.044 224.476 568.206C227.2 567.123 230.215 565.996 233.52 564.812C236.569 563.729 239.852 562.601 243.358 561.429C255.931 566.643 265.433 569.859 275.829 573.086C275.885 573.064 275.941 573.053 275.997 573.03C268.493 568.106 264.172 564.131 258.198 556.716C262.776 555.309 267.622 553.88 272.703 552.406C272.736 552.395 272.77 552.384 272.803 552.373C276.79 551.223 280.921 550.061 285.187 548.878C286.895 555.131 292.043 574.147 307.519 579.574Z" fill="url(#paint26_linear_104_1841)"/>
<path d="M352.908 567.424C360.903 576.368 363.203 579.16 363.159 583.895C363.047 583.917 362.935 583.95 362.824 583.973C362.812 583.973 362.79 583.984 362.779 583.984C359.842 583.247 356.883 582.242 351.278 579.484C351.255 579.484 351.233 579.495 351.211 579.495C354.27 582.61 357.017 583.716 362.544 584.04C362.433 584.073 362.321 584.096 362.221 584.129C349.859 584.252 340.1 584.341 333.099 573.007C316.07 564.856 309.024 561.383 286.268 548.576C291.549 547.124 297.043 545.639 302.716 544.154C307.941 542.78 313.335 541.396 318.862 540C319.376 540.502 319.376 540.502 336.214 556.292C336.304 556.269 336.393 556.247 336.471 556.225C336.996 549.223 338.336 543.674 340.949 534.595C347.314 533.077 353.645 531.614 359.887 530.196C359.931 530.185 359.965 530.174 360.01 530.174C364.9 529.068 369.747 527.996 374.537 526.947C363.561 543.953 356.626 555.141 352.908 567.424Z" fill="url(#paint27_linear_104_1841)"/>
<path d="M400.477 557.397C389.646 570.507 385.57 574.683 364.053 583.727C363.952 583.739 363.852 583.761 363.74 583.783C370.16 580.768 373.845 578.144 378.356 573.41C378.334 573.41 378.312 573.421 378.301 573.421C371.288 578.971 367.324 581.595 363.517 583.828C363.405 583.85 363.282 583.873 363.159 583.906C365.772 579.663 368.061 576.648 381.796 561.652C382.588 550.195 382.912 545.45 375.732 526.713C381.617 525.44 387.412 524.211 393.085 523.05C398.311 521.978 403.425 520.951 408.427 519.979C407.646 528.957 406.987 533.904 404.854 541.251C404.932 541.24 404.999 541.218 405.077 541.206C419.85 524.926 420.732 523.943 427.276 516.462C432.491 515.524 437.527 514.664 442.328 513.883C442.362 513.883 442.395 513.871 442.417 513.871C446.18 513.257 449.798 512.688 453.282 512.174C439.548 524.602 423.982 538.683 404.184 554.461C403.067 555.332 401.493 556.404 400.477 557.397Z" fill="url(#paint28_linear_104_1841)"/>
<path d="M433.149 552.987C408.438 568.218 399.75 573.075 364.599 583.672C364.565 583.672 364.51 583.672 364.443 583.683C378.188 579.529 386.876 576.112 398.89 570.138C398.879 570.138 398.868 570.138 398.857 570.138C385.904 576.123 376.859 579.663 364.309 583.694C364.23 583.705 364.141 583.716 364.052 583.727C383.515 576.079 395.742 570.373 421.145 554.84C436.632 540.503 443.053 534.574 454.141 512.029C458.396 511.403 462.415 510.856 466.167 510.387C469.629 509.952 472.878 509.595 475.882 509.293C469.283 518.282 464.235 524.524 455.012 533.658C455.057 533.658 455.101 533.647 455.135 533.647C467.574 524.345 475.446 518.003 486.356 508.523C488.991 508.411 491.291 508.4 493.223 508.478C494.742 508.545 496.037 508.679 497.087 508.88C468.992 531.369 460.003 536.985 433.149 552.987Z" fill="url(#paint29_linear_104_1841)"/>
<path d="M510.652 92.5793C506.432 87.9899 500.837 81.815 496.304 77.5383C501.273 82.4292 508.084 88.7716 512.863 93.8522L510.652 92.5793Z" fill="url(#paint30_linear_104_1841)"/>
<path d="M585.277 230.136C584.875 229.299 583.881 228.584 582.273 228.015C578.622 205.37 578.544 204.934 573.742 191.669C577.472 202.947 582.217 218.066 585.199 229.567L585.433 230.594C585.4 230.438 585.344 230.282 585.277 230.136Z" fill="url(#paint31_linear_104_1841)"/>
<path d="M585.28 230.136C585.347 230.281 585.403 230.438 585.437 230.594L588.373 245.11L585.28 230.136Z" fill="url(#paint32_linear_104_1841)"/>
<path d="M579.217 383.639C578.87 382.913 578.011 382.299 576.626 381.808C584.018 363.193 588.094 352.932 590.55 333.815L588.63 346.6C586.151 358.224 582.544 373.679 579.295 385.113C579.462 384.577 579.44 384.086 579.217 383.639Z" fill="url(#paint33_linear_104_1841)"/>
<path d="M579.215 383.639C579.438 384.086 579.449 384.577 579.282 385.113L577.261 391.288C566.385 419.717 566.385 419.717 559.25 433.407L558.334 435.138C571.008 408.897 571.767 407.323 579.215 383.639Z" fill="url(#paint34_linear_104_1841)"/>
<path d="M506.735 505.262C504.658 507.328 501.833 510.03 499.7 512.051C500.214 511.404 500.37 510.845 500.136 510.354C499.935 509.93 499.421 509.572 498.617 509.282C514.518 494.9 529.548 481.311 544.622 458.397L535.008 472.244C526.968 482.338 515.813 495.447 507.059 504.927C506.97 505.028 506.836 505.162 506.735 505.262Z" fill="url(#paint35_linear_104_1841)"/>
<path d="M364.633 583.727C380.411 580.188 390.784 577.095 405.724 571.467L405.736 571.456C391.253 576.782 380.891 579.875 364.677 583.705C364.688 583.694 364.688 583.683 364.666 583.672C394.681 575.397 411.654 569.68 439.145 555.756C464.079 540.804 474.397 534.618 500.158 510.354C500.392 510.834 500.236 511.403 499.722 512.051C499.555 512.263 499.354 512.475 499.108 512.699C490.387 520.303 478.517 530.174 469.316 537.198C451.361 549.268 447.631 551.781 427.889 562.065L425.589 563.181C406.126 571.735 390.762 578.479 364.51 583.806C364.554 583.772 364.599 583.75 364.633 583.727Z" fill="url(#paint36_linear_104_1841)"/>
<path d="M364.141 583.917C375.028 582.231 382.387 580.333 393.296 576.358C393.307 576.358 393.329 576.346 393.341 576.346C383.95 579.819 376.625 581.717 364.297 583.861C364.375 583.839 364.442 583.817 364.487 583.794C383.269 579.618 392.693 577.53 408.091 570.708C398.522 574.404 393.854 576.067 384.318 579.183C378.266 581.003 370.07 583.024 363.828 583.995C363.951 583.973 364.051 583.94 364.141 583.917Z" fill="url(#paint37_linear_104_1841)"/>
<path d="M367.873 583.995C366.499 584.275 365.115 584.196 363.507 584.096C363.63 584.062 363.741 584.04 363.842 584.007C367.527 583.526 372.429 582.734 376.002 581.751C371.457 583.057 371.078 583.158 368.107 583.928C368.04 583.951 367.951 583.973 367.873 583.995Z" fill="url(#paint38_linear_104_1841)"/>
<path d="M363.261 584.152C363.986 584.464 364.679 584.766 366.13 584.42C365.204 584.643 363.975 584.933 363.06 585.146C362.3 585.324 361.273 585.548 360.514 585.726C361.239 585.291 362.244 584.788 362.892 584.241C363.015 584.208 363.138 584.185 363.261 584.152Z" fill="url(#paint39_linear_104_1841)"/>
<path d="M353.221 587.234C357.956 586.195 359.977 585.369 362.545 584.319C362.657 584.297 362.768 584.275 362.891 584.252C361.406 584.956 359.419 585.927 357.822 586.318C356.995 586.485 355.89 586.72 355.064 586.887C354.081 587.077 352.775 587.334 351.792 587.524C352.216 587.423 352.786 587.323 353.221 587.234Z" fill="url(#paint40_linear_104_1841)"/>
<path d="M362.333 584.35C357.766 585.98 354.896 586.884 349.949 587.856C348.565 588.102 346.711 588.437 345.327 588.671L342.178 589.185C348.174 587.889 356.158 586.136 362.043 584.394C362.121 584.383 362.221 584.361 362.333 584.35Z" fill="url(#paint41_linear_104_1841)"/>
<path d="M361.572 584.431C361.594 584.431 361.639 584.431 361.684 584.431C347.056 588.194 337.464 589.969 323.651 591.477C323.662 591.477 323.674 591.477 323.685 591.477C338.58 589.891 348.195 588.116 361.806 584.431C361.873 584.42 361.951 584.409 362.041 584.397C344.789 588.942 344.789 588.942 334.505 590.282C333.064 590.461 331.155 590.706 329.726 590.863C321.105 591.745 320.592 591.801 315.667 592.124C300.548 592.817 299.644 592.861 290.409 592.705C314.629 592.236 326.789 592.002 355.799 585.771L361.572 584.431C361.561 584.431 361.561 584.431 361.572 584.431Z" fill="url(#paint42_linear_104_1841)"/>
<path d="M212.536 580.545C235.549 586.698 236.443 586.943 252.511 589.489C241.791 587.502 227.554 584.531 216.98 581.896L209.588 579.73C209.175 579.607 208.828 579.462 208.538 579.306L212.536 580.545Z" fill="url(#paint43_linear_104_1841)"/>
<defs>
<linearGradient id="paint0_linear_104_1841" x1="92.9151" y1="60.7304" x2="147.052" y2="60.7304" gradientUnits="userSpaceOnUse">
<stop offset="0.0274" stop-color="#3C55A2"/>
<stop offset="1" stop-color="#293D82"/>
</linearGradient>
<linearGradient id="paint1_linear_104_1841" x1="101.862" y1="46.3667" x2="200.337" y2="46.3667" gradientUnits="userSpaceOnUse">
<stop offset="0.0274" stop-color="#3C55A2"/>
<stop offset="1" stop-color="#293D82"/>
</linearGradient>
<linearGradient id="paint2_linear_104_1841" x1="157.265" y1="32.2414" x2="245.301" y2="32.2414" gradientUnits="userSpaceOnUse">
<stop offset="0.0274" stop-color="#3C55A2"/>
<stop offset="1" stop-color="#293D82"/>
</linearGradient>
<linearGradient id="paint3_linear_104_1841" x1="234.689" y1="18.9285" x2="328.655" y2="18.9285" gradientUnits="userSpaceOnUse">
<stop offset="0.0274" stop-color="#3C55A2"/>
<stop offset="1" stop-color="#293D82"/>
</linearGradient>
<linearGradient id="paint4_linear_104_1841" x1="256.357" y1="9.21204" x2="380.114" y2="9.21204" gradientUnits="userSpaceOnUse">
<stop offset="0.0274" stop-color="#3C55A2"/>
<stop offset="1" stop-color="#293D82"/>
</linearGradient>
<linearGradient id="paint5_linear_104_1841" x1="15.6809" y1="139.956" x2="107.843" y2="139.956" gradientUnits="userSpaceOnUse">
<stop offset="0.0274" stop-color="#3C55A2"/>
<stop offset="1" stop-color="#293D82"/>
</linearGradient>
<linearGradient id="paint6_linear_104_1841" x1="30.8137" y1="125.88" x2="169.78" y2="125.88" gradientUnits="userSpaceOnUse">
<stop offset="0.0274" stop-color="#3C55A2"/>
<stop offset="1" stop-color="#293D82"/>
</linearGradient>
<linearGradient id="paint7_linear_104_1841" x1="124.517" y1="98.9505" x2="273.415" y2="98.9505" gradientUnits="userSpaceOnUse">
<stop offset="0.0274" stop-color="#3C55A2"/>
<stop offset="1" stop-color="#293D82"/>
</linearGradient>
<linearGradient id="paint8_linear_104_1841" x1="261.317" y1="72.4952" x2="414.398" y2="72.4952" gradientUnits="userSpaceOnUse">
<stop offset="0.0274" stop-color="#3C55A2"/>
<stop offset="1" stop-color="#293D82"/>
</linearGradient>
<linearGradient id="paint9_linear_104_1841" x1="340.595" y1="56.646" x2="501.433" y2="56.646" gradientUnits="userSpaceOnUse">
<stop offset="0.0274" stop-color="#3C55A2"/>
<stop offset="1" stop-color="#293D82"/>
</linearGradient>
<linearGradient id="paint10_linear_104_1841" x1="0.169336" y1="278.971" x2="40.9294" y2="278.971" gradientUnits="userSpaceOnUse">
<stop offset="0.0274" stop-color="#3C55A2"/>
<stop offset="1" stop-color="#293D82"/>
</linearGradient>
<linearGradient id="paint11_linear_104_1841" x1="28.5228" y1="254.97" x2="145.687" y2="254.97" gradientUnits="userSpaceOnUse">
<stop offset="0.0274" stop-color="#3C55A2"/>
<stop offset="1" stop-color="#293D82"/>
</linearGradient>
<linearGradient id="paint12_linear_104_1841" x1="136.66" y1="217.939" x2="308.493" y2="217.939" gradientUnits="userSpaceOnUse">
<stop offset="0.0274" stop-color="#3C55A2"/>
<stop offset="1" stop-color="#293D82"/>
</linearGradient>
<linearGradient id="paint13_linear_104_1841" x1="300.505" y1="183.388" x2="471.187" y2="183.388" gradientUnits="userSpaceOnUse">
<stop offset="0.0274" stop-color="#3C55A2"/>
<stop offset="1" stop-color="#293D82"/>
</linearGradient>
<linearGradient id="paint14_linear_104_1841" x1="434.594" y1="164.084" x2="571.631" y2="164.084" gradientUnits="userSpaceOnUse">
<stop offset="0.0274" stop-color="#3C55A2"/>
<stop offset="1" stop-color="#293D82"/>
</linearGradient>
<linearGradient id="paint15_linear_104_1841" x1="7.95376" y1="422.531" x2="98.5536" y2="422.531" gradientUnits="userSpaceOnUse">
<stop offset="0.0274" stop-color="#3C55A2"/>
<stop offset="1" stop-color="#293D82"/>
</linearGradient>
<linearGradient id="paint16_linear_104_1841" x1="41.2678" y1="396.478" x2="191.801" y2="396.478" gradientUnits="userSpaceOnUse">
<stop offset="0.0274" stop-color="#3C55A2"/>
<stop offset="1" stop-color="#293D82"/>
</linearGradient>
<linearGradient id="paint17_linear_104_1841" x1="163.195" y1="359.064" x2="340.298" y2="359.064" gradientUnits="userSpaceOnUse">
<stop offset="0.0274" stop-color="#3C55A2"/>
<stop offset="1" stop-color="#293D82"/>
</linearGradient>
<linearGradient id="paint18_linear_104_1841" x1="339.752" y1="325.557" x2="492.802" y2="325.557" gradientUnits="userSpaceOnUse">
<stop offset="0.0274" stop-color="#3C55A2"/>
<stop offset="1" stop-color="#293D82"/>
</linearGradient>
<linearGradient id="paint19_linear_104_1841" x1="480.897" y1="307.967" x2="579.25" y2="307.967" gradientUnits="userSpaceOnUse">
<stop offset="0.0274" stop-color="#3C55A2"/>
<stop offset="1" stop-color="#293D82"/>
</linearGradient>
<linearGradient id="paint20_linear_104_1841" x1="80.8672" y1="531.131" x2="217.983" y2="531.131" gradientUnits="userSpaceOnUse">
<stop offset="0.0274" stop-color="#3C55A2"/>
<stop offset="1" stop-color="#293D82"/>
</linearGradient>
<linearGradient id="paint21_linear_104_1841" x1="109.625" y1="510.088" x2="272.721" y2="510.088" gradientUnits="userSpaceOnUse">
<stop offset="0.0274" stop-color="#3C55A2"/>
<stop offset="1" stop-color="#293D82"/>
</linearGradient>
<linearGradient id="paint22_linear_104_1841" x1="214.873" y1="482.153" x2="365.25" y2="482.153" gradientUnits="userSpaceOnUse">
<stop offset="0.0274" stop-color="#3C55A2"/>
<stop offset="1" stop-color="#293D82"/>
</linearGradient>
<linearGradient id="paint23_linear_104_1841" x1="360.012" y1="458.449" x2="499.398" y2="458.449" gradientUnits="userSpaceOnUse">
<stop offset="0.0274" stop-color="#3C55A2"/>
<stop offset="1" stop-color="#293D82"/>
</linearGradient>
<linearGradient id="paint24_linear_104_1841" x1="442.425" y1="447.107" x2="574.019" y2="447.107" gradientUnits="userSpaceOnUse">
<stop offset="0.0274" stop-color="#3C55A2"/>
<stop offset="1" stop-color="#293D82"/>
</linearGradient>
<linearGradient id="paint25_linear_104_1841" x1="207.601" y1="580.185" x2="361.632" y2="580.185" gradientUnits="userSpaceOnUse">
<stop offset="0.0274" stop-color="#3C55A2"/>
<stop offset="1" stop-color="#293D82"/>
</linearGradient>
<linearGradient id="paint26_linear_104_1841" x1="224.484" y1="568.302" x2="362.224" y2="568.302" gradientUnits="userSpaceOnUse">
<stop offset="0.0274" stop-color="#3C55A2"/>
<stop offset="1" stop-color="#293D82"/>
</linearGradient>
<linearGradient id="paint27_linear_104_1841" x1="286.265" y1="555.562" x2="374.538" y2="555.562" gradientUnits="userSpaceOnUse">
<stop offset="0.0274" stop-color="#3C55A2"/>
<stop offset="1" stop-color="#293D82"/>
</linearGradient>
<linearGradient id="paint28_linear_104_1841" x1="363.163" y1="548.029" x2="453.285" y2="548.029" gradientUnits="userSpaceOnUse">
<stop offset="0.0274" stop-color="#3C55A2"/>
<stop offset="1" stop-color="#293D82"/>
</linearGradient>
<linearGradient id="paint29_linear_104_1841" x1="364.049" y1="546.076" x2="497.088" y2="546.076" gradientUnits="userSpaceOnUse">
<stop offset="0.0274" stop-color="#3C55A2"/>
<stop offset="1" stop-color="#293D82"/>
</linearGradient>
<linearGradient id="paint30_linear_104_1841" x1="496.303" y1="85.7001" x2="512.859" y2="85.7001" gradientUnits="userSpaceOnUse">
<stop offset="0.0274" stop-color="#3C55A2"/>
<stop offset="1" stop-color="#293D82"/>
</linearGradient>
<linearGradient id="paint31_linear_104_1841" x1="573.741" y1="211.125" x2="585.433" y2="211.125" gradientUnits="userSpaceOnUse">
<stop offset="0.0274" stop-color="#3C55A2"/>
<stop offset="1" stop-color="#293D82"/>
</linearGradient>
<linearGradient id="paint32_linear_104_1841" x1="585.277" y1="237.618" x2="588.371" y2="237.618" gradientUnits="userSpaceOnUse">
<stop offset="0.0274" stop-color="#3C55A2"/>
<stop offset="1" stop-color="#293D82"/>
</linearGradient>
<linearGradient id="paint33_linear_104_1841" x1="576.627" y1="359.465" x2="590.547" y2="359.465" gradientUnits="userSpaceOnUse">
<stop offset="0.0274" stop-color="#3C55A2"/>
<stop offset="1" stop-color="#293D82"/>
</linearGradient>
<linearGradient id="paint34_linear_104_1841" x1="558.347" y1="409.389" x2="579.403" y2="409.389" gradientUnits="userSpaceOnUse">
<stop offset="0.0274" stop-color="#3C55A2"/>
<stop offset="1" stop-color="#293D82"/>
</linearGradient>
<linearGradient id="paint35_linear_104_1841" x1="498.619" y1="485.222" x2="544.625" y2="485.222" gradientUnits="userSpaceOnUse">
<stop offset="0.0274" stop-color="#3C55A2"/>
<stop offset="1" stop-color="#293D82"/>
</linearGradient>
<linearGradient id="paint36_linear_104_1841" x1="364.502" y1="547.073" x2="500.249" y2="547.073" gradientUnits="userSpaceOnUse">
<stop offset="0.0274" stop-color="#3C55A2"/>
<stop offset="1" stop-color="#293D82"/>
</linearGradient>
<linearGradient id="paint37_linear_104_1841" x1="363.848" y1="577.353" x2="408.108" y2="577.353" gradientUnits="userSpaceOnUse">
<stop offset="0.0274" stop-color="#3C55A2"/>
<stop offset="1" stop-color="#293D82"/>
</linearGradient>
<linearGradient id="paint38_linear_104_1841" x1="363.51" y1="582.966" x2="376.012" y2="582.966" gradientUnits="userSpaceOnUse">
<stop offset="0.0274" stop-color="#3C55A2"/>
<stop offset="1" stop-color="#293D82"/>
</linearGradient>
<linearGradient id="paint39_linear_104_1841" x1="360.512" y1="584.935" x2="366.136" y2="584.935" gradientUnits="userSpaceOnUse">
<stop offset="0.0274" stop-color="#3C55A2"/>
<stop offset="1" stop-color="#293D82"/>
</linearGradient>
<linearGradient id="paint40_linear_104_1841" x1="351.793" y1="585.875" x2="362.887" y2="585.875" gradientUnits="userSpaceOnUse">
<stop offset="0.0274" stop-color="#3C55A2"/>
<stop offset="1" stop-color="#293D82"/>
</linearGradient>
<linearGradient id="paint41_linear_104_1841" x1="342.174" y1="586.764" x2="362.329" y2="586.764" gradientUnits="userSpaceOnUse">
<stop offset="0.0274" stop-color="#3C55A2"/>
<stop offset="1" stop-color="#293D82"/>
</linearGradient>
<linearGradient id="paint42_linear_104_1841" x1="290.394" y1="588.594" x2="362.035" y2="588.594" gradientUnits="userSpaceOnUse">
<stop offset="0.0274" stop-color="#3C55A2"/>
<stop offset="1" stop-color="#293D82"/>
</linearGradient>
<linearGradient id="paint43_linear_104_1841" x1="208.532" y1="584.391" x2="252.5" y2="584.391" gradientUnits="userSpaceOnUse">
<stop offset="0.0274" stop-color="#3C55A2"/>
<stop offset="1" stop-color="#293D82"/>
</linearGradient>
</defs>
</svg>
