<svg width="115" height="44" viewBox="0 0 115 44" fill="none" xmlns="http://www.w3.org/2000/svg">
<path d="M104.346 16.6321C103.872 15.2384 103.117 13.1819 102.763 12.0723H102.716C101.983 13.1819 100.424 15.2384 99.5041 16.6321H92.1787L99.5503 8.1971L95.6047 0H103.093C103.401 0.968792 104.297 3.26087 104.627 4.15925H104.698C105.501 3.02535 106.895 1.20674 107.769 0H115L107.607 8.01014L111.812 16.6346H104.346V16.6321Z" fill="#3ABDDE"/>
<path d="M13.0872 6.55331H0V0H34.0777V6.55331H21.0148V42.7725H13.0872V6.55331Z" fill="white"/>
<path d="M89.0722 0V42.7725H81.1641V0H89.0722Z" fill="white"/>
<path d="M59.5595 6.40762C60.5817 6.40762 61.6064 6.52174 62.5897 6.80582C65.9307 7.77704 67.6668 10.0303 68.5652 12.434C68.6526 12.672 68.7327 12.9099 68.8056 13.1503H76.4709V11.8902C75.9999 9.89431 75.1185 8.03685 73.8608 6.40762C72.5205 4.674 70.7431 3.2026 68.5652 2.1124C65.9089 0.772119 62.648 0 58.8311 0H38.5156V22.1875C38.5156 22.6658 38.5253 23.1417 38.5496 23.6128C38.8677 30.6663 41.5798 36.6393 46.4262 40.126C49.3423 42.2286 53.0305 43.4305 57.435 43.4305C62.6577 43.4305 66.2391 41.9616 68.5652 39.7642V42.7725H76.4709V19.4632H68.5652H58.6345V26.0166H68.5652H68.7764V26.4196C68.7764 27.3326 68.7181 28.2771 68.5652 29.2022C67.8999 33.2643 65.4767 37.0496 58.6709 37.0496C50.5345 37.0496 47.1983 30.6056 46.7613 23.4841V6.40762H59.5595Z" fill="white"/>
</svg>
