<svg width="115" height="44" viewBox="0 0 115 44" fill="none" xmlns="http://www.w3.org/2000/svg">
<path d="M104.346 16.8557C103.872 15.462 103.117 13.4054 102.763 12.2958H102.716C101.983 13.4054 100.424 15.462 99.5041 16.8557H92.1787L99.5503 8.42061L95.6047 0.223511H103.093C103.401 1.1923 104.297 3.48438 104.627 4.38276H104.698C105.501 3.24886 106.895 1.43025 107.769 0.223511H115L107.607 8.23365L111.812 16.8581H104.346V16.8557Z" fill="#3ABDDE"/>
<path d="M13.0872 6.77682H0V0.223511H34.0777V6.77682H21.0148V42.996H13.0872V6.77682Z" fill="#265097"/>
<path d="M89.0722 0.223511V42.996H81.1641V0.223511H89.0722Z" fill="#265097"/>
<path d="M59.5595 6.63113C60.5817 6.63113 61.6064 6.74525 62.5897 7.02933C65.9307 8.00055 67.6668 10.2538 68.5652 12.6576C68.6526 12.8955 68.7327 13.1334 68.8056 13.3738H76.4709V12.1137C75.9999 10.1178 75.1185 8.26036 73.8608 6.63113C72.5205 4.89751 70.7431 3.42611 68.5652 2.33591C65.9089 0.99563 62.648 0.223511 58.8311 0.223511H38.5156V22.411C38.5156 22.8894 38.5253 23.3653 38.5496 23.8363C38.8677 30.8898 41.5798 36.8628 46.4262 40.3495C49.3423 42.4522 53.0305 43.654 57.435 43.654C62.6577 43.654 66.2391 42.1851 68.5652 39.9877V42.996H76.4709V19.6868H68.5652H58.6345V26.2401H68.5652H68.7764V26.6431C68.7764 27.5561 68.7181 28.5006 68.5652 29.4257C67.8999 33.4878 65.4767 37.2731 58.6709 37.2731C50.5345 37.2731 47.1983 30.8291 46.7613 23.7076V6.63113H59.5595V6.63113Z" fill="#265097"/>
</svg>
