<svg width="490" height="730" viewBox="0 0 490 730" fill="none" xmlns="http://www.w3.org/2000/svg">
<g opacity="0.02">
<g opacity="0.2">
<path opacity="0.2" d="M202.838 42.5052L189.217 49.7452L185.927 51.5861C157.982 68.8275 155.051 70.6272 136.33 85.3407L128.758 91.5916C136.861 84.8736 143.844 79.0761 159.433 68.4153C159.433 68.4291 159.419 68.4291 159.419 68.4428C142.881 80.0653 132.307 88.6928 117.522 102.582C117.566 103.132 117.968 103.612 118.729 104.011C119.146 104.231 119.678 104.423 120.324 104.602C120.813 104.739 121.373 104.849 121.991 104.945L127.551 100.164C145.539 82.1535 161.071 66.6019 197.809 46.2969C226.932 32.6137 244.518 24.3571 285.94 13.133L291.184 11.8142C291.141 11.8004 291.141 11.7592 291.184 11.7317C272.693 15.9631 260.021 19.6174 242.751 25.6759L242.765 25.6622C260.696 19.2328 272.952 15.6883 291.299 11.6493C291.386 11.6081 291.515 11.5531 291.673 11.4844C270.107 16.4302 240.596 23.1756 202.838 42.5052Z" fill="#293D82"/>
<path opacity="0.2" d="M257.78 20.5104C244.576 25.1539 236.344 28.19 222.493 33.9463C246.358 23.3954 258.34 18.0925 291.688 11.4844C291.86 11.4157 292.061 11.347 292.291 11.2783C278.355 13.655 269.159 15.9493 257.162 20.057C257.191 20.0433 257.22 20.0433 257.248 20.0295C271.185 15.3448 280.15 13.0918 292.765 11.1272C293.024 11.0448 293.311 10.9761 293.627 10.8937C277.191 13.5726 277.191 13.5726 257.78 20.5104Z" fill="#293D82"/>
<g opacity="0.2">
<path opacity="0.2" d="M275.897 14.6307C281.127 13.1744 288.239 11.5808 293.642 10.8801C293.958 10.7977 294.302 10.7015 294.676 10.6191C292.377 10.4955 290.84 10.5092 288.814 11.0175C283.857 12.3226 282.521 12.6661 275.897 14.6307Z" fill="#293D82"/>
<path opacity="0.2" d="M298.512 8.81934C297.707 8.99793 296.629 9.21774 295.825 9.39633C294.546 9.68483 292.836 10.0695 291.558 10.358C293.655 9.89091 294.46 10.1107 295.365 10.4679C295.724 10.3855 296.083 10.303 296.428 10.2344C297.046 9.79474 297.808 9.10784 298.512 8.81934Z" fill="#293D82"/>
</g>
<g opacity="0.2">
<path opacity="0.2" d="M306.128 7.26657C304.878 7.51386 303.225 7.84357 301.975 8.09085C300.323 8.72281 297.938 9.24486 296.473 10.2203C296.832 10.1516 297.177 10.0829 297.507 10.0142C301.401 8.57169 304.389 7.6375 309.935 6.53845C308.786 6.772 307.263 7.04676 306.128 7.26657Z" fill="#293D82"/>
<path opacity="0.2" d="M321.228 4.65662L318.656 5.05502C316.717 5.371 314.116 5.81062 312.177 6.15408C307.22 7.11575 304.059 7.96752 298.125 9.91834C298.427 9.86339 298.7 9.82217 298.944 9.79469C305.582 8.09116 314.475 5.89305 321.228 4.65662Z" fill="#293D82"/>
</g>
<path opacity="0.2" d="M375.305 0.0673828C369.759 0.259717 362.359 0.479531 356.814 0.795508C344.903 1.68849 344.903 1.68848 338.725 2.34792C336.067 2.66389 332.518 3.07604 329.845 3.41949C320.521 5.08181 308.107 7.40356 298.955 9.78026C299.214 9.73904 299.444 9.71157 299.645 9.69783C315.392 5.74124 326.9 3.68052 343.61 1.86708C343.624 1.86708 343.653 1.86708 343.667 1.86708C328.121 3.61183 317.087 5.59012 299.975 9.68409C300.119 9.68409 300.234 9.68409 300.32 9.69783C330.205 3.708 342.575 1.23513 375.305 0.0673828Z" fill="#293D82"/>
<path opacity="0.2" d="M93.8596 125.278C69.9231 153.716 69.4634 154.265 58.6876 170.586C39.1764 202.926 39.1764 202.926 31.2598 220.4L24.1909 237.202C20.5559 246.585 18.9467 251.71 16.7197 258.799C16.7916 259.733 17.4668 260.543 18.7599 261.216C19.4639 261.587 20.3691 261.917 21.4611 262.206C22.2944 262.425 23.2283 262.631 24.2771 262.796L27.0788 256.229C31.8776 230.91 36.0155 209.053 57.3802 173.402C74.8656 149.594 85.4258 135.224 115.382 107.569L118.716 103.997C117.954 103.599 117.552 103.118 117.509 102.568C117.466 101.964 117.825 101.277 118.601 100.508C116.618 102.335 113.974 104.794 112.02 106.635L93.8596 125.278Z" fill="#293D82"/>
<path opacity="0.2" d="M12.1075 273.842C3.70241 310.893 3.70241 310.893 1.79151 330.003C-0.392372 367.742 -0.435471 368.47 0.886352 387.978C5.15354 426.5 5.23975 427.228 9.99543 446.86L10.2972 448.124C10.9437 448.879 11.7195 450.033 12.596 450.528C13.4149 450.954 14.4494 451.338 15.6994 451.682C16.662 451.943 17.7396 452.163 18.9465 452.369L18.0413 445.225C7.91213 416.993 -0.823397 392.608 0.397852 349.841C3.14207 320.895 4.79435 303.42 17.8114 266.148L18.7597 261.216C17.4666 260.543 16.7913 259.732 16.7195 258.798C16.6908 258.482 16.7339 258.139 16.8488 257.795L12.1075 273.842Z" fill="#293D82"/>
<g opacity="0.2">
<path opacity="0.2" d="M84.5346 593.473C90.5977 600.123 98.4568 609.19 104.807 615.592C105.123 615.908 105.554 616.21 106.086 616.498C106.79 616.869 107.681 617.199 108.773 617.488C109.606 617.707 110.54 617.9 111.574 618.078L107.393 613.133C84.0748 591.303 73.4284 581.329 54.7217 552.753C63.2992 565.2 74.6783 581.92 84.5346 593.473Z" fill="#293D82"/>
<path opacity="0.2" d="M24.7926 493.638L35.0367 517.117C21.9334 486.068 20.8559 483.541 14.4479 455.872L12.5801 450.528C11.8473 449.841 10.5973 449.058 10.2812 448.124C14.3042 461.875 19.4478 480.312 24.7926 493.638Z" fill="#293D82"/>
</g>
<g opacity="0.2">
<path opacity="0.2" d="M269.664 713.243C269.736 713.271 269.822 713.284 269.894 713.312C270.382 713.435 270.928 713.559 271.532 713.655L265.167 711.649C252.897 707.569 236.661 701.772 224.679 696.977C238.041 702.184 255.914 709.053 269.664 713.243Z" fill="#293D82"/>
<path opacity="0.2" d="M125.166 634.592L133.01 641.213C126.056 634.99 116.674 626.802 110.094 620.221L106.085 616.485C105.554 616.21 105.123 615.908 104.807 615.578L125.166 634.592Z" fill="#293D82"/>
</g>
<path opacity="0.2" d="M392.292 5.70064C429.72 11.4294 441.027 13.6276 477.708 30.5529C481.257 29.1791 484.389 27.8877 487.061 26.6788C489.331 25.6484 491.271 24.6868 492.866 23.78C474.561 17.0209 462.105 13.4077 443.542 9.42368C443.556 9.40994 443.57 9.40994 443.585 9.3962C464.748 12.5835 478.369 15.3586 497.535 20.3592C498.211 19.5624 498.397 18.848 498.096 18.2573C497.823 17.7353 497.176 17.2819 496.113 16.9247C463.929 8.57191 443.944 4.43673 399.806 2.6233C360.655 1.46929 344.85 1.49677 300.425 9.73966C300.44 9.76713 300.411 9.80835 300.339 9.84956C318.701 6.49746 331.618 4.97252 349.663 4.02459C349.649 4.02459 349.649 4.03833 349.635 4.03833C330.77 5.35719 318.284 6.84091 300.152 9.94573C300.037 10.0007 299.879 10.0556 299.707 10.1243C354.864 3.13161 384.519 4.97252 392.292 5.70064Z" fill="#293D82"/>
<path opacity="0.2" d="M357.075 17.4056C377.448 28.2175 383.41 31.9817 398.698 54.7596C405.752 52.8912 412.505 51.0503 418.942 49.2368C424.401 47.7119 429.631 46.2007 434.617 44.7307C423.094 35.5949 415.163 30.5255 403.166 24.6318C403.209 24.6181 403.267 24.6044 403.31 24.5906C424.976 29.976 437.347 33.4105 454.214 38.7272C459.056 37.1748 463.539 35.6773 467.662 34.2348C467.935 34.1386 468.223 34.0425 468.496 33.9463C471.8 32.7923 474.846 31.6658 477.634 30.5942C440.349 21.8018 418.238 17.1308 376.701 12.4049C350.293 7.65148 338.239 5.49459 299.676 10.1381C299.489 10.2068 299.259 10.2755 299.001 10.3579C311.931 9.01156 320.753 8.94287 332.707 10.0969C332.678 10.1106 332.65 10.1106 332.621 10.1243C318.684 9.54735 310.078 9.64351 298.498 10.509C298.21 10.5914 297.909 10.6739 297.578 10.7563C329.819 11.9515 356.931 17.3506 357.075 17.4056Z" fill="#293D82"/>
<path opacity="0.2" d="M298.871 31.7895C294.877 48.5226 293.182 54.2239 282.65 82.0711C290.624 80.4088 298.713 78.6778 306.889 76.8781C313.828 75.3531 320.825 73.787 327.865 72.1796C327.305 60.6671 326.73 53.6881 324.891 45.1567C324.963 45.143 325.035 45.1292 325.107 45.1018C329.144 47.8357 329.144 47.8357 357.506 65.1869C365.236 63.3185 372.75 61.4501 380.006 59.6092C380.494 59.4856 380.983 59.362 381.471 59.2383C387.333 57.7409 393.037 56.2571 398.554 54.8009C338.469 31.8445 338.469 31.8445 325.222 26.4866C317.492 16.4852 314.302 12.35 297.535 10.7564C297.234 10.8388 296.903 10.9075 296.573 10.99C296.53 11.0037 296.501 11.0037 296.458 11.0174C299.13 12.3638 300.509 14.1085 301.932 17.9689C301.889 17.9827 301.846 17.9827 301.802 17.9964C297.535 14.658 296.127 13.0644 295.754 11.1686C295.394 11.251 295.05 11.3197 294.705 11.3884C288.785 17.3782 288.053 21.5408 298.871 31.7895Z" fill="#293D82"/>
<path opacity="0.2" d="M242.162 42.7525C216.056 63.9779 207.809 71.3003 179.777 100.645C185.596 99.807 191.731 98.8728 198.139 97.8424C203.57 96.9769 209.202 96.029 215.021 95.0261C222.995 83.3487 228.915 75.2844 238.512 63.03C238.57 63.0162 238.642 63.0025 238.699 63.0025C237.219 72.5368 238.11 79.1586 240.653 90.4101C247.779 89.0775 255.078 87.6625 262.535 86.1787C263.038 86.0826 263.541 85.9727 264.029 85.8765C270.092 84.6676 276.256 83.4036 282.492 82.0985C270.811 68.0856 261.587 57.0264 263.11 39.8675C277.707 24.6731 283.325 19.0267 294.661 11.3883C294.316 11.457 293.971 11.5257 293.655 11.5806C285.107 15.2075 278.814 18.5871 269.618 24.4808C269.59 24.4808 269.546 24.4945 269.518 24.4945C276.658 18.9031 282.607 15.6746 293.095 11.6768C292.822 11.718 292.563 11.7592 292.334 11.7867C261.285 23.2168 258.742 25.8134 242.162 42.7525Z" fill="#293D82"/>
<path opacity="0.2" d="M285.928 13.1329C260.167 20.7576 235.828 27.9564 205.857 46.7639C176.173 63.9228 161.274 72.5366 127.539 100.15L121.979 104.945C123.774 105.233 126.073 105.398 128.846 105.439C131.203 105.467 133.889 105.412 136.892 105.275C151.087 92.0036 161.116 83.5271 176.676 71.6437C176.705 71.6437 176.748 71.6437 176.777 71.6299C164.708 83.7057 158.774 92.0585 151.432 104.148C155.8 103.722 160.541 103.186 165.599 102.541C165.944 102.5 166.274 102.458 166.619 102.417C170.757 101.895 175.124 101.304 179.679 100.645C185.067 83.0051 189.32 69.0609 215.756 47.1485C246.604 29.6736 258.974 23.0518 292.321 11.7728C292.092 11.8003 291.876 11.8278 291.704 11.8278C275.253 16.54 263.672 20.5927 247.422 27.3244C247.408 27.3244 247.394 27.3244 247.365 27.3244C262.724 20.5515 273.845 16.6361 291.416 11.8278C291.33 11.8278 291.258 11.814 291.215 11.814C291.201 11.814 291.186 11.8003 291.172 11.8003L285.928 13.1329Z" fill="#293D82"/>
<path opacity="0.2" d="M568.047 66.9041C595.518 92.1961 603.622 100.329 625.92 136.982C631.926 134.661 637.228 132.476 641.739 130.416C645.575 128.671 648.851 127.036 651.552 125.511C638.952 110.083 630.073 100.672 616.395 88.2395C616.423 88.2257 616.452 88.1983 616.481 88.1845C634.914 99.9856 645.36 107.651 659.44 119.741C660.575 118.381 660.906 117.186 660.388 116.169L659.871 115.482C653.477 109.451 645.202 101.195 638.564 95.4108C624.527 84.3104 610.015 72.8253 583.809 59.5817C552.042 39.9774 538.982 32.4764 498.062 18.2574C498.364 18.8619 498.177 19.5625 497.502 20.3593C496.884 21.1012 495.864 21.9117 494.456 22.8047C510.332 28.7671 521.338 33.809 536.539 42.0656C536.496 42.0931 536.453 42.1068 536.41 42.1343C519.327 35.9109 506.87 32.0093 487.042 26.6651C484.37 27.8741 481.238 29.1792 477.689 30.5393C477.66 30.553 477.646 30.553 477.617 30.5668C474.83 31.6383 471.784 32.7649 468.479 33.9189C544.125 54.4024 567.875 66.7942 568.047 66.9041Z" fill="#293D82"/>
<path opacity="0.2" d="M474.861 97.8837C485.995 128.767 488.51 138.274 492.317 177.908C504.242 174.749 515.665 171.63 526.555 168.58C535.794 165.997 544.644 163.442 553.064 160.956C546.943 144.758 542.345 133.85 534.127 119.233C534.228 119.205 534.328 119.178 534.429 119.137C563.768 136.254 569.874 139.813 586.224 150.776C594.414 148.152 602 145.61 608.968 143.178C609.442 143.014 609.902 142.849 610.362 142.684C615.937 140.719 621.095 138.823 625.807 137.01C591.512 116.719 571.483 105.673 523.639 85.0248C504.415 61.5326 496.311 52.4791 467.662 34.2074C463.553 35.6499 459.056 37.1474 454.214 38.6998C449.76 40.1285 445.005 41.6123 439.976 43.1235C449.573 50.5283 456.211 56.9165 465.335 67.4949C465.205 67.5361 465.076 67.5636 464.961 67.6048C449.76 61.1204 438.007 56.5181 418.942 49.2232C412.505 51.0229 405.752 52.8638 398.698 54.7459C398.654 54.7597 398.611 54.7734 398.554 54.7871C393.037 56.2571 387.333 57.7408 381.471 59.2246C436.039 81.4804 447.39 86.0964 474.861 97.8837Z" fill="#293D82"/>
<path opacity="0.2" d="M320.811 135.952C313.095 166.121 310.725 175.106 296.027 224.096C309.503 221.28 323.196 218.354 337.032 215.317C348.77 212.748 360.609 210.083 372.52 207.363C374.014 183.445 374.575 174.501 374.56 161.065C374.704 161.024 374.862 160.997 375.006 160.956C390.609 172.839 406.93 183.816 422.649 195.548C435.723 192.375 448.424 189.229 460.709 186.11C461.542 185.904 462.361 185.684 463.194 185.478C473.122 182.95 482.763 180.436 492.102 177.963C490.277 176.947 490.277 176.947 389.517 121.733C388.583 93.776 387.865 82.9229 380.034 59.5955C372.779 61.4364 365.264 63.3048 357.535 65.1732C351.902 66.5333 346.141 67.9071 340.265 69.2809C338.713 69.6381 337.176 70.009 335.624 70.3662C336.558 79.5021 336.515 87.7175 336.098 100.59C335.926 100.631 335.739 100.673 335.566 100.714C322.176 90.2041 315.883 85.2034 306.917 76.8506C298.742 78.6503 290.639 80.3813 282.679 82.0437C282.622 82.0574 282.579 82.0711 282.521 82.0711C276.285 83.3762 270.122 84.6264 264.059 85.8491C277.435 101.621 287.349 112.474 320.811 135.952Z" fill="#293D82"/>
<path opacity="0.2" d="M170.699 164.967C146.835 205.096 140.455 216.952 122.036 255.515C131.878 254.1 142.251 252.52 153.085 250.789C162.28 249.319 171.806 247.726 181.633 246.022C186.173 231.789 186.173 231.789 198.443 197.513C198.573 197.485 198.702 197.472 198.817 197.444C205.584 210.591 211.662 219.246 224.98 238.191C237.035 235.925 249.391 233.534 261.991 231.02C262.839 230.855 263.687 230.677 264.534 230.512C274.793 228.465 285.224 226.335 295.77 224.137C267.351 200.384 248.586 183.981 227.624 156.628C239.434 132.339 242.997 125.017 262.523 86.1514C255.066 87.6351 247.767 89.0501 240.641 90.3827C234.075 91.6192 227.667 92.7869 221.446 93.8859C209.061 113.504 206.82 117.048 200.412 127.97C200.268 127.998 200.124 128.025 199.981 128.039C197.552 115.153 197.121 108.091 198.127 97.8151C191.719 98.8454 185.584 99.7796 179.765 100.618C179.737 100.618 179.694 100.631 179.665 100.631C175.11 101.277 170.757 101.868 166.605 102.404C161.49 125.319 160.929 139.057 170.699 164.967Z" fill="#293D82"/>
<path opacity="0.2" d="M115.384 107.583C99.6941 126.431 84.8811 144.222 74.6226 175.614C53.2866 205.989 43.962 219.768 27.0656 256.229L24.2783 262.796C27.3099 263.291 31.2035 263.566 35.8874 263.634C39.8672 263.689 44.4074 263.593 49.4792 263.346C56.6343 245.995 62.2089 234.262 72.3812 215.07C72.4531 215.07 72.5249 215.056 72.5967 215.056C71.045 231.748 71.8352 243.316 74.091 261.45C81.4903 260.722 89.4931 259.815 98.0418 258.744C98.6165 258.675 99.1912 258.592 99.7659 258.524C106.777 257.631 114.148 256.642 121.849 255.529C110.728 229.976 102.697 211.512 104.162 175.628C125.34 147.368 134.995 134.482 165.599 102.527C160.541 103.159 155.8 103.695 151.432 104.134C147.409 104.533 143.688 104.835 140.311 105.055C128.429 116.636 119.622 125.635 107.108 140.046C107.036 140.046 106.964 140.046 106.892 140.06C113.932 126.061 119.277 117.639 128.86 105.412C126.087 105.371 123.789 105.206 121.993 104.918C121.375 104.821 120.829 104.698 120.326 104.574C119.68 104.395 119.148 104.203 118.731 103.983L115.384 107.583Z" fill="#293D82"/>
<path opacity="0.2" d="M568.566 247.039C567.69 290.355 566.842 303.296 559.098 354.402C572.848 350.748 586.037 347.148 598.609 343.631C609.27 340.65 619.471 337.71 629.212 334.839C629.284 312.872 628.968 298.186 627.014 278.925C627.143 278.884 627.272 278.842 627.387 278.815C646.611 298.364 654.571 306.47 667.473 323.093C676.913 320.057 685.677 317.131 693.708 314.328C694.254 314.136 694.786 313.943 695.318 313.765C701.754 311.498 707.703 309.314 713.148 307.212C689.571 277.73 674.959 261.505 634.011 229.756C627.488 193.034 624.442 178.54 608.954 143.192C602 145.624 594.399 148.165 586.21 150.789C578.667 153.207 570.635 155.707 562.115 158.263C567.819 172.701 571.066 184.736 574.773 200.631C574.586 200.686 574.399 200.741 574.213 200.796C559.084 189.792 548.064 182.538 526.541 168.58C515.65 171.63 504.228 174.748 492.303 177.908C492.231 177.922 492.145 177.949 492.073 177.963C482.734 180.436 473.093 182.95 463.165 185.478C502.719 207.253 531.411 223.299 568.566 247.039Z" fill="#293D82"/>
<path opacity="0.2" d="M358.368 298.969C343.167 361.148 341.213 369.143 332.578 407.679C348.124 404.436 363.929 401.057 379.891 397.554C393.44 394.586 407.103 391.523 420.839 388.377C426.543 332.82 426.543 332.82 426.643 331.446C426.83 331.404 427.017 331.363 427.204 331.308C444.316 345.843 462.088 359.65 478.683 374.748C493.769 371.094 508.424 367.453 522.605 363.854C523.568 363.607 524.516 363.373 525.464 363.126C536.915 360.213 548.036 357.315 558.826 354.457C523.065 327.063 505.737 314.383 451.715 279.612C457.749 238.768 459.718 224.041 460.695 186.11C448.41 189.228 435.724 192.388 422.635 195.548C413.095 197.856 403.353 200.178 393.44 202.513C390.825 203.131 388.21 203.736 385.595 204.34C385.121 217.076 384.13 226.074 381.471 250.13C381.213 250.185 380.94 250.253 380.681 250.308C341.802 219.329 341.802 219.329 337.032 215.317C323.196 218.353 309.504 221.28 296.027 224.096C295.941 224.11 295.855 224.137 295.768 224.151C285.208 226.349 274.792 228.478 264.533 230.525C292.22 252.973 308.972 266.217 358.368 298.969Z" fill="#293D82"/>
<path opacity="0.2" d="M153.528 338.576C139.922 387.8 137.278 400.604 131.761 443.961C143.111 442.34 155.08 440.513 167.594 438.507C178.197 436.804 189.203 434.976 200.539 433.012C201.473 414.63 202.091 408.929 205.51 377.221C205.668 377.194 205.826 377.166 205.984 377.139C212.852 385.093 212.852 385.093 250.581 423.986C264.489 421.376 278.742 418.614 293.296 415.716C294.273 415.523 295.25 415.331 296.227 415.125C308.066 412.762 320.092 410.303 332.276 407.761C292.909 378.238 266.501 358.07 231.745 327.05C241.156 295.108 245.452 280.532 262.004 231.047C249.389 233.562 237.033 235.952 224.993 238.219C213.886 240.307 203.053 242.285 192.522 244.14C187.924 259.801 182.924 275.353 178.585 291.097C178.37 291.138 178.154 291.166 177.953 291.207C165.942 273.608 160.381 264.857 153.097 250.817C142.249 252.561 131.876 254.141 122.048 255.543C121.991 255.556 121.934 255.556 121.876 255.57C114.175 256.669 106.804 257.672 99.793 258.565C112.48 284.997 121.89 303.022 153.528 338.576Z" fill="#293D82"/>
<path opacity="0.2" d="M17.8247 266.148C14.6495 292.347 11.9053 314.974 22.4511 353.097C16.7615 389.077 14.592 405.274 18.0546 445.225L18.9598 452.369C22.4655 452.946 26.9482 453.262 32.3648 453.33C36.9481 453.399 42.1923 453.275 48.0543 453.001C46.4595 434.125 46.2727 421.568 47.2641 399.271C47.3503 399.271 47.4365 399.257 47.5227 399.257C55.6691 417.336 63.0254 429.769 76.4448 450.83C84.9792 449.992 94.2176 448.948 104.088 447.698C104.749 447.615 105.41 447.533 106.085 447.45C114.174 446.42 122.68 445.266 131.559 444.002C103.427 413.256 84.8355 391.784 63.9593 352.891C73.7149 318.697 78.1689 303.076 98.0393 258.771C89.4762 259.842 81.4734 260.749 74.0885 261.477C67.2782 262.15 60.9852 262.672 55.2668 263.043C48.1261 281.164 44.0888 292.113 39.017 309.162C38.9021 309.162 38.8015 309.176 38.6866 309.176C35.9567 290.877 35.2671 279.818 35.8849 263.648C31.201 263.579 27.3074 263.304 24.2758 262.81C23.2414 262.645 22.2931 262.439 21.4598 262.219C20.3678 261.931 19.477 261.601 18.7586 261.23L17.8247 266.148Z" fill="#293D82"/>
<path opacity="0.2" d="M403.702 486.275C392.667 530.388 389.707 542.244 382.308 579.515C395.727 576.713 409.377 573.8 423.155 570.778C434.851 568.209 446.646 565.571 458.5 562.851C461.531 547.052 465.008 531.322 467.781 515.468C467.954 515.427 468.126 515.386 468.313 515.344C504.146 546.805 504.146 546.805 508.442 551.091C521.473 547.931 534.117 544.799 546.344 541.68C547.163 541.474 547.996 541.255 548.815 541.049C558.7 538.534 568.297 536.034 577.608 533.561C553.93 510.399 540.022 497.883 497.063 466.794C510.295 420.826 514.232 405.81 522.608 363.854C508.442 367.454 493.787 371.094 478.686 374.748C467.681 377.414 456.445 380.093 444.994 382.785C441.977 383.5 438.945 384.2 435.928 384.901C434.707 397.375 434.477 398.845 428.644 436.652C428.356 436.721 428.083 436.776 427.796 436.845C411.905 423.67 395.656 410.866 379.894 397.554C363.932 401.057 348.127 404.437 332.582 407.679C332.481 407.706 332.38 407.72 332.28 407.747C320.096 410.289 308.07 412.748 296.231 415.111C328.386 437.861 346.102 450.391 403.702 486.275Z" fill="#293D82"/>
<path opacity="0.2" d="M198.156 526.005C199.176 565.997 200.153 576.795 208.961 610.825C218.76 609.423 229.09 607.844 239.894 606.113C249.047 604.643 258.544 603.063 268.328 601.373C264.736 585.986 263.544 577.304 260.914 558.276C261.058 558.249 261.216 558.221 261.36 558.194C268.156 563.359 268.156 563.359 311.517 593.57C323.514 591.317 335.827 588.926 348.399 586.426C349.247 586.261 350.08 586.096 350.928 585.917C361.143 583.87 371.531 581.755 382.048 579.557C343.385 556.614 315.195 539.675 277.064 514.218C281.359 481.274 283.127 467.646 293.313 415.674C278.759 418.573 264.506 421.335 250.598 423.945C237.782 426.349 225.282 428.63 213.127 430.786C212.438 447.368 211.288 463.937 211.044 480.546C210.814 480.587 210.584 480.628 210.369 480.67C191.59 463.195 181.878 453.921 167.625 438.48C155.111 440.486 143.143 442.313 131.792 443.934C131.72 443.948 131.649 443.948 131.591 443.961C122.712 445.239 114.206 446.393 106.117 447.41C136.016 477.908 153.775 494.545 198.156 526.005Z" fill="#293D82"/>
<path opacity="0.2" d="M14.4635 455.872C25.8283 482.661 35.6414 505.783 66.6181 540.581C78.7444 570.421 83.773 582.771 107.393 613.119L111.574 618.064C114.592 618.559 118.471 618.834 123.14 618.902C127.106 618.957 131.632 618.861 136.689 618.614C127.077 605.206 121.301 595.548 112.882 578.897C112.968 578.897 113.04 578.883 113.126 578.883C129.017 593.116 141.287 602.43 161.2 616.746C168.571 616.017 176.545 615.111 185.065 614.053C185.64 613.984 186.214 613.916 186.789 613.833C193.772 612.954 201.114 611.951 208.786 610.852C172.91 589.146 146.588 572.495 109.233 540.073C103.802 505.879 102.02 491.797 104.089 447.684C94.2183 448.92 84.9799 449.965 76.4456 450.816C68.5864 451.586 61.3308 452.19 54.7217 452.616C56.4889 471.698 57.8682 483.06 61.3452 499.958C61.2302 499.958 61.1009 499.971 60.986 499.971C48.0263 481.768 41.058 470.434 32.3512 453.33C26.9346 453.262 22.4519 452.932 18.9462 452.369C17.7393 452.176 16.6617 451.943 15.6991 451.682C14.4491 451.352 13.4147 450.967 12.5957 450.528L14.4635 455.872Z" fill="#293D82"/>
<path opacity="0.2" d="M441.513 634.633C433.409 665.076 432.073 671.918 430.45 691.014C438.338 689.365 446.34 687.662 454.429 685.876C461.297 684.365 468.222 682.812 475.176 681.232C478.294 671.808 481.699 662.48 484.759 653.042C484.874 653.014 484.989 652.987 485.119 652.959C496.369 663.922 499.759 667.22 504.501 674.322C512.144 672.468 519.572 670.627 526.756 668.799C527.245 668.676 527.719 668.552 528.207 668.429C534.012 666.945 539.644 665.489 545.104 664.032C539.5 649.539 534.227 640.499 510.248 620.153C526.914 585.931 532.245 574.583 546.339 541.667C534.112 544.772 521.455 547.918 508.437 551.077C498.94 553.385 489.228 555.693 479.343 558.015C476.728 558.633 474.127 559.238 471.527 559.842C471.369 560.625 471.369 560.625 462.073 599.284C461.843 599.339 461.628 599.394 461.398 599.436C455.248 594.545 455.248 594.545 423.151 570.764C409.372 573.786 395.738 576.713 382.304 579.502C382.218 579.515 382.131 579.543 382.045 579.557C371.528 581.755 361.155 583.87 350.925 585.917C381.097 602.211 411.47 618.161 441.513 634.633Z" fill="#293D82"/>
<path opacity="0.2" d="M289.574 664.019C302.562 687.332 307.361 693.817 328.711 709.396C334.458 708.571 340.536 707.651 346.872 706.634C352.245 705.769 357.82 704.848 363.567 703.845C356.498 697.114 352.504 692.168 345.794 681.81C345.895 681.796 345.995 681.768 346.096 681.755C359.515 687.731 368.122 691.11 388.926 699.271C395.966 697.952 403.193 696.551 410.578 695.081C411.066 694.984 411.569 694.888 412.058 694.778C418.064 693.583 424.155 692.333 430.319 691.042C384.975 671.547 375.535 667.481 348.28 655.089C346.11 633.108 345.119 623.079 348.409 586.426C335.852 588.926 323.539 591.316 311.527 593.569C300.464 595.644 289.674 597.622 279.186 599.477C284.315 621.939 284.847 624.274 288.122 634.385C287.936 634.413 287.763 634.454 287.576 634.482C268.827 623.738 257.505 617.254 239.905 606.112C229.1 607.843 218.77 609.423 208.971 610.825C208.914 610.838 208.856 610.838 208.799 610.852C201.126 611.951 193.784 612.94 186.802 613.833C211.428 627.516 239.359 643.013 281.528 660.653C283.927 661.656 287.634 662.301 289.574 664.019Z" fill="#293D82"/>
<path opacity="0.2" d="M110.108 620.222C131.832 638.438 150.596 654.182 192.334 674.776C216.141 690.616 228.095 698.57 265.163 711.635L271.528 713.641C273.295 713.929 275.58 714.094 278.324 714.135C280.652 714.163 283.31 714.108 286.269 713.97C270.537 708.255 260.824 703.804 246.313 695.658C246.37 695.658 246.428 695.644 246.471 695.644C264.847 702.554 279.028 707.06 300.651 712.858C304.976 712.432 309.66 711.896 314.66 711.278C314.99 711.237 315.335 711.195 315.666 711.154C319.76 710.632 324.071 710.055 328.582 709.409C294.287 700.191 268.54 692.759 224.69 674.116C205.753 653.234 198.512 644.456 185.049 614.039C176.529 615.111 168.555 616.018 161.185 616.732C154.403 617.405 148.139 617.927 142.435 618.284C151.328 630.621 157.478 638.479 168.455 649.868C168.354 649.868 168.268 649.882 168.167 649.882C149.432 638.328 138.484 630.786 123.125 618.903C118.455 618.834 114.576 618.559 111.559 618.065C110.524 617.9 109.59 617.694 108.757 617.474C107.679 617.185 106.774 616.856 106.07 616.485L110.108 620.222Z" fill="#293D82"/>
<path opacity="0.2" d="M463.84 713.352C463.28 715.399 462.619 718.216 462.791 720.318C463.122 720.414 463.553 720.537 463.869 720.634C464.846 720.428 466.168 720.139 467.145 719.919C468.337 719.658 469.918 719.301 471.096 719.026C472.777 718.532 473.309 718.298 475.09 717.227C475.119 717.227 475.148 717.213 475.176 717.213C474.602 718.106 474.602 718.106 473.653 718.422C478.251 717.268 479.07 717.062 483.811 715.743C490.205 712.295 490.578 712.075 490.262 707.679C503.366 695.726 508.811 690.478 526.742 668.813C519.558 670.64 512.13 672.481 504.486 674.336C498.912 675.682 493.208 677.042 487.418 678.403C485.88 678.76 484.357 679.117 482.82 679.474C482.03 681.494 482.03 681.494 474.329 699.477C474.214 699.504 474.099 699.532 473.998 699.559C469.113 695.548 465.033 692.773 454.444 685.904C446.355 687.676 438.352 689.393 430.464 691.042C430.407 691.055 430.364 691.069 430.306 691.069C424.128 692.36 418.036 693.597 412.045 694.806C458.61 711.347 458.61 711.347 463.84 713.352Z" fill="#293D82"/>
<path opacity="0.2" d="M404.549 724.81C422.135 726.664 424.39 726.898 440.267 724.878L444.318 724.246C446.1 723.958 448.485 723.56 450.266 723.244C446.085 723.944 444.275 724.082 440.899 724.288C440.927 724.288 440.942 724.274 440.971 724.274C445.755 723.862 447.867 723.642 452.637 722.818C453.901 722.584 455.582 722.268 456.847 722.035C457.91 721.829 459.332 721.554 460.396 721.334C453.255 722.145 445.87 722.983 427.997 721.1C418.816 714.959 415.008 712.404 410.554 695.067C403.184 696.537 395.957 697.938 388.902 699.257C382.408 700.48 376.072 701.634 369.922 702.719C376.345 708.97 380.497 712.5 388.212 716.828C388.126 716.842 388.026 716.855 387.939 716.869C372.307 713.517 361.948 710.934 346.862 706.607C340.526 707.623 334.449 708.544 328.702 709.368C328.673 709.368 328.63 709.382 328.601 709.382C324.104 710.028 319.794 710.605 315.685 711.127C361.675 721.197 371.618 722.035 404.549 724.81Z" fill="#293D82"/>
<path opacity="0.2" d="M279.174 715.908C292.809 719.068 311.085 722.901 324.892 725.25C337.378 726.665 354.058 728.245 366.601 729.014L373.642 729.234C393.685 729.22 394.475 729.22 406.141 728.52C418.052 727.627 418.052 727.627 424.23 726.967C426.084 726.747 428.54 726.473 430.38 726.253C406.156 728.423 402.434 728.753 380.481 728.423C353.168 725.401 341.86 724.137 314.662 711.292C309.662 711.924 304.979 712.446 300.654 712.872C296.674 713.27 292.996 713.573 289.648 713.779C304.145 718.889 314.073 721.596 328.958 724.508C328.915 724.508 328.858 724.508 328.814 724.508C309.691 721.582 296.947 718.972 278.312 714.122C275.568 714.081 273.298 713.93 271.516 713.627C270.913 713.531 270.352 713.408 269.878 713.284C269.792 713.256 269.72 713.243 269.648 713.215L279.174 715.908Z" fill="#293D82"/>
</g>
<path d="M123.601 97.1284C121.905 98.0488 120.54 98.9006 119.549 99.6974C122.279 97.2383 125.971 93.996 128.744 91.5919L136.316 85.341C163.657 64.8712 165.295 63.6485 185.913 51.5864L189.203 49.7455C164.29 65.1185 151.775 72.8393 131 93.5976C128.083 94.8615 125.612 96.043 123.601 97.1284Z" fill="url(#paint0_linear_104_2098)"/>
<path d="M183.339 75.9167C178.281 77.4005 173.468 78.843 168.928 80.258C176.917 69.501 182.965 62.9754 192.922 54.4165C192.879 54.4303 192.836 54.444 192.793 54.4578C176.672 65.462 165.796 73.7186 151.242 85.9868C146.946 87.4568 143.009 88.8718 139.474 90.2044C139.23 90.3006 139 90.383 138.77 90.4792C135.94 91.5645 133.368 92.5948 131.069 93.584C162.118 68.8828 180.753 55.6392 215.824 37.4637L222.491 33.9467C235.379 28.6575 242.62 25.7863 257.778 20.5108C250.493 23.6843 240.795 28.0118 233.683 31.5151C215.824 44.9372 210.795 49.3334 202.232 70.5589C195.609 72.3723 189.301 74.172 183.339 75.9167Z" fill="url(#paint1_linear_104_2098)"/>
<path d="M289.546 17.2135C295.71 25.0717 298.196 27.6957 315.624 42.9587C307.492 44.7172 299.273 46.5444 290.983 48.4265C285.84 49.5943 280.667 50.7895 275.48 51.9984C273.584 52.4381 271.716 52.8777 269.834 53.331C267.478 45.5003 266.371 40.6782 266.486 34.3724C266.414 34.3861 266.343 34.3999 266.271 34.4273C249.82 50.9818 248.843 51.971 241.228 60.31C233.843 62.1647 226.702 64.0056 219.82 65.819C219.36 65.9427 218.901 66.0663 218.426 66.1899C212.881 67.6599 207.507 69.1024 202.32 70.5449C227.708 49.1272 241.846 37.8894 263.699 23.8215C266.845 20.5518 271.831 16.8563 275.868 14.6582C282.477 12.7073 283.67 12.3639 288.785 11.045C287.133 11.677 287.133 11.677 286.256 12.3364C286.299 12.3227 286.342 12.3227 286.385 12.3089C288.742 11.2374 289.489 10.9351 291.543 10.3856C292.822 10.0971 294.532 9.71242 295.811 9.42392C296.615 9.24533 297.693 9.01178 298.497 8.84692C297.908 9.58878 297.377 10.2482 289.546 17.2135Z" fill="url(#paint2_linear_104_2098)"/>
<path d="M348.095 5.41263C375.638 9.01202 385.25 10.5919 422.879 22.6265C416.629 23.6019 410.091 24.6735 403.296 25.8412C397.534 26.8304 391.6 27.8745 385.508 28.9873C374.043 23.2997 366.227 19.8789 354.575 15.4552C354.517 15.4689 354.446 15.4827 354.388 15.4964C357.65 20.7444 358.368 25.2642 358.813 34.0429C351.428 35.4854 343.9 37.0103 336.242 38.604C335.725 38.7139 335.207 38.8238 334.69 38.9199C328.469 40.2113 322.161 41.5577 315.797 42.9315C323.814 28.6026 329.604 18.2578 326.227 9.85005C313.167 7.56952 310.452 7.10242 301.989 8.1053C303.239 7.85802 304.892 7.5283 306.142 7.28101C307.291 7.0612 308.814 6.77271 309.963 6.56663C313.641 5.92094 315.466 5.71487 319.432 5.38515C319.475 5.38515 319.503 5.37141 319.547 5.37141C317.348 5.49506 315.61 5.59122 312.205 6.16823C314.144 5.83851 316.745 5.39889 318.684 5.06918L321.256 4.67077C336.141 3.22827 336.141 3.22827 348.095 5.41263Z" fill="url(#paint3_linear_104_2098)"/>
<path d="M480.161 15.9774C477.259 16.1011 474.026 16.2934 470.506 16.5819C452.058 11.2103 439.644 8.35277 421.34 5.24795C421.297 5.24795 421.268 5.26169 421.225 5.26169C434.343 8.64127 442.288 11.801 453.883 18.2855C448.983 18.8762 443.754 19.5494 438.236 20.3324C437.863 20.3874 437.489 20.4423 437.116 20.4836C432.59 21.1292 427.877 21.8299 422.992 22.5992C413.136 12.4467 406.01 5.09683 376.714 1.4837C346.757 1.42875 345.594 1.41501 329.847 3.40704C332.505 3.07732 336.054 2.6377 338.726 2.33546C350.048 1.22267 350.479 1.18146 356.815 0.783052C362.361 0.535765 369.76 0.164837 375.306 0.0549316L388.309 0.206052C428.567 2.62397 442.245 3.84666 489.098 15.9088C486.584 15.8126 483.595 15.8401 480.161 15.9774Z" fill="url(#paint4_linear_104_2098)"/>
<path d="M66.6042 164.335C50.6418 195.521 46.1878 205.261 39.5499 243.618C34.6075 245.748 30.4121 247.74 27.0213 249.58C24.1478 251.133 21.849 252.589 20.168 253.922C25.3116 236.309 29.6219 224.838 37.2367 208.503C37.2224 208.517 37.208 208.531 37.1936 208.545C32.0788 218.656 29.1478 224.879 24.1765 237.202L31.2454 220.401C48.0843 186.701 48.0843 186.701 58.6733 170.586C80.2104 140.431 80.6271 139.854 93.8453 125.278L112.006 106.663C100.929 117.31 93.6298 125.649 87.3942 133.081C87.423 133.067 87.4517 133.04 87.4661 133.026C99.8654 119.137 108.989 110.07 123.586 97.1421C125.583 96.0567 128.069 94.8753 131 93.6114C131.014 93.5976 131.029 93.5976 131.058 93.5839C133.356 92.5947 135.928 91.5644 138.759 90.4791C85.9718 135.925 69.3916 159.98 66.6042 164.335Z" fill="url(#paint5_linear_104_2098)"/>
<path d="M148.24 135.224C148.255 161.794 148.729 170.174 160.007 204.629C148.829 207.72 138.168 210.743 128.082 213.696C119.534 216.197 111.401 218.642 103.7 221.033C103.169 206.113 103.312 195.15 105.539 179.956C105.453 179.983 105.353 180.011 105.267 180.038C91.3155 200.755 83.8587 212.378 73.7726 230.732C66.5026 233.218 59.8503 235.595 53.859 237.876C53.4567 238.027 53.0544 238.178 52.6665 238.329C47.8821 240.156 43.5287 241.915 39.6494 243.577C59.29 208.971 72.0772 188.487 104.333 150.377C113.643 126.143 117.493 116.101 139.462 90.2043C142.996 88.858 146.933 87.4567 151.229 85.9867C155.194 84.6403 159.461 83.2253 164.03 81.7828C157.148 91.0148 152.953 98.2548 147.967 109.451C148.082 109.41 148.197 109.383 148.312 109.342C160.151 97.1146 169.001 88.6794 183.34 75.9029C189.303 74.1581 195.596 72.3722 202.219 70.545C202.263 70.5313 202.306 70.5175 202.349 70.5038C207.535 69.075 212.909 67.6188 218.455 66.1488C167.205 112.446 148.269 135.142 148.24 135.224Z" fill="url(#paint6_linear_104_2098)"/>
<path d="M296.11 97.3894C314.084 118.038 319.041 123.616 351.799 157.961C338.049 160.942 324.141 164.019 310.133 167.207C301.426 169.185 292.676 171.204 283.912 173.265C280.708 174.021 277.533 174.763 274.372 175.518C265.018 158.662 260.406 150.116 255.507 139.098C255.363 139.14 255.22 139.167 255.076 139.208C245.435 155.268 235.22 171.012 226.01 187.306C213.525 190.438 201.442 193.556 189.804 196.62C189.013 196.826 188.238 197.032 187.462 197.238C178.08 199.725 168.985 202.17 160.221 204.588C182.72 173.059 195.048 156.079 229.185 114.782C221.326 93.4191 218.668 85.0525 219.846 65.8054C226.729 63.992 233.869 62.1511 241.254 60.2964C248.05 58.5929 255.062 56.8619 262.26 55.1309C263.826 62.1785 266.311 68.2233 270.349 76.9196C270.521 76.8783 270.708 76.8371 270.88 76.7959C277.59 67.3303 284.515 58.0159 290.995 48.4129C299.285 46.5308 307.503 44.7036 315.636 42.9451C315.693 42.9314 315.736 42.9177 315.794 42.9177C322.158 41.5439 328.466 40.1975 334.687 38.9061C325.937 55.1858 320.248 65.1872 296.11 97.3894Z" fill="url(#paint7_linear_104_2098)"/>
<path d="M451.069 66.1489C486.715 88.5146 497.707 95.9195 533.209 123.574C522.635 125.223 511.571 127.036 500.092 129.001C490.35 130.663 480.307 132.435 469.991 134.318C459.546 123.671 459.086 123.245 435.035 100.522C434.906 100.549 434.776 100.577 434.647 100.59C433.196 111.169 432.722 112.955 424.834 142.863C412.348 145.308 399.604 147.891 386.659 150.57C385.783 150.748 384.906 150.927 384.03 151.119C373.498 153.304 362.837 155.57 352.062 157.906C369.949 126.858 381.558 106.031 392.047 78.4171C372.191 63.8134 362.22 56.4773 336.229 38.6039C343.886 37.0241 351.415 35.4991 358.8 34.0429C365.596 32.7103 372.263 31.4326 378.757 30.2237C391.084 36.9554 398.053 40.7883 409.46 47.7535C409.619 47.7261 409.762 47.6986 409.92 47.6711C408.397 37.34 406.917 32.4355 403.297 25.8412C410.093 24.6735 416.63 23.6019 422.88 22.6265C422.923 22.6265 422.966 22.6127 422.995 22.6127C427.894 21.8434 432.607 21.1428 437.118 20.4971C445.724 31.3365 452.52 39.9091 451.069 66.1489Z" fill="url(#paint8_linear_104_2098)"/>
<path d="M557.516 52.397C597.4 74.7901 609.34 82.4011 645.187 112.24C640.949 112.062 635.891 112.089 630.087 112.323C625.173 112.529 619.713 112.872 613.765 113.353C599.182 100.577 588.823 92.4024 571.165 79.7221C571.079 79.7359 571.007 79.7359 570.921 79.7496C577.975 91.7979 581.165 100.741 585.648 116.238C577.372 117.227 568.521 118.381 559.182 119.7C558.55 119.783 557.932 119.879 557.3 119.961C549.657 121.046 541.682 122.242 533.407 123.533C535.303 95.521 534.973 79.7908 523.665 56.6283C492.344 40.8981 478.048 33.7268 438.235 20.3321C443.767 19.5491 448.997 18.8622 453.882 18.2851C458.393 17.7494 462.617 17.296 466.525 16.9251C483.709 22.2555 495.376 26.4731 511.137 33.0537C511.223 33.0537 511.309 33.0399 511.395 33.0399C500.519 25.4427 492.933 21.2938 480.16 15.9771C483.594 15.8398 486.583 15.8123 489.083 15.9222C491.065 16.0046 492.746 16.1695 494.111 16.4168C523.234 27.0089 523.234 27.0089 557.516 52.397Z" fill="url(#paint9_linear_104_2098)"/>
<path d="M11.5032 337.711C16.46 375.257 18.5002 386.879 36.5891 430.223C30.8851 432.682 26.0432 434.977 22.1352 437.106C18.8163 438.906 16.1727 440.582 14.2187 442.107C8.39975 422.53 5.59806 409.63 3.11245 391.001C3.09809 391.015 3.06935 391.042 3.05498 391.056C3.57222 406.896 3.57222 406.896 10.2963 448.138L9.99456 446.874C2.2504 407.775 2.2504 407.775 0.885469 387.992C-0.134634 349.319 -0.134638 349.319 1.79063 330.017C7.10666 292.389 7.10666 292.389 12.1066 273.856L16.8479 257.81C17.0922 257.054 17.6669 256.23 18.5577 255.337C14.0462 271.012 11.6899 282.36 9.54916 298.694C9.59227 298.667 9.621 298.639 9.66411 298.612C14.5491 280.711 18.9169 268.347 27.0059 249.608C30.3966 247.767 34.592 245.775 39.5345 243.646C39.5632 243.632 39.5919 243.618 39.6207 243.604C43.4999 241.942 47.8533 240.184 52.6378 238.356C13.5146 309.74 11.5175 337.436 11.5032 337.711Z" fill="url(#paint10_linear_104_2098)"/>
<path d="M122.88 297.994C140.984 333.878 147.018 344.456 175.581 385.231C162.679 388.789 150.38 392.279 138.742 395.686C128.872 398.571 119.49 401.401 110.61 404.149C101.243 385.478 95.3088 372.771 88.8721 355.145C88.7571 355.186 88.6422 355.213 88.5272 355.255C82.4785 378.28 78.9153 392.43 76.0705 415.345C67.6798 418.216 59.9931 420.964 53.0966 423.588C52.6368 423.767 52.1771 423.932 51.7173 424.11C46.2001 426.226 41.1715 428.245 36.7031 430.169C41.0565 389.641 44.9645 366.836 64.2028 318.532C55.8121 285.753 52.9673 272.647 53.8581 237.862C59.8494 235.595 66.5016 233.205 73.7717 230.718C80.467 228.424 87.6939 226.061 95.4237 223.602C95.7254 237.958 97.3921 249.045 100.151 263.333C100.323 263.278 100.496 263.223 100.668 263.168C109.59 245.143 116.616 232.848 128.067 213.669C138.153 210.715 148.814 207.693 159.992 204.602C160.064 204.588 160.136 204.561 160.207 204.547C168.972 202.129 178.052 199.67 187.449 197.197C163.138 231.281 145.524 256.697 122.88 297.994Z" fill="url(#paint11_linear_104_2098)"/>
<path d="M324.661 246.352C367.161 295.699 371.6 300.851 396.93 331.364C381.068 334.798 365.005 338.356 348.842 342.038C338.799 344.319 328.698 346.654 318.583 349.017C314.891 349.883 311.227 350.748 307.578 351.614C282.147 312.213 282.147 312.213 277.176 303.846C276.989 303.887 276.817 303.929 276.63 303.984C256.055 352.878 256.055 352.878 251.76 365.228C237.349 368.841 223.398 372.441 209.978 375.971C209.073 376.205 208.168 376.452 207.277 376.686C196.444 379.557 185.956 382.387 175.841 385.176C193.513 343.371 203.7 321.266 233.872 270.16C212.263 238.411 204.72 226.926 189.806 196.606C201.43 193.543 213.513 190.438 226.013 187.292C237.521 184.407 249.374 181.494 261.544 178.568C267.492 190.094 273.728 199.89 283.167 214.727C283.426 214.658 283.699 214.603 283.957 214.535C292.477 198.653 301.558 183.047 310.15 167.207C324.158 164.019 338.08 160.928 351.816 157.961C351.902 157.947 351.988 157.92 352.089 157.906C362.85 155.57 373.525 153.317 384.057 151.119C366.83 180.313 361.643 189.133 324.661 246.352Z" fill="url(#paint12_linear_104_2098)"/>
<path d="M536.094 203.723C571.396 242.711 579.916 253.386 606.266 291.674C594.068 293.584 581.295 295.672 568.048 297.939C556.812 299.862 545.218 301.909 533.321 304.08C524.27 288.583 523.048 286.715 502.574 255.433C502.402 255.46 502.244 255.488 502.072 255.529C495.879 275.257 488.078 294.463 481.195 313.957C466.799 316.787 452.087 319.755 437.144 322.846C436.138 323.052 435.133 323.258 434.113 323.478C421.958 326.006 409.644 328.616 397.231 331.309C429.4 271.465 439.113 253.4 455.19 220.744C432.317 196.414 421.886 185.314 386.656 150.583C399.602 147.905 412.346 145.336 424.831 142.876C436.325 140.623 447.589 138.466 458.581 136.419C469.428 148.001 480.578 159.321 491.21 171.081C491.44 171.04 491.669 170.998 491.899 170.957C496.167 152.699 498.307 143.289 500.075 129.001C511.554 127.036 522.617 125.223 533.192 123.574C533.264 123.561 533.321 123.547 533.393 123.547C541.669 122.255 549.643 121.06 557.287 119.975C554.514 145.624 552.143 162.165 536.094 203.723Z" fill="url(#paint13_linear_104_2098)"/>
<path d="M55.6394 525.14C81.7742 558.318 90.7827 568.333 126.802 598.955C121.874 601.071 117.693 603.063 114.317 604.89C111.458 606.442 109.173 607.885 107.492 609.204C92.4637 595.163 83.4121 585.561 71.6019 571.149C71.5875 571.163 71.5732 571.19 71.5444 571.204C82.392 588.555 90.2798 598.969 104.058 614.081C104.102 614.63 104.346 615.125 104.806 615.592C98.7137 608.97 90.3373 600.329 84.5328 593.474C75.2226 581.508 63.1537 565.283 54.7199 552.74L45.6539 537.037L35.0362 517.131L24.7921 493.652C20.0938 480.107 14.0738 461.945 10.2951 448.138L10.2376 447.753C10.1371 446.586 10.8698 445.239 12.364 443.728C17.364 460.337 21.9185 472.111 29.7633 488.72C29.8064 488.693 29.8495 488.652 29.8926 488.624C25.4386 470.38 23.5565 457.864 22.1341 437.092C26.0421 434.977 30.884 432.669 36.5879 430.21C36.6167 430.196 36.6598 430.182 36.6885 430.168C41.1712 428.245 46.1855 426.226 51.7027 424.11C43.8292 498.255 54.4038 522.612 55.6394 525.14Z" fill="url(#paint14_linear_104_2098)"/>
<path d="M167.406 485.286C196.544 515.537 206.731 525.786 246.788 560.131C235.653 563.209 225.035 566.217 214.992 569.157C206.472 571.644 198.369 574.089 190.696 576.466C175.567 562.426 164.878 552.081 151.803 537.642C151.703 537.669 151.588 537.711 151.487 537.738C154.03 559.486 155.84 570.064 160.884 586.124C153.642 588.597 147.004 590.973 141.042 593.24C140.639 593.391 140.252 593.542 139.849 593.694C135.079 595.521 130.755 597.266 126.89 598.928C114.85 567.99 109.203 548.701 109.462 505.728C83.37 474.021 73.3127 461.148 53.083 423.588C59.9938 420.964 67.6662 418.216 76.0569 415.345C83.7867 412.707 92.1343 409.96 101.042 407.143C108.916 422.901 116.775 435.54 126.904 450.831C127.091 450.776 127.278 450.721 127.464 450.666C130.122 431.556 133.211 417.708 138.729 395.686C150.366 392.279 162.665 388.789 175.567 385.231C175.653 385.203 175.74 385.19 175.812 385.162C185.926 382.373 196.415 379.543 207.248 376.672C189.504 416.334 177.952 443.44 167.406 485.286Z" fill="url(#paint15_linear_104_2098)"/>
<path d="M369.878 433.466C401.43 469.391 410.955 480.23 437.866 513.628C424.174 516.595 410.309 519.672 396.358 522.846C387.68 524.824 378.973 526.83 370.237 528.877C367.048 529.619 363.887 530.374 360.74 531.116C329.663 491.894 329.663 491.894 327.968 489.655C327.795 489.696 327.623 489.737 327.465 489.778C315.382 529.124 315.382 529.124 312.566 542.862C300.123 545.981 288.083 549.086 276.503 552.136C275.727 552.342 274.937 552.548 274.161 552.754C264.808 555.227 255.756 557.672 247.021 560.076C253.86 525.388 258.974 505.192 279.19 457.343C246.115 421.156 235.771 409.314 209.995 375.972C223.414 372.441 237.351 368.841 251.776 365.228C265.052 361.89 278.73 358.538 292.782 355.158C300.784 367.784 306.905 376.205 323.227 398.681C323.514 398.612 323.787 398.543 324.074 398.475C331.948 379.502 340.655 360.873 348.873 342.038C365.036 338.356 381.099 334.798 396.961 331.364C397.062 331.336 397.162 331.323 397.263 331.295C409.691 328.602 421.99 325.992 434.145 323.464C430.265 330.224 430.266 330.224 369.878 433.466Z" fill="url(#paint16_linear_104_2098)"/>
<path d="M582.04 390.685C602.356 430.223 607.313 441.282 618.563 479.365C608.031 481.013 597.011 482.813 585.575 484.764C575.877 486.426 565.862 488.184 555.604 490.067C550.69 474.364 548.176 468.003 538.822 444.346C538.664 444.374 538.506 444.401 538.363 444.428C529.57 462.7 519.685 480.45 510.633 498.584C498.205 501.03 485.504 503.585 472.602 506.264C471.725 506.442 470.863 506.621 469.987 506.8C459.498 508.984 448.866 511.237 438.148 513.559C458.794 478.252 479.944 443.206 500.576 407.885C480.001 378.54 471.496 366.396 437.186 322.819C452.128 319.727 466.84 316.76 481.237 313.93C494.498 311.32 507.501 308.833 520.187 306.484C528.866 321.623 538.003 336.529 546.38 351.833C546.624 351.792 546.868 351.751 547.112 351.696C559.526 321.431 562.112 315.139 568.075 297.911C581.322 295.644 594.095 293.556 606.293 291.647C606.365 291.633 606.451 291.619 606.523 291.605C616.077 290.122 625.272 288.748 634.094 287.484C620.215 320.758 610.962 341.942 582.04 390.685Z" fill="url(#paint17_linear_104_2098)"/>
<path d="M184.217 663.373C223.311 682.868 235.897 688.377 280.48 702.431C277.592 703.681 275.136 704.835 273.153 705.92C271.472 706.827 270.136 707.679 269.144 708.462C249.202 702.568 236.443 698.021 218.584 690.479C218.57 690.492 218.556 690.506 218.556 690.52C236.07 699.725 247.88 704.78 267.133 711.333C267.176 711.883 267.578 712.35 268.325 712.748C268.684 712.941 269.13 713.106 269.676 713.27C256.055 708.723 237.995 702.362 224.691 697.004C198.57 684.599 195.208 683.005 177.91 671.905C149.936 654.595 148.255 653.564 133.025 641.241L125.18 634.619L104.821 615.62C104.362 615.166 104.117 614.658 104.074 614.108C103.988 613.092 104.62 611.938 105.913 610.633C118.399 622.131 128.169 630.045 143.24 640.912C143.269 640.884 143.312 640.857 143.341 640.843C131.33 628.52 124.289 619.796 114.347 604.918C117.723 603.09 121.904 601.098 126.833 598.983C126.861 598.969 126.89 598.955 126.919 598.941C130.784 597.279 135.123 595.534 139.878 593.707C157.622 639.551 175.28 657.04 184.217 663.373Z" fill="url(#paint18_linear_104_2098)"/>
<path d="M266.832 633.905C300.567 653.963 312.018 660.598 350.912 679.639C344.374 681.439 338.139 683.211 332.248 684.942C327.248 686.399 322.492 687.841 317.995 689.229C302.306 682.634 289.835 677.029 272.479 667.948C272.407 667.976 272.335 667.989 272.263 668.017C282.407 680.423 289.001 686.715 300.496 694.903C296.243 696.359 292.349 697.746 288.858 699.079C288.628 699.161 288.384 699.257 288.154 699.34C285.352 700.411 282.809 701.442 280.539 702.417C259.62 689.586 243.097 679.433 224.893 648.838C189.692 628.437 175.756 620.016 141.058 593.24C147.02 590.973 153.644 588.61 160.899 586.124C167.58 583.843 174.779 581.48 182.465 579.035C195.166 590.589 206.589 599.683 220.899 610.605C221.042 610.564 221.2 610.509 221.344 610.468C217.781 597.293 216.229 587.25 215.008 569.144C225.051 566.204 235.669 563.195 246.804 560.118C246.875 560.104 246.947 560.076 247.019 560.063C255.755 557.658 264.806 555.213 274.16 552.74C266.789 583.253 262.622 603.942 266.832 633.905Z" fill="url(#paint19_linear_104_2098)"/>
<path d="M416.513 595.603C442.418 624.082 448.079 630.979 463.065 652.342C455.019 654.086 446.887 655.886 438.697 657.755C433.611 658.909 428.496 660.09 423.367 661.299C421.499 661.739 419.631 662.178 417.792 662.618C408.841 653.619 399.689 644.786 390.824 635.719C390.709 635.746 390.594 635.774 390.479 635.801C388.798 649.979 387.994 657.919 389.502 669.514C382.204 671.355 375.135 673.169 368.339 674.955C367.879 675.078 367.419 675.202 366.974 675.312C361.485 676.768 356.169 678.197 351.04 679.612C344.862 659.417 342.721 646.283 349.833 613.216C315.839 585.808 305.006 576.892 276.486 552.136C288.067 549.086 300.107 545.981 312.549 542.862C324.015 539.991 335.825 537.079 347.937 534.166C351.543 538.631 351.543 538.631 377.793 568.924C378.023 568.869 378.238 568.814 378.468 568.759C383.166 554.677 387.031 545.363 396.356 522.832C410.307 519.659 424.171 516.581 437.864 513.614C437.95 513.6 438.036 513.573 438.122 513.559C448.841 511.237 459.473 508.984 469.961 506.8C447.39 542.121 432.533 565.709 416.513 595.603Z" fill="url(#paint20_linear_104_2098)"/>
<path d="M573.365 563.978C576.511 593.899 577 602.939 569.155 632.229C562.977 633.191 556.497 634.248 549.787 635.402C544.098 636.378 538.222 637.408 532.187 638.507C533.423 627.558 533.48 620.414 532.489 605.261C532.388 605.275 532.288 605.302 532.173 605.316C523.495 618.12 514.357 630.649 505.765 643.508C498.466 644.937 491.009 646.448 483.438 648.014C482.92 648.124 482.418 648.22 481.9 648.33C475.737 649.608 469.501 650.926 463.208 652.3C477.375 628.423 484.343 617.296 512.791 576.795C501.34 552.671 496.11 541.667 472.561 506.264C485.464 503.585 498.165 501.03 510.593 498.584C522.044 496.331 533.265 494.188 544.213 492.155C553.652 521.568 553.652 521.568 556.138 531.487C556.339 531.446 556.526 531.418 556.727 531.377C583.868 487.566 583.868 487.566 585.549 484.764C596.985 482.813 608.005 480.999 618.537 479.365C618.609 479.351 618.666 479.337 618.738 479.337C626.985 478.046 634.93 476.864 642.545 475.779C625.175 499.34 610.16 519.672 578.825 557.37C577.201 559.348 574.112 561.546 573.365 563.978Z" fill="url(#paint21_linear_104_2098)"/>
<path d="M363.438 724.563C407.791 725.937 421.455 725.593 465.305 718.93C465.247 718.958 465.204 718.972 465.19 718.999C444.328 723.038 430.32 724.92 409.616 726.445C409.616 726.445 409.616 726.445 409.602 726.459C430.119 725.209 444.141 723.34 465.161 719.04C465.161 719.054 465.176 719.054 465.19 719.068H465.204L457.776 720.73C430.291 725.58 404.343 730.155 362.49 727.586C330.694 725.429 311.514 724.11 273.439 714.287L268.296 712.748C267.534 712.35 267.146 711.883 267.103 711.333C267.06 710.743 267.419 710.056 268.181 709.3C285.422 714.136 298.051 716.952 316.442 720.098C316.456 720.084 316.47 720.071 316.485 720.057C299.66 716.018 288.712 712.46 273.123 705.948C275.106 704.876 277.563 703.709 280.451 702.458C280.465 702.445 280.479 702.445 280.508 702.431C282.778 701.456 285.321 700.425 288.123 699.354C301.054 706.552 327.95 721.582 363.438 724.563Z" fill="url(#paint22_linear_104_2098)"/>
<path d="M395.68 713.064C429.085 718.738 438.812 719.851 466.068 718.683C465.938 718.724 465.823 718.752 465.708 718.793C450.163 720.703 439.358 721.239 422.864 720.909C422.85 720.909 422.835 720.923 422.807 720.923C437.663 721.815 448.438 721.293 465.507 718.862C465.421 718.889 465.349 718.917 465.292 718.944C429.703 723.986 410.062 725.071 380.551 718.711C344.704 713.573 330.207 711.182 288.828 699.079C292.334 697.746 296.213 696.359 300.466 694.902C304.388 693.57 308.612 692.182 313.124 690.74C329.302 697.156 341.529 701.112 354.905 705.082C354.977 705.055 355.049 705.041 355.12 705.014C345.465 698.955 339.905 694.064 332.218 684.942C338.109 683.211 344.345 681.453 350.882 679.639C350.925 679.626 350.968 679.612 351.011 679.598C356.141 678.183 361.457 676.754 366.945 675.298C369.143 682.991 375.767 706.388 395.68 713.064Z" fill="url(#paint23_linear_104_2098)"/>
<path d="M454.085 698.117C464.372 709.121 467.332 712.556 467.275 718.381C467.131 718.408 466.987 718.449 466.844 718.477C466.829 718.477 466.8 718.491 466.786 718.491C463.007 717.584 459.2 716.347 451.987 712.954C451.959 712.954 451.93 712.968 451.901 712.968C455.838 716.801 459.372 718.161 466.484 718.559C466.341 718.601 466.197 718.628 466.068 718.669C450.163 718.82 437.605 718.93 428.597 704.986C406.686 694.957 397.62 690.685 368.339 674.927C375.135 673.141 382.204 671.314 389.502 669.487C396.227 667.797 403.166 666.093 410.278 664.376C410.939 664.994 410.939 664.994 432.605 684.42C432.72 684.393 432.835 684.365 432.936 684.338C433.611 675.724 435.335 668.896 438.697 657.727C446.887 655.858 455.033 654.059 463.065 652.314C463.122 652.3 463.166 652.286 463.223 652.286C469.516 650.926 475.752 649.607 481.915 648.316C467.792 669.239 458.87 683.005 454.085 698.117Z" fill="url(#paint24_linear_104_2098)"/>
<path d="M515.289 685.78C501.353 701.909 496.108 707.047 468.422 718.175C468.293 718.188 468.163 718.216 468.02 718.243C476.281 714.534 481.022 711.306 486.827 705.481C486.798 705.481 486.769 705.494 486.755 705.494C477.732 712.322 472.632 715.551 467.732 718.298C467.589 718.326 467.431 718.353 467.272 718.395C470.634 713.174 473.58 709.465 491.252 691.014C492.272 676.919 492.689 671.08 483.45 648.028C491.022 646.462 498.479 644.951 505.778 643.522C512.502 642.203 519.082 640.939 525.519 639.744C524.513 650.789 523.666 656.875 520.921 665.915C521.022 665.901 521.108 665.874 521.209 665.86C540.217 645.83 541.352 644.621 549.772 635.416C556.481 634.262 562.961 633.204 569.139 632.243C569.182 632.243 569.225 632.229 569.254 632.229C574.096 631.473 578.751 630.773 583.234 630.141C565.562 645.431 545.533 662.755 520.059 682.167C518.623 683.239 516.597 684.558 515.289 685.78Z" fill="url(#paint25_linear_104_2098)"/>
<path d="M557.33 680.354C525.534 699.092 514.356 705.069 469.127 718.106C469.084 718.106 469.012 718.106 468.926 718.12C486.612 713.009 497.79 708.805 513.25 701.455C513.236 701.455 513.221 701.455 513.207 701.455C496.54 708.819 484.903 713.174 468.753 718.134C468.653 718.147 468.538 718.161 468.423 718.175C493.466 708.764 509.198 701.744 541.885 682.634C561.813 664.994 570.074 657.699 584.341 629.962C589.815 629.193 594.987 628.52 599.815 627.943C604.269 627.407 608.45 626.967 612.315 626.596C603.824 637.655 597.329 645.335 585.462 656.573C585.519 656.573 585.577 656.559 585.62 656.559C601.625 645.115 611.755 637.312 625.792 625.648C629.182 625.511 632.142 625.497 634.628 625.593C636.582 625.676 638.248 625.841 639.599 626.088C603.45 653.757 591.884 660.667 557.33 680.354Z" fill="url(#paint26_linear_104_2098)"/>
<path d="M469.169 718.175C489.47 713.82 502.818 710.015 522.042 703.091L522.056 703.077C503.421 709.63 490.088 713.435 469.226 718.148C469.241 718.134 469.241 718.12 469.212 718.106C507.832 707.926 529.671 700.892 565.044 683.761C597.127 665.366 610.403 657.755 643.549 627.902C643.851 628.492 643.65 629.193 642.989 629.99C642.773 630.251 642.514 630.512 642.198 630.787C630.977 640.142 615.704 652.287 603.866 660.928C580.762 675.779 575.964 678.87 550.562 691.523L547.602 692.897C522.559 703.42 502.789 711.718 469.011 718.271C469.068 718.23 469.126 718.203 469.169 718.175Z" fill="url(#paint27_linear_104_2098)"/>
<path d="M468.536 718.409C482.545 716.334 492.013 713.999 506.05 709.108C506.064 709.108 506.093 709.094 506.108 709.094C494.024 713.367 484.599 715.702 468.737 718.34C468.838 718.312 468.924 718.285 468.981 718.257C493.148 713.119 505.274 710.55 525.087 702.156C512.774 706.704 506.768 708.751 494.498 712.584C486.711 714.823 476.165 717.31 468.134 718.505C468.292 718.477 468.421 718.436 468.536 718.409Z" fill="url(#paint28_linear_104_2098)"/>
<path d="M473.336 718.505C471.569 718.848 469.788 718.752 467.719 718.628C467.877 718.587 468.02 718.56 468.15 718.519C472.891 717.928 479.198 716.952 483.796 715.743C477.948 717.351 477.46 717.474 473.638 718.422C473.552 718.45 473.437 718.477 473.336 718.505Z" fill="url(#paint29_linear_104_2098)"/>
<path d="M467.404 718.697C468.338 719.082 469.228 719.453 471.096 719.027C469.904 719.302 468.323 719.659 467.145 719.92C466.168 720.14 464.846 720.415 463.869 720.634C464.803 720.099 466.096 719.48 466.929 718.807C467.088 718.766 467.246 718.739 467.404 718.697Z" fill="url(#paint30_linear_104_2098)"/>
<path d="M454.487 722.489C460.578 721.211 463.179 720.194 466.483 718.903C466.627 718.876 466.771 718.848 466.929 718.821C465.018 719.686 462.461 720.881 460.406 721.362C459.343 721.568 457.92 721.857 456.857 722.063C455.593 722.296 453.912 722.612 452.647 722.846C453.193 722.722 453.926 722.599 454.487 722.489Z" fill="url(#paint31_linear_104_2098)"/>
<path d="M466.211 718.943C460.335 720.949 456.642 722.062 450.277 723.257C448.496 723.559 446.111 723.972 444.329 724.26L440.277 724.892C447.993 723.298 458.266 721.141 465.837 718.998C465.938 718.984 466.067 718.957 466.211 718.943Z" fill="url(#paint32_linear_104_2098)"/>
<path d="M465.233 719.041C465.262 719.041 465.319 719.041 465.377 719.041C446.555 723.67 434.213 725.855 416.44 727.709C416.455 727.709 416.469 727.709 416.484 727.709C435.65 725.758 448.021 723.574 465.535 719.041C465.621 719.027 465.721 719.013 465.836 718.999C443.638 724.591 443.638 724.591 430.406 726.239C428.552 726.459 426.096 726.761 424.256 726.954C413.165 728.039 412.504 728.108 406.168 728.506C386.714 729.358 385.55 729.413 373.668 729.22C404.831 728.643 420.478 728.355 457.805 720.689L465.233 719.041C465.219 719.041 465.219 719.041 465.233 719.041Z" fill="url(#paint33_linear_104_2098)"/>
<path d="M273.466 714.26C303.078 721.83 304.227 722.132 324.902 725.264C311.109 722.819 292.79 719.164 279.184 715.922L269.673 713.257C269.141 713.106 268.696 712.927 268.322 712.735L273.466 714.26Z" fill="url(#paint34_linear_104_2098)"/>
</g>
<defs>
<linearGradient id="paint0_linear_104_2098" x1="119.551" y1="74.7183" x2="189.209" y2="74.7183" gradientUnits="userSpaceOnUse">
<stop offset="0.0274" stop-color="#3C55A2"/>
<stop offset="1" stop-color="#293D82"/>
</linearGradient>
<linearGradient id="paint1_linear_104_2098" x1="131.062" y1="57.0463" x2="257.771" y2="57.0463" gradientUnits="userSpaceOnUse">
<stop offset="0.0274" stop-color="#3C55A2"/>
<stop offset="1" stop-color="#293D82"/>
</linearGradient>
<linearGradient id="paint2_linear_104_2098" x1="202.35" y1="39.6675" x2="315.626" y2="39.6675" gradientUnits="userSpaceOnUse">
<stop offset="0.0274" stop-color="#3C55A2"/>
<stop offset="1" stop-color="#293D82"/>
</linearGradient>
<linearGradient id="paint3_linear_104_2098" x1="301.972" y1="23.2884" x2="422.878" y2="23.2884" gradientUnits="userSpaceOnUse">
<stop offset="0.0274" stop-color="#3C55A2"/>
<stop offset="1" stop-color="#293D82"/>
</linearGradient>
<linearGradient id="paint4_linear_104_2098" x1="329.852" y1="11.3342" x2="489.09" y2="11.3342" gradientUnits="userSpaceOnUse">
<stop offset="0.0274" stop-color="#3C55A2"/>
<stop offset="1" stop-color="#293D82"/>
</linearGradient>
<linearGradient id="paint5_linear_104_2098" x1="20.1746" y1="172.192" x2="138.76" y2="172.192" gradientUnits="userSpaceOnUse">
<stop offset="0.0274" stop-color="#3C55A2"/>
<stop offset="1" stop-color="#293D82"/>
</linearGradient>
<linearGradient id="paint6_linear_104_2098" x1="39.646" y1="154.873" x2="218.454" y2="154.873" gradientUnits="userSpaceOnUse">
<stop offset="0.0274" stop-color="#3C55A2"/>
<stop offset="1" stop-color="#293D82"/>
</linearGradient>
<linearGradient id="paint7_linear_104_2098" x1="160.213" y1="121.741" x2="351.801" y2="121.741" gradientUnits="userSpaceOnUse">
<stop offset="0.0274" stop-color="#3C55A2"/>
<stop offset="1" stop-color="#293D82"/>
</linearGradient>
<linearGradient id="paint8_linear_104_2098" x1="336.235" y1="89.1929" x2="533.205" y2="89.1929" gradientUnits="userSpaceOnUse">
<stop offset="0.0274" stop-color="#3C55A2"/>
<stop offset="1" stop-color="#293D82"/>
</linearGradient>
<linearGradient id="paint9_linear_104_2098" x1="438.241" y1="69.693" x2="645.192" y2="69.693" gradientUnits="userSpaceOnUse">
<stop offset="0.0274" stop-color="#3C55A2"/>
<stop offset="1" stop-color="#293D82"/>
</linearGradient>
<linearGradient id="paint10_linear_104_2098" x1="0.215073" y1="343.225" x2="52.6612" y2="343.225" gradientUnits="userSpaceOnUse">
<stop offset="0.0274" stop-color="#3C55A2"/>
<stop offset="1" stop-color="#293D82"/>
</linearGradient>
<linearGradient id="paint11_linear_104_2098" x1="36.6972" y1="313.696" x2="187.453" y2="313.696" gradientUnits="userSpaceOnUse">
<stop offset="0.0274" stop-color="#3C55A2"/>
<stop offset="1" stop-color="#293D82"/>
</linearGradient>
<linearGradient id="paint12_linear_104_2098" x1="175.839" y1="268.137" x2="396.936" y2="268.137" gradientUnits="userSpaceOnUse">
<stop offset="0.0274" stop-color="#3C55A2"/>
<stop offset="1" stop-color="#293D82"/>
</linearGradient>
<linearGradient id="paint13_linear_104_2098" x1="386.657" y1="225.627" x2="606.274" y2="225.627" gradientUnits="userSpaceOnUse">
<stop offset="0.0274" stop-color="#3C55A2"/>
<stop offset="1" stop-color="#293D82"/>
</linearGradient>
<linearGradient id="paint14_linear_104_2098" x1="10.2306" y1="519.851" x2="126.806" y2="519.851" gradientUnits="userSpaceOnUse">
<stop offset="0.0274" stop-color="#3C55A2"/>
<stop offset="1" stop-color="#293D82"/>
</linearGradient>
<linearGradient id="paint15_linear_104_2098" x1="53.0958" y1="487.797" x2="246.787" y2="487.797" gradientUnits="userSpaceOnUse">
<stop offset="0.0274" stop-color="#3C55A2"/>
<stop offset="1" stop-color="#293D82"/>
</linearGradient>
<linearGradient id="paint16_linear_104_2098" x1="209.982" y1="441.766" x2="437.861" y2="441.766" gradientUnits="userSpaceOnUse">
<stop offset="0.0274" stop-color="#3C55A2"/>
<stop offset="1" stop-color="#293D82"/>
</linearGradient>
<linearGradient id="paint17_linear_104_2098" x1="437.156" y1="400.541" x2="634.086" y2="400.541" gradientUnits="userSpaceOnUse">
<stop offset="0.0274" stop-color="#3C55A2"/>
<stop offset="1" stop-color="#293D82"/>
</linearGradient>
<linearGradient id="paint18_linear_104_2098" x1="104.05" y1="653.464" x2="280.477" y2="653.464" gradientUnits="userSpaceOnUse">
<stop offset="0.0274" stop-color="#3C55A2"/>
<stop offset="1" stop-color="#293D82"/>
</linearGradient>
<linearGradient id="paint19_linear_104_2098" x1="141.052" y1="627.574" x2="350.908" y2="627.574" gradientUnits="userSpaceOnUse">
<stop offset="0.0274" stop-color="#3C55A2"/>
<stop offset="1" stop-color="#293D82"/>
</linearGradient>
<linearGradient id="paint20_linear_104_2098" x1="276.476" y1="593.205" x2="469.967" y2="593.205" gradientUnits="userSpaceOnUse">
<stop offset="0.0274" stop-color="#3C55A2"/>
<stop offset="1" stop-color="#293D82"/>
</linearGradient>
<linearGradient id="paint21_linear_104_2098" x1="463.225" y1="564.041" x2="642.573" y2="564.041" gradientUnits="userSpaceOnUse">
<stop offset="0.0274" stop-color="#3C55A2"/>
<stop offset="1" stop-color="#293D82"/>
</linearGradient>
<linearGradient id="paint22_linear_104_2098" x1="267.117" y1="713.816" x2="465.31" y2="713.816" gradientUnits="userSpaceOnUse">
<stop offset="0.0274" stop-color="#3C55A2"/>
<stop offset="1" stop-color="#293D82"/>
</linearGradient>
<linearGradient id="paint23_linear_104_2098" x1="288.838" y1="699.197" x2="466.07" y2="699.197" gradientUnits="userSpaceOnUse">
<stop offset="0.0274" stop-color="#3C55A2"/>
<stop offset="1" stop-color="#293D82"/>
</linearGradient>
<linearGradient id="paint24_linear_104_2098" x1="368.335" y1="683.522" x2="481.917" y2="683.522" gradientUnits="userSpaceOnUse">
<stop offset="0.0274" stop-color="#3C55A2"/>
<stop offset="1" stop-color="#293D82"/>
</linearGradient>
<linearGradient id="paint25_linear_104_2098" x1="467.277" y1="674.254" x2="583.238" y2="674.254" gradientUnits="userSpaceOnUse">
<stop offset="0.0274" stop-color="#3C55A2"/>
<stop offset="1" stop-color="#293D82"/>
</linearGradient>
<linearGradient id="paint26_linear_104_2098" x1="468.42" y1="671.851" x2="639.601" y2="671.851" gradientUnits="userSpaceOnUse">
<stop offset="0.0274" stop-color="#3C55A2"/>
<stop offset="1" stop-color="#293D82"/>
</linearGradient>
<linearGradient id="paint27_linear_104_2098" x1="469.001" y1="673.079" x2="643.666" y2="673.079" gradientUnits="userSpaceOnUse">
<stop offset="0.0274" stop-color="#3C55A2"/>
<stop offset="1" stop-color="#293D82"/>
</linearGradient>
<linearGradient id="paint28_linear_104_2098" x1="468.159" y1="710.332" x2="525.109" y2="710.332" gradientUnits="userSpaceOnUse">
<stop offset="0.0274" stop-color="#3C55A2"/>
<stop offset="1" stop-color="#293D82"/>
</linearGradient>
<linearGradient id="paint29_linear_104_2098" x1="467.722" y1="717.238" x2="483.809" y2="717.238" gradientUnits="userSpaceOnUse">
<stop offset="0.0274" stop-color="#3C55A2"/>
<stop offset="1" stop-color="#293D82"/>
</linearGradient>
<linearGradient id="paint30_linear_104_2098" x1="463.868" y1="719.661" x2="471.103" y2="719.661" gradientUnits="userSpaceOnUse">
<stop offset="0.0274" stop-color="#3C55A2"/>
<stop offset="1" stop-color="#293D82"/>
</linearGradient>
<linearGradient id="paint31_linear_104_2098" x1="452.648" y1="720.818" x2="466.924" y2="720.818" gradientUnits="userSpaceOnUse">
<stop offset="0.0274" stop-color="#3C55A2"/>
<stop offset="1" stop-color="#293D82"/>
</linearGradient>
<linearGradient id="paint32_linear_104_2098" x1="440.273" y1="721.913" x2="466.206" y2="721.913" gradientUnits="userSpaceOnUse">
<stop offset="0.0274" stop-color="#3C55A2"/>
<stop offset="1" stop-color="#293D82"/>
</linearGradient>
<linearGradient id="paint33_linear_104_2098" x1="373.648" y1="724.162" x2="465.828" y2="724.162" gradientUnits="userSpaceOnUse">
<stop offset="0.0274" stop-color="#3C55A2"/>
<stop offset="1" stop-color="#293D82"/>
</linearGradient>
<linearGradient id="paint34_linear_104_2098" x1="268.314" y1="718.992" x2="324.888" y2="718.992" gradientUnits="userSpaceOnUse">
<stop offset="0.0274" stop-color="#3C55A2"/>
<stop offset="1" stop-color="#293D82"/>
</linearGradient>
</defs>
</svg>
