<svg width="31" height="20" viewBox="0 0 31 20" fill="none" xmlns="http://www.w3.org/2000/svg">
<path d="M19.6248 3.48438H11.7109V16.5131H19.6248V3.48438Z" fill="#FF5F00"/>
<path d="M12.5266 10.0005C12.5256 8.74599 12.8077 7.50765 13.3517 6.37923C13.8956 5.25082 14.687 4.2619 15.6661 3.48731C14.4535 2.52672 12.9972 1.92938 11.4637 1.76357C9.93021 1.59777 8.38137 1.87017 6.99421 2.54967C5.60705 3.22916 4.43753 4.28832 3.61931 5.6061C2.80109 6.92388 2.36719 8.44711 2.36719 10.0017C2.36719 11.5563 2.80109 13.0795 3.61931 14.3973C4.43753 15.7151 5.60705 16.7742 6.99421 17.4537C8.38137 18.1332 9.93021 18.4056 11.4637 18.2398C12.9972 18.074 14.4535 17.4767 15.6661 16.5161C14.6867 15.7413 13.8951 14.752 13.3512 13.6231C12.8072 12.4943 12.5252 11.2555 12.5266 10.0005Z" fill="#EB001B"/>
<path d="M28.181 15.1357V14.8687H28.2951V14.8135H28.0234V14.8687H28.1308V15.1357H28.181ZM28.7084 15.1357V14.8135H28.6262L28.5303 15.0436L28.4344 14.8135H28.3522V15.1357H28.4116V14.8917L28.5006 15.1012H28.5623L28.6513 14.8917V15.1357H28.7084Z" fill="#F79E1B"/>
<path d="M28.9661 10.0004C28.9661 11.5551 28.5321 13.0784 27.7137 14.3962C26.8953 15.7141 25.7256 16.7732 24.3383 17.4526C22.951 18.132 21.402 18.4042 19.8684 18.2382C18.3348 18.0721 16.8785 17.4745 15.666 16.5136C16.6447 15.7383 17.4359 14.7492 17.98 13.6207C18.524 12.4922 18.8067 11.2539 18.8067 9.99924C18.8067 8.74456 18.524 7.50627 17.98 6.3778C17.4359 5.24932 16.6447 4.26013 15.666 3.48485C16.8785 2.52396 18.3348 1.92633 19.8684 1.76029C21.402 1.59424 22.951 1.86647 24.3383 2.54587C25.7256 3.22526 26.8953 4.28441 27.7137 5.60223C28.5321 6.92005 28.9661 8.44338 28.9661 9.99809V10.0004Z" fill="#F79E1B"/>
</svg>
