<svg width="35" height="93" viewBox="0 0 35 93" fill="none" xmlns="http://www.w3.org/2000/svg">
<path d="M23.82 1.20236C23.6903 1.98828 24.202 2.73392 24.9633 2.86872L24.9641 2.86886L24.9713 2.87022C24.981 2.87207 24.9983 2.87541 25.0226 2.88037C25.0711 2.89029 25.1475 2.90664 25.2478 2.93038C25.4486 2.97796 25.7431 3.05476 26.0998 3.16832C26.8182 3.39707 27.7619 3.76658 28.693 4.32878C30.5537 5.45229 32.2 7.2224 32.2 10.1128C32.2 13.1213 30.4651 15.4474 28.3056 18.241L28.1904 18.3899C27.0606 19.8507 25.8187 21.4562 24.945 23.3076C24.2591 24.7609 23.8001 26.3657 23.8001 28.1709C23.8001 29.9682 24.2551 31.5668 24.936 33.015C25.8101 34.8745 27.0567 36.4861 28.1904 37.952L28.3056 38.1009C30.4651 40.8945 32.2 43.2205 32.2 46.2291C32.2 49.2376 30.4651 51.5637 28.3056 54.3573L28.1904 54.5062C27.0459 55.9859 25.7866 57.6141 24.9113 59.4959C24.2441 60.9302 23.8001 62.5118 23.8001 64.2872C23.8001 66.0547 24.2402 67.6301 24.9023 69.0593C25.778 70.9492 27.042 72.5835 28.1904 74.0683L28.3056 74.2172C30.4651 77.0108 32.2 79.3368 32.2 82.3454C32.2 85.258 30.5287 87.1716 28.639 88.4346C27.6986 89.0631 26.7474 89.4965 26.0255 89.773C25.6668 89.9103 25.3706 90.0066 25.1685 90.0675C25.0676 90.098 24.9906 90.1194 24.9416 90.1326C24.917 90.1392 24.8995 90.1437 24.8895 90.1462L24.8827 90.148L24.8812 90.1483L24.8806 90.1485L24.8801 90.1486C24.1285 90.3307 23.6615 91.1064 23.8366 91.8826C24.0119 92.6596 24.7645 93.143 25.5175 92.9621L25.2001 91.555C25.5175 92.9621 25.5181 92.9619 25.5187 92.9618L25.52 92.9614L25.5233 92.9607L25.5321 92.9585L25.5588 92.9518C25.5806 92.9462 25.6103 92.9386 25.6473 92.9286C25.7212 92.9087 25.8247 92.8798 25.9535 92.841C26.2108 92.7635 26.5708 92.646 26.9996 92.4818C27.8527 92.1551 29.0015 91.6346 30.1611 90.8597C32.4713 89.3157 35 86.6245 35 82.3454C35 78.2405 32.6265 75.1718 30.6096 72.5643L30.4945 72.4154C28.335 69.6218 26.6001 67.2958 26.6001 64.2872C26.6001 61.2787 28.335 58.9526 30.4945 56.159L30.6096 56.0101C32.6265 53.4026 35 50.3339 35 46.2291C35 42.1242 32.6265 39.0556 30.6097 36.4481L30.4945 36.2991C28.335 33.5055 26.6001 31.1795 26.6001 28.1709C26.6001 25.1624 28.335 22.8363 30.4945 20.0427L30.6097 19.8938C32.6265 17.2863 35 14.2176 35 10.1128C35 5.81138 32.4464 3.24753 30.1071 1.83504C28.9382 1.12924 27.782 0.680234 26.9254 0.407473C26.4945 0.270277 26.1328 0.175572 25.8743 0.114328C25.7448 0.0836664 25.6408 0.0612771 25.5663 0.0460632C25.529 0.0384531 25.4991 0.0326289 25.4771 0.0284548L25.45 0.0234108L25.441 0.021783L25.4377 0.0211871L25.4363 0.0209428C25.4357 0.0208355 25.4351 0.0207341 25.2001 1.44488L25.4351 0.0207341C24.6729 -0.113209 23.9498 0.415821 23.82 1.20236Z" fill="white"/>
<path d="M13.0634 2.86871C12.3021 2.73392 11.7904 1.98828 11.9201 1.20236C12.0499 0.415821 12.773 -0.11321 13.5352 0.0207335L13.3002 1.44488C13.5352 0.0207336 13.5358 0.020835 13.5364 0.0209423L13.5378 0.0211866L13.5411 0.0217825L13.5501 0.0234103L13.5772 0.0284542C13.5992 0.0326284 13.6291 0.0384526 13.6664 0.0460626C13.7409 0.0612766 13.8449 0.0836659 13.9744 0.114327C14.2329 0.175571 14.5946 0.270277 15.0255 0.407473C15.8821 0.680234 17.0383 1.12924 18.2072 1.83504C20.5465 3.24753 23.1001 5.81138 23.1001 10.1128C23.1001 14.2176 20.7266 17.2863 18.7098 19.8938L18.5946 20.0427C16.4351 22.8363 14.7002 25.1624 14.7002 28.1709C14.7002 31.1795 16.4351 33.5055 18.5946 36.2991L18.7098 36.4481C20.7266 39.0556 23.1001 42.1242 23.1001 46.2291C23.1001 50.3339 20.7266 53.4026 18.7098 56.0101L18.5946 56.159C16.4351 58.9526 14.7002 61.2787 14.7002 64.2872C14.7002 67.2958 16.4351 69.6218 18.5946 72.4154L18.7098 72.5643C20.7266 75.1718 23.1001 78.2405 23.1001 82.3454C23.1001 86.6245 20.5714 89.3157 18.2612 90.8597C17.1016 91.6346 15.9529 92.1551 15.0997 92.4818C14.6709 92.646 14.3109 92.7635 14.0536 92.841C13.9248 92.8798 13.8214 92.9087 13.7474 92.9286C13.7104 92.9386 13.6807 92.9462 13.6589 92.9518L13.6322 92.9585L13.6234 92.9607L13.6201 92.9614L13.6188 92.9618C13.6182 92.9619 13.6176 92.9621 13.3002 91.555L13.6176 92.9621C12.8646 93.143 12.112 92.6596 11.9367 91.8826C11.7616 91.1064 12.2286 90.3307 12.9802 90.1486L12.9807 90.1485L12.9813 90.1483L12.9828 90.148L12.9896 90.1462C12.9996 90.1437 13.0171 90.1392 13.0417 90.1326C13.0908 90.1194 13.1677 90.098 13.2686 90.0675C13.4707 90.0066 13.767 89.9103 14.1256 89.773C14.8475 89.4965 15.7987 89.0631 16.7391 88.4346C18.6288 87.1716 20.3001 85.258 20.3001 82.3454C20.3001 79.3368 18.5652 77.0108 16.4057 74.2172L16.2906 74.0683C15.1422 72.5835 13.8781 70.9492 13.0024 69.0593C12.3403 67.6301 11.9002 66.0547 11.9002 64.2872C11.9002 62.5118 12.3442 60.9302 13.0114 59.4959C13.8867 57.6141 15.146 55.9859 16.2906 54.5062L16.4057 54.3573C18.5652 51.5637 20.3001 49.2376 20.3001 46.2291C20.3001 43.2205 18.5652 40.8945 16.4057 38.1009L16.2906 37.952C15.1568 36.4861 13.9102 34.8745 13.0361 33.015C12.3552 31.5668 11.9002 29.9682 11.9002 28.1709C11.9002 26.3657 12.3592 24.7609 13.0451 23.3076C13.9188 21.4562 15.1607 19.8507 16.2906 18.3899L16.4057 18.241C18.5652 15.4474 20.3001 13.1213 20.3001 10.1128C20.3001 7.2224 18.6538 5.45229 16.7931 4.32878C15.862 3.76658 14.9183 3.39707 14.1999 3.16832C13.8433 3.05476 13.5487 2.97796 13.3479 2.93038C13.2476 2.90664 13.1712 2.89029 13.1227 2.88037C13.0984 2.87541 13.0811 2.87207 13.0714 2.87022L13.0642 2.86886L13.0634 2.86871Z" fill="white"/>
<path d="M1.16428 2.86886L1.16393 2.86879C0.402453 2.7342 -0.109538 1.98843 0.0201859 1.20236C0.149987 0.41582 0.873114 -0.11321 1.63533 0.020733L1.4003 1.44488C1.63533 0.0207331 1.63591 0.0208345 1.63652 0.0209418L1.6379 0.021186L1.64124 0.021782L1.65024 0.0234098L1.67732 0.0284537C1.69934 0.0326279 1.72924 0.0384521 1.76649 0.0460621C1.84097 0.0612761 1.94504 0.0836654 2.07447 0.114327C2.33301 0.175571 2.69473 0.270276 3.12559 0.407472C3.98219 0.680233 5.13842 1.12924 6.30731 1.83504C8.6466 3.24753 11.2002 5.81137 11.2002 10.1128C11.2002 14.2176 8.82669 17.2863 6.80987 19.8938L6.69471 20.0427C4.53519 22.8363 2.80029 25.1624 2.80029 28.1709C2.80029 31.1795 4.53519 33.5055 6.69471 36.2991L6.80987 36.4481C8.82669 39.0556 11.2002 42.1242 11.2002 46.2291C11.2002 50.3339 8.82669 53.4026 6.80986 56.0101L6.69471 56.159C4.53519 58.9526 2.80029 61.2787 2.80029 64.2872C2.80029 67.2958 4.53519 69.6218 6.69471 72.4154L6.80986 72.5643C8.82669 75.1718 11.2002 78.2405 11.2002 82.3454C11.2002 86.6245 8.67155 89.3157 6.3613 90.8597C5.20174 91.6346 4.05296 92.1551 3.19984 92.4818C2.77102 92.646 2.41099 92.7634 2.15372 92.841C2.02493 92.8798 1.92146 92.9087 1.84749 92.9286C1.8105 92.9386 1.78084 92.9462 1.75905 92.9518L1.73231 92.9585L1.72347 92.9607L1.72021 92.9614L1.71887 92.9618C1.71828 92.9619 1.71772 92.9621 1.4003 91.555L1.71772 92.9621C0.964668 93.143 0.21208 92.6596 0.0367723 91.8826C-0.138333 91.1064 0.328742 90.3307 1.08027 90.1486L1.08077 90.1485L1.08139 90.1483L1.08288 90.148L1.08974 90.1462C1.09426 90.1451 1.10032 90.1435 1.10786 90.1416C1.11701 90.1392 1.12834 90.1362 1.14178 90.1326C1.19086 90.1194 1.26785 90.098 1.36875 90.0675C1.57085 90.0066 1.86706 89.9103 2.22573 89.773C2.9476 89.4965 3.8988 89.0631 4.83923 88.4346C6.72894 87.1716 8.40024 85.258 8.40024 82.3454C8.40024 79.3368 6.66533 77.0108 4.50582 74.2172L4.39067 74.0683C3.24226 72.5835 1.97819 70.9492 1.10255 69.0593C0.440378 67.6301 0.000313613 66.0547 0.000313691 64.2872C0.000313768 62.5118 0.444333 60.9302 1.11147 59.4959C1.98677 57.6141 3.24615 55.9859 4.39067 54.5062L4.50582 54.3573C6.66534 51.5637 8.40024 49.2376 8.40024 46.2291C8.40024 43.2205 6.66534 40.8945 4.50582 38.1009L4.39066 37.952C3.25687 36.4861 2.01035 34.8745 1.13617 33.015C0.455315 31.5668 0.000315191 29.9682 0.000315269 28.1709C0.000315348 26.3657 0.459352 24.7609 1.14522 23.3076C2.01894 21.4562 3.26077 19.8507 4.39065 18.3899L4.50582 18.241C6.66534 15.4474 8.40024 13.1213 8.40024 10.1128C8.40024 7.2224 6.75389 5.45229 4.89322 4.32878C3.96213 3.76658 3.01838 3.39707 2.29999 3.16832C1.94336 3.05476 1.64883 2.97796 1.44801 2.93038C1.34776 2.90663 1.27135 2.89029 1.22278 2.88037C1.19852 2.87541 1.18125 2.87207 1.17148 2.87022L1.16428 2.86886Z" fill="white"/>
</svg>
