<svg width="57" height="64" viewBox="0 0 57 64" fill="none" xmlns="http://www.w3.org/2000/svg">
<path d="M31.8285 9.24721L46.3073 17.7066C48.367 18.91 49.6358 21.1339 49.6358 23.5406V40.4594C49.6358 42.8661 48.367 45.09 46.3073 46.2934L31.8285 54.7528C29.7688 55.9562 27.2312 55.9562 25.1715 54.7528L10.6927 46.2934C8.63304 45.09 7.36423 42.8661 7.36423 40.4594V23.5406C7.36423 21.1339 8.63304 18.91 10.6927 17.7066L25.1715 9.24721C27.2312 8.04384 29.7688 8.04384 31.8285 9.24721Z" fill="white"/>
<path fill-rule="evenodd" clip-rule="evenodd" d="M32.6606 1.12816C30.086 -0.376055 26.914 -0.376054 24.3394 1.12816L4.16058 12.9178C1.58601 14.422 0 17.2019 0 20.2104V43.7896C0 46.7981 1.58601 49.578 4.16059 51.0822L24.3394 62.8718C26.914 64.3761 30.086 64.3761 32.6606 62.8718L52.8394 51.0822C55.414 49.578 57 46.7981 57 43.7896V20.2104C57 17.2019 55.414 14.422 52.8394 12.9178L32.6606 1.12816ZM24.3394 7.7887C26.914 6.28448 30.086 6.28448 32.6606 7.7887L47.1394 16.2481C49.714 17.7523 51.3 20.5322 51.3 23.5406V40.4594C51.3 43.4678 49.714 46.2477 47.1394 47.7519L32.6606 56.2113C30.086 57.7155 26.914 57.7155 24.3394 56.2113L9.86059 47.7519C7.28601 46.2477 5.7 43.4678 5.7 40.4594V23.5406C5.7 20.5322 7.28601 17.7523 9.86058 16.2481L24.3394 7.7887Z" fill="white"/>
</svg>
