<svg width="117" height="45" viewBox="0 0 117 45" fill="none" xmlns="http://www.w3.org/2000/svg">
<path d="M115.487 30.6257C114.499 30.4589 113.561 31.1169 113.391 32.0956L113.391 32.0967L113.389 32.1059C113.387 32.1185 113.383 32.1407 113.376 32.1719C113.364 32.2343 113.343 32.3326 113.313 32.4614C113.254 32.7197 113.157 33.0983 113.014 33.5569C112.726 34.4805 112.261 35.6939 111.554 36.891C110.141 39.2833 107.914 41.4 104.277 41.4C100.493 41.4 97.5662 39.1694 94.0517 36.3929L93.8643 36.2449C92.0265 34.7922 90.0067 33.1955 87.6775 32.0721C85.8491 31.1903 83.8302 30.6001 81.5591 30.6001C79.2981 30.6001 77.2869 31.1851 75.465 32.0605C73.1256 33.1845 71.0981 34.7871 69.254 36.2449L69.0666 36.3929C65.5521 39.1694 62.6258 41.4 58.8408 41.4C55.0559 41.4 52.1296 39.1694 48.615 36.3929L48.4277 36.2449C46.5661 34.7733 44.5177 33.1541 42.1503 32.0287C40.3459 31.171 38.3561 30.6001 36.1225 30.6001C33.8989 30.6001 31.917 31.1659 30.119 32.0173C27.7413 33.1431 25.6853 34.7683 23.8174 36.2449L23.63 36.3929C20.1155 39.1694 17.1892 41.4 13.4042 41.4C9.73989 41.4 7.33244 39.2512 5.74362 36.8216C4.95294 35.6125 4.40759 34.3895 4.05984 33.4614C3.88706 33.0002 3.76584 32.6194 3.68922 32.3595C3.65096 32.2298 3.62399 32.1308 3.60739 32.0677C3.5991 32.0362 3.59341 32.0137 3.59022 32.0008L3.58801 31.992L3.58756 31.9901L3.58738 31.9893L3.58723 31.9886C3.35818 31.0224 2.38229 30.4219 1.4058 30.647C0.428193 30.8724 -0.179839 31.84 0.0477458 32.8082L1.81789 32.4001C0.0477458 32.8082 0.0479137 32.8089 0.0480891 32.8097L0.0485088 32.8114L0.0495082 32.8156L0.0522243 32.827L0.06067 32.8614C0.067628 32.8894 0.0773097 32.9275 0.0898143 32.9751C0.114816 33.0702 0.151231 33.2032 0.200051 33.3688C0.297601 33.6996 0.445397 34.1625 0.651978 34.7138C1.06295 35.8107 1.71774 37.2877 2.69267 38.7785C4.63507 41.7489 8.0208 45 13.4042 45C18.5684 45 22.429 41.9483 25.7094 39.3553L25.8967 39.2072C29.4113 36.4307 32.3376 34.2001 36.1225 34.2001C39.9075 34.2001 42.8338 36.4307 46.3483 39.2072L46.5357 39.3553C49.8161 41.9483 53.6767 45 58.8408 45C64.005 45 67.8656 41.9483 71.146 39.3553L71.3333 39.2072C74.8479 36.4307 77.7742 34.2001 81.5591 34.2001C85.3441 34.2001 88.2704 36.4307 91.7849 39.2072L91.9723 39.3553C95.2527 41.9483 99.1133 45 104.277 45C109.689 45 112.914 41.7168 114.691 38.7091C115.579 37.2063 116.144 35.7197 116.487 34.6183C116.66 34.0644 116.779 33.5993 116.856 33.2669C116.895 33.1005 116.923 32.9667 116.942 32.8709C116.952 32.823 116.959 32.7846 116.964 32.7563L116.971 32.7215L116.973 32.7099L116.973 32.7056L116.974 32.7038C116.974 32.703 116.974 32.7023 115.182 32.4001L116.974 32.7023C117.142 31.7223 116.477 30.7926 115.487 30.6257Z" fill="white"/>
<path d="M113.391 16.7958C113.561 15.817 114.499 15.1591 115.487 15.3258C116.477 15.4927 117.142 16.4224 116.974 17.4024L115.182 17.1003C116.974 17.4024 116.974 17.4032 116.974 17.404L116.973 17.4057L116.973 17.41L116.971 17.4216L116.964 17.4564C116.959 17.4847 116.952 17.5232 116.942 17.5711C116.923 17.6668 116.895 17.8006 116.856 17.967C116.779 18.2994 116.66 18.7645 116.487 19.3185C116.144 20.4198 115.579 21.9064 114.691 23.4093C112.914 26.4169 109.689 29.7001 104.277 29.7001C99.1133 29.7001 95.2527 26.6485 91.9723 24.0554L91.785 23.9073C88.2704 21.1308 85.3441 18.9002 81.5591 18.9002C77.7742 18.9002 74.8479 21.1308 71.3333 23.9073L71.146 24.0554C67.8656 26.6485 64.005 29.7001 58.8408 29.7001C53.6767 29.7001 49.8161 26.6485 46.5357 24.0554L46.3483 23.9073C42.8338 21.1308 39.9075 18.9002 36.1225 18.9002C32.3376 18.9002 29.4113 21.1308 25.8967 23.9073L25.7094 24.0554C22.429 26.6485 18.5684 29.7001 13.4042 29.7001C8.0208 29.7001 4.63507 26.449 2.69267 23.4787C1.71774 21.9878 1.06295 20.5108 0.65198 19.4139C0.445399 18.8626 0.297602 18.3997 0.200053 18.0689C0.151232 17.9033 0.114817 17.7703 0.0898156 17.6752C0.077311 17.6276 0.0676293 17.5895 0.0606713 17.5615L0.0522256 17.5271L0.0495095 17.5158L0.0485101 17.5116L0.0480905 17.5098C0.047915 17.5091 0.0477472 17.5084 1.81789 17.1002L0.0477472 17.5084C-0.179838 16.5401 0.428195 15.5725 1.4058 15.3471C2.3823 15.122 3.35818 15.7225 3.58723 16.6888L3.58738 16.6894L3.58757 16.6902L3.58802 16.6921L3.59022 16.701C3.59341 16.7138 3.5991 16.7363 3.60739 16.7679C3.62399 16.831 3.65097 16.93 3.68922 17.0597C3.76584 17.3195 3.88706 17.7004 4.05984 18.1615C4.40759 19.0896 4.95294 20.3126 5.74362 21.5217C7.33245 23.9513 9.73989 26.1002 13.4042 26.1002C17.1892 26.1002 20.1155 23.8696 23.63 21.0931L23.8174 20.945C25.6852 19.4685 27.7413 17.8433 30.119 16.7174C31.917 15.8661 33.8989 15.3003 36.1225 15.3003C38.3561 15.3003 40.3459 15.8711 42.1503 16.7289C44.5177 17.8543 46.5661 19.4735 48.4277 20.945L48.615 21.0931C52.1296 23.8696 55.0559 26.1002 58.8408 26.1002C62.6258 26.1002 65.5521 23.8696 69.0666 21.0931L69.254 20.945C71.0981 19.4873 73.1256 17.8846 75.465 16.7606C77.2869 15.8853 79.2981 15.3003 81.5591 15.3003C83.8302 15.3003 85.8492 15.8905 87.6775 16.7723C90.0067 17.8957 92.0265 19.4923 93.8643 20.945L94.0517 21.0931C97.5662 23.8696 100.493 26.1002 104.277 26.1002C107.914 26.1002 110.141 23.9834 111.554 21.5911C112.261 20.394 112.726 19.1806 113.014 18.257C113.157 17.7985 113.254 17.4198 113.313 17.1616C113.343 17.0327 113.364 16.9345 113.376 16.872C113.383 16.8408 113.387 16.8186 113.389 16.8061L113.391 16.7968L113.391 16.7958Z" fill="white"/>
<path d="M113.391 1.49694L113.391 1.49647C113.56 0.51744 114.498 -0.140835 115.487 0.0259513C116.477 0.192841 117.142 1.12257 116.974 2.10257L115.182 1.80039C116.974 2.10257 116.974 2.10331 116.974 2.10409L116.973 2.10587L116.973 2.11016L116.971 2.12173L116.964 2.15655C116.959 2.18486 116.952 2.2233 116.942 2.27121C116.923 2.36697 116.895 2.50076 116.856 2.66718C116.779 2.99959 116.66 3.46466 116.487 4.01862C116.144 5.11995 115.579 6.60654 114.691 8.10941C112.914 11.1171 109.689 14.4003 104.277 14.4003C99.1133 14.4003 95.2527 11.3486 91.9723 8.75554L91.785 8.60748C88.2704 5.83096 85.3441 3.60037 81.5592 3.60037C77.7742 3.60037 74.8479 5.83096 71.3334 8.60748L71.146 8.75554C67.8656 11.3486 64.005 14.4003 58.8408 14.4003C53.6767 14.4003 49.8161 11.3486 46.5357 8.75553L46.3483 8.60748C42.8338 5.83096 39.9075 3.60037 36.1225 3.60037C32.3376 3.60036 29.4113 5.83096 25.8967 8.60747L25.7094 8.75553C22.429 11.3486 18.5684 14.4003 13.4042 14.4003C8.0208 14.4003 4.63507 11.1491 2.69267 8.1788C1.71774 6.68794 1.06295 5.21095 0.651981 4.11408C0.4454 3.56274 0.297603 3.09984 0.200054 2.76906C0.151234 2.60348 0.114818 2.47044 0.089817 2.37534C0.0773124 2.32778 0.0676307 2.28965 0.0606727 2.26163L0.0522269 2.22725L0.0495109 2.21589L0.0485114 2.21169L0.0480918 2.20997C0.0479163 2.20921 0.0477485 2.20849 1.81789 1.80038L0.0477485 2.20849C-0.179836 1.24028 0.428196 0.272668 1.4058 0.0472731C2.3823 -0.177863 3.35818 0.422662 3.58723 1.38892L3.58738 1.38956L3.58757 1.39036L3.58802 1.39227L3.59022 1.40109C3.59166 1.4069 3.59362 1.41469 3.5961 1.42439C3.59909 1.43615 3.60285 1.45072 3.6074 1.46799C3.62399 1.5311 3.65097 1.63009 3.68922 1.75982C3.76584 2.01966 3.88706 2.4005 4.05984 2.86165C4.40759 3.78976 4.95294 5.01274 5.74363 6.22186C7.33245 8.65149 9.73989 10.8003 13.4042 10.8003C17.1892 10.8003 20.1155 8.56971 23.63 5.79319L23.8174 5.64514C25.6852 4.16862 27.7413 2.54339 30.119 1.41756C31.917 0.566197 33.8989 0.000400908 36.1225 0.000401102C38.3561 0.000401297 40.3459 0.571282 42.1503 1.42902C44.5177 2.55442 46.5661 4.17362 48.4277 5.64514L48.615 5.7932C52.1296 8.56972 55.0559 10.8003 58.8408 10.8003C62.6258 10.8003 65.5521 8.56972 69.0666 5.7932L69.254 5.64513C71.0981 4.1874 73.1256 2.58474 75.465 1.46078C77.2869 0.585404 79.2981 0.000404877 81.5592 0.000405074C83.8302 0.000405273 85.8492 0.590593 87.6775 1.47242C90.0067 2.59578 92.0265 4.19242 93.8643 5.64512L94.0517 5.7932C97.5662 8.56972 100.493 10.8003 104.277 10.8003C107.914 10.8003 110.141 8.68358 111.554 6.29128C112.261 5.09417 112.726 3.88078 113.014 2.95713C113.157 2.4986 113.254 2.11993 113.313 1.86172C113.343 1.73283 113.364 1.63459 113.376 1.57215C113.383 1.54095 113.387 1.51875 113.389 1.50619L113.391 1.49694Z" fill="white"/>
</svg>
