<svg width="60" height="201" viewBox="0 0 60 201" fill="none" xmlns="http://www.w3.org/2000/svg">
<path d="M6.72 2.95588C6.72 4.58837 5.39476 5.91177 3.76 5.91177C2.12524 5.91177 0.800002 4.58837 0.800002 2.95588C0.800002 1.32339 2.12524 0 3.76 0C5.39476 0 6.72 1.32339 6.72 2.95588Z" fill="#01CCDA" fill-opacity="0.11"/>
<path d="M24.48 2.95588C24.48 4.58837 23.1548 5.91177 21.52 5.91177C19.8852 5.91177 18.56 4.58837 18.56 2.95588C18.56 1.32339 19.8852 0 21.52 0C23.1548 0 24.48 1.32339 24.48 2.95588Z" fill="#01CCDA" fill-opacity="0.11"/>
<path d="M42.24 2.95588C42.24 4.58837 40.9148 5.91177 39.28 5.91177C37.6452 5.91177 36.32 4.58837 36.32 2.95588C36.32 1.32339 37.6452 0 39.28 0C40.9148 0 42.24 1.32339 42.24 2.95588Z" fill="#01CCDA" fill-opacity="0.11"/>
<path d="M60 2.95588C60 4.58837 58.6748 5.91177 57.04 5.91177C55.4052 5.91177 54.08 4.58837 54.08 2.95588C54.08 1.32339 55.4052 0 57.04 0C58.6748 0 60 1.32339 60 2.95588Z" fill="#01CCDA" fill-opacity="0.11"/>
<path d="M6.72 20.6912C6.72 22.3237 5.39476 23.6471 3.76 23.6471C2.12524 23.6471 0.800002 22.3237 0.800002 20.6912C0.800002 19.0587 2.12524 17.7353 3.76 17.7353C5.39476 17.7353 6.72 19.0587 6.72 20.6912Z" fill="#01CCDA" fill-opacity="0.11"/>
<path d="M24.48 20.6912C24.48 22.3237 23.1548 23.6471 21.52 23.6471C19.8852 23.6471 18.56 22.3237 18.56 20.6912C18.56 19.0587 19.8852 17.7353 21.52 17.7353C23.1548 17.7353 24.48 19.0587 24.48 20.6912Z" fill="#01CCDA" fill-opacity="0.11"/>
<path d="M42.24 20.6912C42.24 22.3237 40.9148 23.6471 39.28 23.6471C37.6452 23.6471 36.32 22.3237 36.32 20.6912C36.32 19.0587 37.6452 17.7353 39.28 17.7353C40.9148 17.7353 42.24 19.0587 42.24 20.6912Z" fill="#01CCDA" fill-opacity="0.11"/>
<path d="M60 20.6912C60 22.3237 58.6748 23.6471 57.04 23.6471C55.4052 23.6471 54.08 22.3237 54.08 20.6912C54.08 19.0587 55.4052 17.7353 57.04 17.7353C58.6748 17.7353 60 19.0587 60 20.6912Z" fill="#01CCDA" fill-opacity="0.11"/>
<path d="M6.72 38.4265C6.72 40.059 5.39476 41.3824 3.76 41.3824C2.12524 41.3824 0.800002 40.059 0.800002 38.4265C0.800002 36.794 2.12524 35.4706 3.76 35.4706C5.39476 35.4706 6.72 36.794 6.72 38.4265Z" fill="#01CCDA" fill-opacity="0.11"/>
<path d="M24.48 38.4265C24.48 40.059 23.1548 41.3824 21.52 41.3824C19.8852 41.3824 18.56 40.059 18.56 38.4265C18.56 36.794 19.8852 35.4706 21.52 35.4706C23.1548 35.4706 24.48 36.794 24.48 38.4265Z" fill="#01CCDA" fill-opacity="0.11"/>
<path d="M42.24 38.4265C42.24 40.059 40.9148 41.3824 39.28 41.3824C37.6452 41.3824 36.32 40.059 36.32 38.4265C36.32 36.794 37.6452 35.4706 39.28 35.4706C40.9148 35.4706 42.24 36.794 42.24 38.4265Z" fill="#01CCDA" fill-opacity="0.11"/>
<path d="M60 38.4265C60 40.059 58.6748 41.3824 57.04 41.3824C55.4052 41.3824 54.08 40.059 54.08 38.4265C54.08 36.794 55.4052 35.4706 57.04 35.4706C58.6748 35.4706 60 36.794 60 38.4265Z" fill="#01CCDA" fill-opacity="0.11"/>
<path d="M6.72 56.1618C6.72 57.7943 5.39476 59.1176 3.76 59.1176C2.12524 59.1176 0.800002 57.7943 0.800002 56.1618C0.800002 54.5293 2.12524 53.2059 3.76 53.2059C5.39476 53.2059 6.72 54.5293 6.72 56.1618Z" fill="#01CCDA" fill-opacity="0.11"/>
<path d="M24.48 56.1618C24.48 57.7943 23.1548 59.1176 21.52 59.1176C19.8852 59.1176 18.56 57.7943 18.56 56.1618C18.56 54.5293 19.8852 53.2059 21.52 53.2059C23.1548 53.2059 24.48 54.5293 24.48 56.1618Z" fill="#01CCDA" fill-opacity="0.11"/>
<path d="M42.24 56.1618C42.24 57.7943 40.9148 59.1176 39.28 59.1176C37.6452 59.1176 36.32 57.7943 36.32 56.1618C36.32 54.5293 37.6452 53.2059 39.28 53.2059C40.9148 53.2059 42.24 54.5293 42.24 56.1618Z" fill="#01CCDA" fill-opacity="0.11"/>
<path d="M60 56.1618C60 57.7943 58.6748 59.1176 57.04 59.1176C55.4052 59.1176 54.08 57.7943 54.08 56.1618C54.08 54.5293 55.4052 53.2059 57.04 53.2059C58.6748 53.2059 60 54.5293 60 56.1618Z" fill="#01CCDA" fill-opacity="0.11"/>
<path d="M6.72 73.8971C6.72 75.5296 5.39476 76.8529 3.76 76.8529C2.12524 76.8529 0.800002 75.5296 0.800002 73.8971C0.800002 72.2646 2.12524 70.9412 3.76 70.9412C5.39476 70.9412 6.72 72.2646 6.72 73.8971Z" fill="#01CCDA" fill-opacity="0.11"/>
<path d="M24.48 73.8971C24.48 75.5296 23.1548 76.8529 21.52 76.8529C19.8852 76.8529 18.56 75.5296 18.56 73.8971C18.56 72.2646 19.8852 70.9412 21.52 70.9412C23.1548 70.9412 24.48 72.2646 24.48 73.8971Z" fill="#01CCDA" fill-opacity="0.11"/>
<path d="M42.24 73.8971C42.24 75.5296 40.9148 76.8529 39.28 76.8529C37.6452 76.8529 36.32 75.5296 36.32 73.8971C36.32 72.2646 37.6452 70.9412 39.28 70.9412C40.9148 70.9412 42.24 72.2646 42.24 73.8971Z" fill="#01CCDA" fill-opacity="0.11"/>
<path d="M60 73.8971C60 75.5296 58.6748 76.8529 57.04 76.8529C55.4052 76.8529 54.08 75.5296 54.08 73.8971C54.08 72.2646 55.4052 70.9412 57.04 70.9412C58.6748 70.9412 60 72.2646 60 73.8971Z" fill="#01CCDA" fill-opacity="0.11"/>
<path d="M6.72 91.6324C6.72 93.2648 5.39476 94.5882 3.76 94.5882C2.12524 94.5882 0.800002 93.2648 0.800002 91.6324C0.800002 89.9999 2.12524 88.6765 3.76 88.6765C5.39476 88.6765 6.72 89.9999 6.72 91.6324Z" fill="#01CCDA" fill-opacity="0.11"/>
<path d="M24.48 91.6324C24.48 93.2648 23.1548 94.5882 21.52 94.5882C19.8852 94.5882 18.56 93.2648 18.56 91.6324C18.56 89.9999 19.8852 88.6765 21.52 88.6765C23.1548 88.6765 24.48 89.9999 24.48 91.6324Z" fill="#01CCDA" fill-opacity="0.11"/>
<path d="M42.24 91.6324C42.24 93.2648 40.9148 94.5882 39.28 94.5882C37.6452 94.5882 36.32 93.2648 36.32 91.6324C36.32 89.9999 37.6452 88.6765 39.28 88.6765C40.9148 88.6765 42.24 89.9999 42.24 91.6324Z" fill="#01CCDA" fill-opacity="0.11"/>
<path d="M60 91.6324C60 93.2648 58.6748 94.5882 57.04 94.5882C55.4052 94.5882 54.08 93.2648 54.08 91.6324C54.08 89.9999 55.4052 88.6765 57.04 88.6765C58.6748 88.6765 60 89.9999 60 91.6324Z" fill="#01CCDA" fill-opacity="0.11"/>
<path d="M6.72 109.368C6.72 111 5.39476 112.324 3.76 112.324C2.12524 112.324 0.800002 111 0.800002 109.368C0.800002 107.735 2.12524 106.412 3.76 106.412C5.39476 106.412 6.72 107.735 6.72 109.368Z" fill="#01CCDA" fill-opacity="0.11"/>
<path d="M24.48 109.368C24.48 111 23.1548 112.324 21.52 112.324C19.8852 112.324 18.56 111 18.56 109.368C18.56 107.735 19.8852 106.412 21.52 106.412C23.1548 106.412 24.48 107.735 24.48 109.368Z" fill="#01CCDA" fill-opacity="0.11"/>
<path d="M42.24 109.368C42.24 111 40.9148 112.324 39.28 112.324C37.6452 112.324 36.32 111 36.32 109.368C36.32 107.735 37.6452 106.412 39.28 106.412C40.9148 106.412 42.24 107.735 42.24 109.368Z" fill="#01CCDA" fill-opacity="0.11"/>
<path d="M60 109.368C60 111 58.6748 112.324 57.04 112.324C55.4052 112.324 54.08 111 54.08 109.368C54.08 107.735 55.4052 106.412 57.04 106.412C58.6748 106.412 60 107.735 60 109.368Z" fill="#01CCDA" fill-opacity="0.11"/>
<path d="M6.72 127.103C6.72 128.735 5.39476 130.059 3.76 130.059C2.12524 130.059 0.800002 128.735 0.800002 127.103C0.800002 125.47 2.12524 124.147 3.76 124.147C5.39476 124.147 6.72 125.47 6.72 127.103Z" fill="#01CCDA" fill-opacity="0.11"/>
<path d="M24.48 127.103C24.48 128.735 23.1548 130.059 21.52 130.059C19.8852 130.059 18.56 128.735 18.56 127.103C18.56 125.47 19.8852 124.147 21.52 124.147C23.1548 124.147 24.48 125.47 24.48 127.103Z" fill="#01CCDA" fill-opacity="0.11"/>
<path d="M42.24 127.103C42.24 128.735 40.9148 130.059 39.28 130.059C37.6452 130.059 36.32 128.735 36.32 127.103C36.32 125.47 37.6452 124.147 39.28 124.147C40.9148 124.147 42.24 125.47 42.24 127.103Z" fill="#01CCDA" fill-opacity="0.11"/>
<path d="M60 127.103C60 128.735 58.6748 130.059 57.04 130.059C55.4052 130.059 54.08 128.735 54.08 127.103C54.08 125.47 55.4052 124.147 57.04 124.147C58.6748 124.147 60 125.47 60 127.103Z" fill="#01CCDA" fill-opacity="0.11"/>
<path d="M6.72 144.838C6.72 146.471 5.39476 147.794 3.76 147.794C2.12524 147.794 0.800002 146.471 0.800002 144.838C0.800002 143.206 2.12524 141.882 3.76 141.882C5.39476 141.882 6.72 143.206 6.72 144.838Z" fill="#01CCDA" fill-opacity="0.11"/>
<path d="M24.48 144.838C24.48 146.471 23.1548 147.794 21.52 147.794C19.8852 147.794 18.56 146.471 18.56 144.838C18.56 143.206 19.8852 141.882 21.52 141.882C23.1548 141.882 24.48 143.206 24.48 144.838Z" fill="#01CCDA" fill-opacity="0.11"/>
<path d="M42.24 144.838C42.24 146.471 40.9148 147.794 39.28 147.794C37.6452 147.794 36.32 146.471 36.32 144.838C36.32 143.206 37.6452 141.882 39.28 141.882C40.9148 141.882 42.24 143.206 42.24 144.838Z" fill="#01CCDA" fill-opacity="0.11"/>
<path d="M60 144.838C60 146.471 58.6748 147.794 57.04 147.794C55.4052 147.794 54.08 146.471 54.08 144.838C54.08 143.206 55.4052 141.882 57.04 141.882C58.6748 141.882 60 143.206 60 144.838Z" fill="#01CCDA" fill-opacity="0.11"/>
<path d="M6.72 162.574C6.72 164.206 5.39476 165.529 3.76 165.529C2.12524 165.529 0.800002 164.206 0.800002 162.574C0.800002 160.941 2.12524 159.618 3.76 159.618C5.39476 159.618 6.72 160.941 6.72 162.574Z" fill="#01CCDA" fill-opacity="0.11"/>
<path d="M24.48 162.574C24.48 164.206 23.1548 165.529 21.52 165.529C19.8852 165.529 18.56 164.206 18.56 162.574C18.56 160.941 19.8852 159.618 21.52 159.618C23.1548 159.618 24.48 160.941 24.48 162.574Z" fill="#01CCDA" fill-opacity="0.11"/>
<path d="M42.24 162.574C42.24 164.206 40.9148 165.529 39.28 165.529C37.6452 165.529 36.32 164.206 36.32 162.574C36.32 160.941 37.6452 159.618 39.28 159.618C40.9148 159.618 42.24 160.941 42.24 162.574Z" fill="#01CCDA" fill-opacity="0.11"/>
<path d="M60 162.574C60 164.206 58.6748 165.529 57.04 165.529C55.4052 165.529 54.08 164.206 54.08 162.574C54.08 160.941 55.4052 159.618 57.04 159.618C58.6748 159.618 60 160.941 60 162.574Z" fill="#01CCDA" fill-opacity="0.11"/>
<path d="M6.72 180.309C6.72 181.941 5.39476 183.265 3.76 183.265C2.12524 183.265 0.800002 181.941 0.800002 180.309C0.800002 178.676 2.12524 177.353 3.76 177.353C5.39476 177.353 6.72 178.676 6.72 180.309Z" fill="#01CCDA" fill-opacity="0.11"/>
<path d="M24.48 180.309C24.48 181.941 23.1548 183.265 21.52 183.265C19.8852 183.265 18.56 181.941 18.56 180.309C18.56 178.676 19.8852 177.353 21.52 177.353C23.1548 177.353 24.48 178.676 24.48 180.309Z" fill="#01CCDA" fill-opacity="0.11"/>
<path d="M42.24 180.309C42.24 181.941 40.9148 183.265 39.28 183.265C37.6452 183.265 36.32 181.941 36.32 180.309C36.32 178.676 37.6452 177.353 39.28 177.353C40.9148 177.353 42.24 178.676 42.24 180.309Z" fill="#01CCDA" fill-opacity="0.11"/>
<path d="M60 180.309C60 181.941 58.6748 183.265 57.04 183.265C55.4052 183.265 54.08 181.941 54.08 180.309C54.08 178.676 55.4052 177.353 57.04 177.353C58.6748 177.353 60 178.676 60 180.309Z" fill="#01CCDA" fill-opacity="0.11"/>
<path d="M6.72 198.044C6.72 199.677 5.39476 201 3.76 201C2.12524 201 0.800002 199.677 0.800002 198.044C0.800002 196.412 2.12524 195.088 3.76 195.088C5.39476 195.088 6.72 196.412 6.72 198.044Z" fill="#01CCDA" fill-opacity="0.11"/>
<path d="M24.48 198.044C24.48 199.677 23.1548 201 21.52 201C19.8852 201 18.56 199.677 18.56 198.044C18.56 196.412 19.8852 195.088 21.52 195.088C23.1548 195.088 24.48 196.412 24.48 198.044Z" fill="#01CCDA" fill-opacity="0.11"/>
<path d="M42.24 198.044C42.24 199.677 40.9148 201 39.28 201C37.6452 201 36.32 199.677 36.32 198.044C36.32 196.412 37.6452 195.088 39.28 195.088C40.9148 195.088 42.24 196.412 42.24 198.044Z" fill="#01CCDA" fill-opacity="0.11"/>
<path d="M60 198.044C60 199.677 58.6748 201 57.04 201C55.4052 201 54.08 199.677 54.08 198.044C54.08 196.412 55.4052 195.088 57.04 195.088C58.6748 195.088 60 196.412 60 198.044Z" fill="#01CCDA" fill-opacity="0.11"/>
</svg>
