<svg width="50" height="129" viewBox="0 0 50 129" fill="none" xmlns="http://www.w3.org/2000/svg">
<path d="M34.0284 1.66456C33.8431 2.7526 34.5742 3.78488 35.6617 3.97149L35.6629 3.97168L35.6731 3.97357C35.6871 3.97613 35.7118 3.98076 35.7464 3.98762C35.8158 4.00136 35.925 4.02399 36.0682 4.05686C36.3551 4.12272 36.7758 4.22905 37.2853 4.38626C38.3116 4.70295 39.6598 5.2145 40.9899 5.99283C43.6481 7.54823 46 9.9988 46 14.0003C46 18.1654 43.5216 21.3856 40.4365 25.2531L40.272 25.4592C38.6579 27.4816 36.8838 29.7043 35.6356 32.2674C34.6558 34.2794 34 36.5011 34 39.0002C34 41.4884 34.65 43.7015 35.6227 45.7065C36.8715 48.2808 38.6523 50.5119 40.272 52.5412L40.4365 52.7474C43.5216 56.6149 46 59.8351 46 64.0002C46 68.1653 43.5216 71.3855 40.4365 75.253L40.272 75.4591C38.637 77.5077 36.8378 79.7618 35.5874 82.367C34.6344 84.3526 34 86.5422 34 89.0001C34 91.4471 34.6287 93.6281 35.5747 95.6066C36.8256 98.2231 38.6314 100.486 40.272 102.541L40.4365 102.747C43.5216 106.615 46 109.835 46 114C46 118.032 43.6124 120.682 40.9128 122.43C39.5693 123.3 38.2105 123.9 37.1792 124.283C36.6668 124.473 36.2437 124.606 35.955 124.691C35.8108 124.733 35.7008 124.763 35.6307 124.781C35.5957 124.79 35.5706 124.796 35.5564 124.8L35.5466 124.802L35.5444 124.803L35.5436 124.803L35.5428 124.803C34.4692 125.055 33.802 126.129 34.0521 127.203C34.3026 128.279 35.3777 128.948 36.4535 128.698L36 126.75C36.4535 128.698 36.4543 128.698 36.4551 128.698L36.457 128.697L36.4617 128.696L36.4743 128.693L36.5125 128.684C36.5437 128.676 36.586 128.665 36.6389 128.652C36.7445 128.624 36.8924 128.584 37.0763 128.53C37.4439 128.423 37.9582 128.26 38.5708 128.033C39.7896 127.581 41.4307 126.86 43.0872 125.787C46.3876 123.65 50 119.924 50 114C50 108.317 46.6092 104.069 43.728 100.459L43.5635 100.253C40.4785 96.3854 38 93.1652 38 89.0001C38 84.835 40.4785 81.6148 43.5635 77.7473L43.728 77.5412C46.6092 73.9313 50 69.683 50 64.0002C50 58.3174 46.6092 54.0691 43.728 50.4592L43.5635 50.253C40.4785 46.3855 38 43.1653 38 39.0002C38 34.8352 40.4785 31.6149 43.5635 27.7474L43.728 27.5413C46.6092 23.9314 50 19.6831 50 14.0003C50 8.04535 46.352 4.49593 43.0101 2.54045C41.3402 1.56334 39.6885 0.941726 38.4647 0.564112C37.8492 0.374176 37.3325 0.243064 36.9631 0.158277C36.7782 0.115829 36.6296 0.0848329 36.5232 0.0637705C36.4699 0.053235 36.4272 0.0451719 36.3958 0.0393932L36.3571 0.0324102L36.3442 0.0301567L36.3395 0.0293317L36.3375 0.0289935C36.3366 0.0288449 36.3358 0.0287046 36 2.00032L36.3358 0.0287045C35.2469 -0.156729 34.2139 0.575668 34.0284 1.66456Z" fill="#F7FCFF"/>
<path d="M18.6617 3.97149C17.5743 3.78487 16.8432 2.7526 17.0285 1.66456C17.2139 0.575668 18.2469 -0.156729 19.3358 0.0287038L19.0001 2.00031C19.3358 0.0287038 19.3366 0.0288442 19.3375 0.0289927L19.3395 0.0293309L19.3443 0.030156L19.3571 0.0324095L19.3958 0.0393924C19.4273 0.0451712 19.47 0.0532342 19.5232 0.0637697C19.6296 0.0848322 19.7783 0.115828 19.9632 0.158276C20.3325 0.243064 20.8493 0.374175 21.4648 0.564111C22.6885 0.941725 24.3403 1.56334 26.0101 2.54045C29.352 4.49593 33 8.04535 33 14.0003C33 19.6831 29.6093 23.9314 26.7281 27.5413L26.5636 27.7474C23.4785 31.6149 21.0001 34.8352 21.0001 39.0002C21.0001 43.1653 23.4785 46.3855 26.5636 50.253L26.7281 50.4592C29.6093 54.0691 33 58.3174 33 64.0002C33 69.683 29.6093 73.9313 26.7281 77.5412L26.5636 77.7473C23.4785 81.6148 21.0001 84.835 21.0001 89.0001C21.0001 93.1652 23.4785 96.3854 26.5636 100.253L26.7281 100.459C29.6093 104.069 33 108.317 33 114C33 119.924 29.3876 123.65 26.0872 125.787C24.4307 126.86 22.7896 127.581 21.5709 128.033C20.9583 128.26 20.4439 128.423 20.0764 128.53C19.8924 128.584 19.7446 128.624 19.6389 128.652C19.5861 128.665 19.5437 128.676 19.5126 128.684L19.4744 128.693L19.4617 128.696L19.4571 128.697L19.4552 128.698C19.4543 128.698 19.4535 128.698 19.0001 126.75L19.4535 128.698C18.3777 128.948 17.3026 128.279 17.0522 127.203C16.802 126.129 17.4693 125.055 18.5429 124.803L18.5436 124.803L18.5445 124.803L18.5466 124.802L18.5564 124.8C18.5707 124.796 18.5957 124.79 18.6307 124.781C18.7009 124.763 18.8108 124.733 18.955 124.691C19.2437 124.606 19.6669 124.473 20.1793 124.283C21.2105 123.9 22.5694 123.3 23.9129 122.43C26.6125 120.682 29 118.032 29 114C29 109.835 26.5216 106.615 23.4366 102.747L23.272 102.541C21.6315 100.486 19.8256 98.2231 18.5747 95.6066C17.6287 93.6281 17.0001 91.4471 17.0001 89.0001C17.0001 86.5422 17.6344 84.3526 18.5874 82.367C19.8379 79.7618 21.637 77.5077 23.272 75.4591L23.4366 75.253C26.5216 71.3855 29 68.1653 29 64.0002C29 59.8351 26.5216 56.6149 23.4366 52.7474L23.272 52.5412C21.6523 50.5119 19.8716 48.2808 18.6227 45.7065C17.6501 43.7015 17.0001 41.4884 17.0001 39.0002C17.0001 36.5011 17.6558 34.2794 18.6357 32.2674C19.8839 29.7043 21.6579 27.4816 23.272 25.4592L23.4366 25.2531C26.5216 21.3856 29 18.1654 29 14.0003C29 9.9988 26.6481 7.54823 23.99 5.99283C22.6598 5.2145 21.3116 4.70295 20.2853 4.38626C19.7759 4.22905 19.3551 4.12272 19.0682 4.05686C18.925 4.02399 18.8158 4.00136 18.7465 3.98762C18.7118 3.98076 18.6871 3.97613 18.6732 3.97357L18.6629 3.97168L18.6617 3.97149Z" fill="#F7FCFF"/>
<path d="M1.66293 3.97168L1.66242 3.9716C0.574596 3.78527 -0.156826 2.7528 0.0284957 1.66456C0.213928 0.575667 1.24697 -0.15673 2.33587 0.028703L2.00011 2.00031C2.33587 0.0287031 2.33669 0.0288435 2.33755 0.028992L2.33953 0.0293302L2.3443 0.0301552L2.35716 0.0324088L2.39584 0.0393917C2.4273 0.0451704 2.47001 0.0532335 2.52324 0.063769C2.62964 0.0848314 2.7783 0.115827 2.96321 0.158275C3.33256 0.243063 3.8493 0.374174 4.46482 0.56411C5.68854 0.941724 7.34031 1.56334 9.01017 2.54045C12.352 4.49593 16.0001 8.04535 16.0001 14.0003C16.0001 19.6831 12.6093 23.9314 9.72811 27.5413L9.56359 27.7474C6.47855 31.6149 4.0001 34.8352 4.0001 39.0002C4.0001 43.1653 6.47855 46.3855 9.56359 50.253L9.72811 50.4592C12.6093 54.0691 16.0001 58.3174 16.0001 64.0002C16.0001 69.683 12.6093 73.9313 9.7281 77.5412L9.56359 77.7473C6.47855 81.6148 4.0001 84.835 4.0001 89.0001C4.0001 93.1652 6.47855 96.3854 9.56359 100.253L9.7281 100.459C12.6093 104.069 16.0001 108.317 16.0001 114C16.0001 119.924 12.3877 123.65 9.08729 125.787C7.43077 126.86 5.78965 127.581 4.57089 128.033C3.95829 128.26 3.44395 128.423 3.07642 128.53C2.89244 128.584 2.74462 128.624 2.63895 128.652C2.5861 128.665 2.54373 128.676 2.5126 128.684L2.4744 128.693L2.46178 128.696L2.45711 128.697L2.4552 128.698C2.45436 128.698 2.45356 128.698 2.0001 126.75L2.45356 128.698C1.37776 128.948 0.302633 128.279 0.0521909 127.203C-0.197962 126.129 0.469294 125.055 1.54292 124.803L1.54363 124.803L1.54452 124.803L1.54664 124.802L1.55644 124.8C1.5629 124.798 1.57155 124.796 1.58233 124.793C1.59539 124.79 1.61158 124.786 1.63078 124.781C1.7009 124.763 1.81088 124.733 1.95503 124.691C2.24375 124.606 2.66691 124.473 3.1793 124.283C4.21054 123.9 5.56942 123.3 6.91289 122.43C9.61249 120.682 12.0001 118.032 12.0001 114C12.0001 109.835 9.52163 106.615 6.43659 102.747L6.27208 102.541C4.6315 100.486 2.82567 98.2231 1.57474 95.6066C0.628776 93.6281 0.000106629 91.4471 0.000106736 89.0001C0.000106843 86.5422 0.634426 84.3526 1.58748 82.367C2.83792 79.7618 4.63705 77.5077 6.27208 75.4591L6.43659 75.253C9.52163 71.3855 12.0001 68.1653 12.0001 64.0002C12.0001 59.8351 9.52163 56.6149 6.43659 52.7474L6.27207 52.5412C4.65236 50.5119 2.87161 48.2808 1.62276 45.7065C0.650114 43.7015 0.000108813 41.4884 0.000108921 39.0002C0.000109031 36.5011 0.655882 34.2794 1.6357 32.2674C2.88388 29.7043 4.65793 27.4816 6.27205 25.4593L6.43659 25.2531C9.52163 21.3856 12.0001 18.1654 12.0001 14.0003C12.0001 9.99879 9.64814 7.54822 6.99002 5.99283C5.65988 5.2145 4.31166 4.70295 3.28538 4.38626C2.7759 4.22905 2.35515 4.12272 2.06825 4.05686C1.92504 4.02399 1.81588 4.00135 1.74651 3.98762C1.71184 3.98076 1.68717 3.97613 1.67322 3.97357L1.66293 3.97168Z" fill="#F7FCFF"/>
</svg>
