<svg width="54" height="20" viewBox="0 0 54 20" fill="none" xmlns="http://www.w3.org/2000/svg">
<g clip-path="url(#clip0_69_140)">
<path d="M6.39984 3.33301H2.2515C2.11416 3.33292 1.98131 3.38173 1.87689 3.47064C1.77246 3.55955 1.70332 3.68271 1.68192 3.81793L0.00414513 14.4216C-0.00356813 14.4708 -0.000491266 14.5211 0.0131624 14.569C0.026816 14.6169 0.0507223 14.6613 0.0832362 14.6991C0.11575 14.7369 0.156099 14.7673 0.201504 14.7881C0.246909 14.8088 0.296291 14.8195 0.346251 14.8195H2.32671C2.46413 14.8195 2.59705 14.7706 2.70149 14.6816C2.80593 14.5926 2.87502 14.4693 2.89628 14.3339L3.34878 11.474C3.37003 11.3387 3.43903 11.2155 3.54334 11.1265C3.64766 11.0375 3.78043 10.9885 3.91775 10.9884H5.23098C7.96359 10.9884 9.54067 9.67031 9.95254 7.05823C10.1381 5.91545 9.96042 5.01755 9.4236 4.38872C8.83402 3.69821 7.78828 3.33301 6.39984 3.33301ZM6.87843 7.20577C6.65157 8.68957 5.51425 8.68957 4.41453 8.68957H3.78855L4.22771 5.91848C4.24056 5.8374 4.28202 5.76357 4.34463 5.71025C4.40723 5.65694 4.48687 5.62764 4.56921 5.62764H4.85612C5.60523 5.62764 6.31189 5.62764 6.67705 6.05331C6.8948 6.30726 6.96153 6.68456 6.87843 7.20577ZM18.8 7.158H16.8135C16.7311 7.158 16.6515 7.1873 16.5889 7.24061C16.5263 7.29393 16.4848 7.36776 16.472 7.44884L16.384 8.00269L16.2451 7.80195C15.8151 7.17977 14.8561 6.97177 13.8989 6.97177C11.7037 6.97177 9.8288 8.62911 9.46364 10.954C9.27378 12.1137 9.5437 13.2226 10.2037 13.9959C10.809 14.707 11.6752 15.0033 12.7058 15.0033C14.4745 15.0033 15.4554 13.8696 15.4554 13.8696L15.3668 14.4198C15.3589 14.469 15.3618 14.5193 15.3753 14.5673C15.3888 14.6153 15.4126 14.6597 15.445 14.6977C15.4774 14.7356 15.5176 14.7661 15.563 14.787C15.6083 14.8079 15.6577 14.8188 15.7077 14.8189H17.4971C17.6345 14.8189 17.7674 14.77 17.8719 14.681C17.9763 14.592 18.0454 14.4687 18.0667 14.3333L19.1403 7.55586C19.1482 7.50677 19.1453 7.45656 19.1318 7.4087C19.1184 7.36083 19.0946 7.31645 19.0623 7.27862C19.0299 7.24079 18.9897 7.21041 18.9444 7.18959C18.8991 7.16876 18.8499 7.15799 18.8 7.158ZM16.031 11.012C15.8393 12.1433 14.9386 12.9027 13.7897 12.9027C13.2129 12.9027 12.7519 12.7183 12.4559 12.3688C12.1623 12.0218 12.0507 11.5278 12.1441 10.9776C12.323 9.85593 13.2389 9.07171 14.3702 9.07171C14.9343 9.07171 15.3929 9.25854 15.695 9.61105C15.9976 9.96719 16.1177 10.4642 16.031 11.012ZM29.3798 7.158H27.3836C27.2895 7.15815 27.1968 7.18119 27.1136 7.22513C27.0304 7.26907 26.9592 7.33257 26.9062 7.41014L24.153 11.4528L22.986 7.56795C22.9501 7.44946 22.877 7.34562 22.7774 7.27179C22.6777 7.19796 22.5569 7.15806 22.4328 7.158H20.4711C20.416 7.15786 20.3617 7.17082 20.3127 7.19582C20.2637 7.22082 20.2214 7.25713 20.1893 7.30173C20.1572 7.34633 20.1362 7.39792 20.1282 7.45222C20.1201 7.50652 20.1252 7.56195 20.1429 7.6139L22.3418 14.0461L20.2746 16.9551C20.2378 17.0067 20.216 17.0673 20.2116 17.1304C20.2071 17.1935 20.2202 17.2566 20.2493 17.3128C20.2784 17.369 20.3225 17.4161 20.3767 17.449C20.4309 17.4819 20.4932 17.4993 20.5566 17.4993H22.5504C22.6435 17.4994 22.7353 17.477 22.8178 17.4341C22.9003 17.3911 22.9711 17.3288 23.0242 17.2526L29.6637 7.69916C29.6997 7.64747 29.7208 7.58695 29.7247 7.52416C29.7287 7.46137 29.7153 7.3987 29.6861 7.34295C29.6568 7.28719 29.6128 7.24049 29.5588 7.20788C29.5048 7.17528 29.4429 7.15803 29.3798 7.158Z" fill="white"/>
<path d="M35.9888 3.33361H31.8399C31.7026 3.33367 31.5699 3.38254 31.4656 3.47144C31.3613 3.56033 31.2923 3.68342 31.2709 3.81854L29.5931 14.4222C29.5853 14.4713 29.5883 14.5216 29.6018 14.5694C29.6154 14.6173 29.6392 14.6617 29.6716 14.6995C29.704 14.7373 29.7442 14.7677 29.7895 14.7885C29.8348 14.8093 29.8841 14.8201 29.934 14.8201H32.0631C32.1591 14.8199 32.252 14.7856 32.3249 14.7233C32.3979 14.6611 32.4461 14.5749 32.461 14.4803L32.9371 11.4746C32.9584 11.3393 33.0274 11.2161 33.1317 11.1271C33.236 11.0381 33.3688 10.9891 33.5061 10.989H34.8187C37.552 10.989 39.1284 9.67091 39.5409 7.05884C39.7271 5.91606 39.5482 5.01816 39.0114 4.38932C38.4224 3.69882 37.3773 3.33361 35.9888 3.33361ZM36.4674 7.20637C36.2411 8.69017 35.1038 8.69017 34.0035 8.69017H33.3781L33.8179 5.91908C33.8305 5.83801 33.8718 5.76411 33.9343 5.71076C33.9969 5.65741 34.0765 5.62814 34.1588 5.62824H34.4457C35.1942 5.62824 35.9015 5.62825 36.2666 6.05392C36.4844 6.30787 36.5505 6.68517 36.4674 7.20637ZM48.3884 7.1586H46.4031C46.3207 7.15838 46.241 7.18761 46.1785 7.24098C46.1159 7.29434 46.0747 7.36831 46.0622 7.44944L45.9742 8.0033L45.8347 7.80255C45.4046 7.18037 44.4463 6.97237 43.4891 6.97237C41.2939 6.97237 39.4196 8.62971 39.0544 10.9546C38.8652 12.1143 39.1339 13.2232 39.7938 13.9966C40.4004 14.7076 41.2654 15.0039 42.296 15.0039C44.0647 15.0039 45.0455 13.8702 45.0455 13.8702L44.957 14.4204C44.9491 14.4697 44.952 14.5201 44.9656 14.5682C44.9791 14.6162 45.003 14.6608 45.0356 14.6987C45.0681 14.7367 45.1085 14.7671 45.154 14.788C45.1995 14.8088 45.249 14.8196 45.2991 14.8195H47.0879C47.2252 14.8194 47.358 14.7704 47.4623 14.6814C47.5666 14.5924 47.6356 14.4692 47.6568 14.3339L48.7311 7.55646C48.7387 7.50722 48.7355 7.45692 48.7218 7.40902C48.7081 7.36111 48.6841 7.31674 48.6515 7.27894C48.619 7.24114 48.5786 7.21082 48.5332 7.19004C48.4877 7.16927 48.4383 7.15855 48.3884 7.1586ZM45.6194 11.0126C45.4289 12.1439 44.5269 12.9033 43.3781 12.9033C42.8024 12.9033 42.3402 12.7189 42.0442 12.3694C41.7506 12.0224 41.6403 11.5284 41.7324 10.9782C41.9126 9.85654 42.8273 9.07231 43.9586 9.07231C44.5227 9.07231 44.9813 9.25915 45.2833 9.61166C45.5872 9.96779 45.7073 10.4648 45.6194 11.0126ZM50.7303 3.62445L49.0277 14.4222C49.0199 14.4713 49.0229 14.5216 49.0364 14.5694C49.05 14.6173 49.0737 14.6617 49.1061 14.6995C49.1385 14.7373 49.1788 14.7677 49.2241 14.7885C49.2694 14.8093 49.3187 14.8201 49.3686 14.8201H51.0803C51.3648 14.8201 51.6062 14.6145 51.6499 14.3345L53.3289 3.73147C53.3367 3.68232 53.3337 3.63207 53.3202 3.58418C53.3066 3.53628 53.2829 3.49188 53.2505 3.45402C53.2181 3.41616 53.1779 3.38574 53.1325 3.36485C53.0872 3.34396 53.0379 3.3331 52.988 3.33301H51.0712C50.989 3.3333 50.9094 3.36279 50.847 3.41619C50.7845 3.46959 50.7432 3.54342 50.7303 3.62445Z" fill="white"/>
</g>
<defs>
<clipPath id="clip0_69_140">
<rect width="53.3333" height="20" fill="white"/>
</clipPath>
</defs>
</svg>
