<svg width="169" height="124" viewBox="0 0 169 124" fill="none" xmlns="http://www.w3.org/2000/svg">
<path d="M165.929 17.36C164.561 17.36 163.452 16.2497 163.452 14.88C163.452 13.5103 164.561 12.4 165.929 12.4C167.296 12.4 168.405 13.5103 168.405 14.88C168.405 16.2497 167.296 17.36 165.929 17.36Z" fill="#01CCDA"/>
<path d="M165.929 32.24C164.561 32.24 163.452 31.1297 163.452 29.76C163.452 28.3903 164.561 27.28 165.929 27.28C167.296 27.28 168.405 28.3903 168.405 29.76C168.405 31.1297 167.296 32.24 165.929 32.24Z" fill="#01CCDA"/>
<path d="M165.929 47.12C164.561 47.12 163.452 46.0097 163.452 44.64C163.452 43.2703 164.561 42.16 165.929 42.16C167.296 42.16 168.405 43.2703 168.405 44.64C168.405 46.0097 167.296 47.12 165.929 47.12Z" fill="#01CCDA"/>
<path d="M165.929 62C164.561 62 163.452 60.8897 163.452 59.52C163.452 58.1503 164.561 57.04 165.929 57.04C167.296 57.04 168.405 58.1503 168.405 59.52C168.405 60.8897 167.296 62 165.929 62Z" fill="#01CCDA"/>
<path d="M151.069 17.36C149.702 17.36 148.593 16.2497 148.593 14.88C148.593 13.5103 149.702 12.4 151.069 12.4C152.437 12.4 153.546 13.5103 153.546 14.88C153.546 16.2497 152.437 17.36 151.069 17.36Z" fill="#01CCDA"/>
<path d="M151.069 32.24C149.702 32.24 148.593 31.1297 148.593 29.76C148.593 28.3903 149.702 27.28 151.069 27.28C152.437 27.28 153.546 28.3903 153.546 29.76C153.546 31.1297 152.437 32.24 151.069 32.24Z" fill="#01CCDA"/>
<path d="M151.069 47.12C149.702 47.12 148.593 46.0097 148.593 44.64C148.593 43.2703 149.702 42.16 151.069 42.16C152.437 42.16 153.546 43.2703 153.546 44.64C153.546 46.0097 152.437 47.12 151.069 47.12Z" fill="#01CCDA"/>
<path d="M151.069 62C149.702 62 148.593 60.8897 148.593 59.52C148.593 58.1503 149.702 57.04 151.069 57.04C152.437 57.04 153.546 58.1503 153.546 59.52C153.546 60.8897 152.437 62 151.069 62Z" fill="#01CCDA"/>
<path d="M136.21 17.36C134.842 17.36 133.734 16.2497 133.734 14.88C133.734 13.5103 134.842 12.4 136.21 12.4C137.578 12.4 138.687 13.5103 138.687 14.88C138.687 16.2497 137.578 17.36 136.21 17.36Z" fill="#01CCDA"/>
<path d="M136.21 32.24C134.842 32.24 133.734 31.1297 133.734 29.76C133.734 28.3903 134.842 27.28 136.21 27.28C137.578 27.28 138.687 28.3903 138.687 29.76C138.687 31.1297 137.578 32.24 136.21 32.24Z" fill="#01CCDA"/>
<path d="M136.21 47.12C134.842 47.12 133.734 46.0097 133.734 44.64C133.734 43.2703 134.842 42.16 136.21 42.16C137.578 42.16 138.687 43.2703 138.687 44.64C138.687 46.0097 137.578 47.12 136.21 47.12Z" fill="#01CCDA"/>
<path d="M136.21 62C134.842 62 133.734 60.8897 133.734 59.52C133.734 58.1503 134.842 57.04 136.21 57.04C137.578 57.04 138.687 58.1503 138.687 59.52C138.687 60.8897 137.578 62 136.21 62Z" fill="#01CCDA"/>
<path d="M121.351 17.36C119.983 17.36 118.874 16.2497 118.874 14.88C118.874 13.5103 119.983 12.4 121.351 12.4C122.719 12.4 123.827 13.5103 123.827 14.88C123.827 16.2497 122.719 17.36 121.351 17.36Z" fill="#01CCDA"/>
<path d="M121.351 32.24C119.983 32.24 118.874 31.1297 118.874 29.76C118.874 28.3903 119.983 27.28 121.351 27.28C122.719 27.28 123.827 28.3903 123.827 29.76C123.827 31.1297 122.719 32.24 121.351 32.24Z" fill="#01CCDA"/>
<path d="M121.351 47.12C119.983 47.12 118.874 46.0097 118.874 44.64C118.874 43.2703 119.983 42.16 121.351 42.16C122.719 42.16 123.827 43.2703 123.827 44.64C123.827 46.0097 122.719 47.12 121.351 47.12Z" fill="#01CCDA"/>
<path d="M121.351 62C119.983 62 118.874 60.8897 118.874 59.52C118.874 58.1503 119.983 57.04 121.351 57.04C122.719 57.04 123.827 58.1503 123.827 59.52C123.827 60.8897 122.719 62 121.351 62Z" fill="#01CCDA"/>
<path d="M106.492 17.36C105.124 17.36 104.015 16.2497 104.015 14.88C104.015 13.5103 105.124 12.4 106.492 12.4C107.859 12.4 108.968 13.5103 108.968 14.88C108.968 16.2497 107.859 17.36 106.492 17.36Z" fill="#01CCDA"/>
<path d="M106.492 32.24C105.124 32.24 104.015 31.1297 104.015 29.76C104.015 28.3903 105.124 27.28 106.492 27.28C107.859 27.28 108.968 28.3903 108.968 29.76C108.968 31.1297 107.859 32.24 106.492 32.24Z" fill="#01CCDA"/>
<path d="M106.492 47.12C105.124 47.12 104.015 46.0097 104.015 44.64C104.015 43.2703 105.124 42.16 106.492 42.16C107.859 42.16 108.968 43.2703 108.968 44.64C108.968 46.0097 107.859 47.12 106.492 47.12Z" fill="#01CCDA"/>
<path d="M106.492 62C105.124 62 104.015 60.8897 104.015 59.52C104.015 58.1503 105.124 57.04 106.492 57.04C107.859 57.04 108.968 58.1503 108.968 59.52C108.968 60.8897 107.859 62 106.492 62Z" fill="#01CCDA"/>
<path d="M91.6322 17.36C90.2644 17.36 89.1557 16.2497 89.1557 14.88C89.1557 13.5103 90.2644 12.4 91.6322 12.4C93 12.4 94.1088 13.5103 94.1088 14.88C94.1088 16.2497 93 17.36 91.6322 17.36Z" fill="#01CCDA"/>
<path d="M91.6322 32.24C90.2644 32.24 89.1557 31.1297 89.1557 29.76C89.1557 28.3903 90.2644 27.28 91.6322 27.28C93 27.28 94.1088 28.3903 94.1088 29.76C94.1088 31.1297 93 32.24 91.6322 32.24Z" fill="#01CCDA"/>
<path d="M91.6322 47.12C90.2644 47.12 89.1557 46.0097 89.1557 44.64C89.1557 43.2703 90.2644 42.16 91.6322 42.16C93 42.16 94.1088 43.2703 94.1088 44.64C94.1088 46.0097 93 47.12 91.6322 47.12Z" fill="#01CCDA"/>
<path d="M91.6322 62C90.2644 62 89.1557 60.8897 89.1557 59.52C89.1557 58.1503 90.2644 57.04 91.6322 57.04C93 57.04 94.1088 58.1503 94.1088 59.52C94.1088 60.8897 93 62 91.6322 62Z" fill="#01CCDA"/>
<path d="M76.7729 17.36C75.4052 17.36 74.2964 16.2497 74.2964 14.88C74.2964 13.5103 75.4052 12.4 76.7729 12.4C78.1407 12.4 79.2495 13.5103 79.2495 14.88C79.2495 16.2497 78.1407 17.36 76.7729 17.36Z" fill="#01CCDA"/>
<path d="M76.7729 32.24C75.4051 32.24 74.2964 31.1297 74.2964 29.76C74.2964 28.3903 75.4052 27.28 76.7729 27.28C78.1407 27.28 79.2495 28.3903 79.2495 29.76C79.2495 31.1297 78.1407 32.24 76.7729 32.24Z" fill="#01CCDA"/>
<path d="M76.7729 47.12C75.4051 47.12 74.2964 46.0097 74.2964 44.64C74.2964 43.2703 75.4051 42.16 76.7729 42.16C78.1407 42.16 79.2495 43.2703 79.2495 44.64C79.2495 46.0097 78.1407 47.12 76.7729 47.12Z" fill="#01CCDA"/>
<path d="M76.7729 62C75.4051 62 74.2964 60.8897 74.2964 59.52C74.2964 58.1503 75.4051 57.04 76.7729 57.04C78.1407 57.04 79.2495 58.1503 79.2495 59.52C79.2495 60.8897 78.1407 62 76.7729 62Z" fill="#01CCDA"/>
<path d="M61.9136 17.36C60.5459 17.36 59.4371 16.2497 59.4371 14.88C59.4371 13.5103 60.5459 12.4 61.9136 12.4C63.2814 12.4 64.3902 13.5103 64.3902 14.88C64.3902 16.2497 63.2814 17.36 61.9136 17.36Z" fill="#01CCDA"/>
<path d="M61.9136 32.24C60.5459 32.24 59.4371 31.1297 59.4371 29.76C59.4371 28.3903 60.5459 27.28 61.9136 27.28C63.2814 27.28 64.3902 28.3903 64.3902 29.76C64.3902 31.1297 63.2814 32.24 61.9136 32.24Z" fill="#01CCDA"/>
<path d="M61.9136 47.12C60.5459 47.12 59.4371 46.0097 59.4371 44.64C59.4371 43.2703 60.5459 42.16 61.9136 42.16C63.2814 42.16 64.3902 43.2703 64.3902 44.64C64.3902 46.0097 63.2814 47.12 61.9136 47.12Z" fill="#01CCDA"/>
<path d="M61.9136 62C60.5458 62 59.4371 60.8897 59.4371 59.52C59.4371 58.1503 60.5459 57.04 61.9136 57.04C63.2814 57.04 64.3902 58.1503 64.3902 59.52C64.3902 60.8897 63.2814 62 61.9136 62Z" fill="#01CCDA"/>
<path d="M47.0543 17.36C45.6865 17.36 44.5778 16.2497 44.5778 14.88C44.5778 13.5103 45.6865 12.4 47.0543 12.4C48.4221 12.4 49.5309 13.5103 49.5309 14.88C49.5309 16.2497 48.4221 17.36 47.0543 17.36Z" fill="#01CCDA"/>
<path d="M47.0543 32.24C45.6865 32.24 44.5778 31.1297 44.5778 29.76C44.5778 28.3903 45.6865 27.28 47.0543 27.28C48.4221 27.28 49.5309 28.3903 49.5309 29.76C49.5309 31.1297 48.4221 32.24 47.0543 32.24Z" fill="#01CCDA"/>
<path d="M47.0543 47.12C45.6865 47.12 44.5778 46.0097 44.5778 44.64C44.5778 43.2703 45.6865 42.16 47.0543 42.16C48.4221 42.16 49.5309 43.2703 49.5309 44.64C49.5309 46.0097 48.4221 47.12 47.0543 47.12Z" fill="#01CCDA"/>
<path d="M47.0543 62C45.6865 62 44.5778 60.8897 44.5778 59.52C44.5778 58.1503 45.6865 57.04 47.0543 57.04C48.4221 57.04 49.5309 58.1503 49.5309 59.52C49.5309 60.8897 48.4221 62 47.0543 62Z" fill="#01CCDA"/>
<path d="M32.195 17.36C30.8272 17.36 29.7185 16.2497 29.7185 14.88C29.7185 13.5103 30.8272 12.4 32.195 12.4C33.5628 12.4 34.6716 13.5103 34.6716 14.88C34.6716 16.2497 33.5628 17.36 32.195 17.36Z" fill="#01CCDA"/>
<path d="M32.195 32.24C30.8272 32.24 29.7185 31.1297 29.7185 29.76C29.7185 28.3903 30.8272 27.28 32.195 27.28C33.5628 27.28 34.6716 28.3903 34.6716 29.76C34.6716 31.1297 33.5628 32.24 32.195 32.24Z" fill="#01CCDA"/>
<path d="M32.195 47.12C30.8272 47.12 29.7185 46.0097 29.7185 44.64C29.7185 43.2703 30.8272 42.16 32.195 42.16C33.5628 42.16 34.6716 43.2703 34.6716 44.64C34.6716 46.0097 33.5628 47.12 32.195 47.12Z" fill="#01CCDA"/>
<path d="M32.195 62C30.8272 62 29.7185 60.8897 29.7185 59.52C29.7185 58.1503 30.8272 57.04 32.195 57.04C33.5628 57.04 34.6716 58.1503 34.6716 59.52C34.6716 60.8897 33.5628 62 32.195 62Z" fill="#01CCDA"/>
<path d="M17.3357 17.36C15.9679 17.36 14.8592 16.2497 14.8592 14.88C14.8592 13.5103 15.9679 12.4 17.3357 12.4C18.7035 12.4 19.8123 13.5103 19.8123 14.88C19.8123 16.2497 18.7035 17.36 17.3357 17.36Z" fill="#01CCDA"/>
<path d="M17.3357 32.24C15.9679 32.24 14.8592 31.1297 14.8592 29.76C14.8592 28.3903 15.9679 27.28 17.3357 27.28C18.7035 27.28 19.8123 28.3903 19.8123 29.76C19.8123 31.1297 18.7035 32.24 17.3357 32.24Z" fill="#01CCDA"/>
<path d="M17.3357 47.12C15.9679 47.12 14.8592 46.0097 14.8592 44.64C14.8592 43.2703 15.9679 42.16 17.3357 42.16C18.7035 42.16 19.8123 43.2703 19.8123 44.64C19.8123 46.0097 18.7035 47.12 17.3357 47.12Z" fill="#01CCDA"/>
<path d="M17.3357 62C15.9679 62 14.8592 60.8897 14.8592 59.52C14.8592 58.1503 15.9679 57.04 17.3357 57.04C18.7035 57.04 19.8123 58.1503 19.8123 59.52C19.8123 60.8897 18.7035 62 17.3357 62Z" fill="#01CCDA"/>
<path d="M2.47641 17.36C1.10864 17.36 -0.000138039 16.2497 -0.00013798 14.88C-0.00013792 13.5103 1.10864 12.4 2.47641 12.4C3.84416 12.4 4.95297 13.5103 4.95297 14.88C4.95297 16.2497 3.84416 17.36 2.47641 17.36Z" fill="#01CCDA"/>
<path d="M2.47641 32.24C1.10864 32.24 -0.00013869 31.1297 -0.00013863 29.76C-0.00013857 28.3903 1.10864 27.28 2.47641 27.28C3.84416 27.28 4.95297 28.3903 4.95297 29.76C4.95297 31.1297 3.84416 32.24 2.47641 32.24Z" fill="#01CCDA"/>
<path d="M2.47641 47.12C1.10864 47.12 -0.00013934 46.0097 -0.00013928 44.64C-0.000139221 43.2703 1.10864 42.16 2.47641 42.16C3.84416 42.16 4.95297 43.2703 4.95297 44.64C4.95297 46.0097 3.84416 47.12 2.47641 47.12Z" fill="#01CCDA"/>
<path d="M2.47641 62C1.10864 62 -0.000139991 60.8897 -0.000139931 59.52C-0.000139871 58.1503 1.10864 57.04 2.47641 57.04C3.84416 57.04 4.95297 58.1503 4.95297 59.52C4.95297 60.8897 3.84416 62 2.47641 62Z" fill="#01CCDA"/>
<path d="M165.929 79.36C164.561 79.36 163.452 78.2497 163.452 76.88C163.452 75.5103 164.561 74.4 165.929 74.4C167.296 74.4 168.405 75.5103 168.405 76.88C168.405 78.2497 167.296 79.36 165.929 79.36Z" fill="#01CCDA"/>
<path d="M165.929 94.24C164.561 94.24 163.452 93.1297 163.452 91.76C163.452 90.3903 164.561 89.28 165.929 89.28C167.296 89.28 168.405 90.3903 168.405 91.76C168.405 93.1297 167.296 94.24 165.929 94.24Z" fill="#01CCDA"/>
<path d="M165.929 109.12C164.561 109.12 163.452 108.01 163.452 106.64C163.452 105.27 164.561 104.16 165.929 104.16C167.296 104.16 168.405 105.27 168.405 106.64C168.405 108.01 167.296 109.12 165.929 109.12Z" fill="#01CCDA"/>
<path d="M165.929 124C164.561 124 163.452 122.89 163.452 121.52C163.452 120.15 164.561 119.04 165.929 119.04C167.296 119.04 168.405 120.15 168.405 121.52C168.405 122.89 167.296 124 165.929 124Z" fill="#01CCDA"/>
<path d="M151.069 79.36C149.702 79.36 148.593 78.2497 148.593 76.88C148.593 75.5103 149.702 74.4 151.069 74.4C152.437 74.4 153.546 75.5103 153.546 76.88C153.546 78.2497 152.437 79.36 151.069 79.36Z" fill="#01CCDA"/>
<path d="M151.069 94.24C149.702 94.24 148.593 93.1297 148.593 91.76C148.593 90.3903 149.702 89.28 151.069 89.28C152.437 89.28 153.546 90.3903 153.546 91.76C153.546 93.1297 152.437 94.24 151.069 94.24Z" fill="#01CCDA"/>
<path d="M151.069 109.12C149.702 109.12 148.593 108.01 148.593 106.64C148.593 105.27 149.702 104.16 151.069 104.16C152.437 104.16 153.546 105.27 153.546 106.64C153.546 108.01 152.437 109.12 151.069 109.12Z" fill="#01CCDA"/>
<path d="M151.069 124C149.702 124 148.593 122.89 148.593 121.52C148.593 120.15 149.702 119.04 151.069 119.04C152.437 119.04 153.546 120.15 153.546 121.52C153.546 122.89 152.437 124 151.069 124Z" fill="#01CCDA"/>
<path d="M136.21 79.36C134.842 79.36 133.734 78.2497 133.734 76.88C133.734 75.5103 134.842 74.4 136.21 74.4C137.578 74.4 138.687 75.5103 138.687 76.88C138.687 78.2497 137.578 79.36 136.21 79.36Z" fill="#01CCDA"/>
<path d="M136.21 94.24C134.842 94.24 133.734 93.1297 133.734 91.76C133.734 90.3903 134.842 89.28 136.21 89.28C137.578 89.28 138.687 90.3903 138.687 91.76C138.687 93.1297 137.578 94.24 136.21 94.24Z" fill="#01CCDA"/>
<path d="M136.21 109.12C134.842 109.12 133.734 108.01 133.734 106.64C133.734 105.27 134.842 104.16 136.21 104.16C137.578 104.16 138.687 105.27 138.687 106.64C138.687 108.01 137.578 109.12 136.21 109.12Z" fill="#01CCDA"/>
<path d="M136.21 124C134.842 124 133.734 122.89 133.734 121.52C133.734 120.15 134.842 119.04 136.21 119.04C137.578 119.04 138.687 120.15 138.687 121.52C138.687 122.89 137.578 124 136.21 124Z" fill="#01CCDA"/>
<path d="M121.351 79.36C119.983 79.36 118.874 78.2497 118.874 76.88C118.874 75.5103 119.983 74.4 121.351 74.4C122.719 74.4 123.827 75.5103 123.827 76.88C123.827 78.2497 122.719 79.36 121.351 79.36Z" fill="#01CCDA"/>
<path d="M121.351 94.24C119.983 94.24 118.874 93.1297 118.874 91.76C118.874 90.3903 119.983 89.28 121.351 89.28C122.719 89.28 123.827 90.3903 123.827 91.76C123.827 93.1297 122.719 94.24 121.351 94.24Z" fill="#01CCDA"/>
<path d="M121.351 109.12C119.983 109.12 118.874 108.01 118.874 106.64C118.874 105.27 119.983 104.16 121.351 104.16C122.719 104.16 123.827 105.27 123.827 106.64C123.827 108.01 122.719 109.12 121.351 109.12Z" fill="#01CCDA"/>
<path d="M121.351 124C119.983 124 118.874 122.89 118.874 121.52C118.874 120.15 119.983 119.04 121.351 119.04C122.719 119.04 123.827 120.15 123.827 121.52C123.827 122.89 122.719 124 121.351 124Z" fill="#01CCDA"/>
<path d="M106.492 79.36C105.124 79.36 104.015 78.2497 104.015 76.88C104.015 75.5103 105.124 74.4 106.492 74.4C107.859 74.4 108.968 75.5103 108.968 76.88C108.968 78.2497 107.859 79.36 106.492 79.36Z" fill="#01CCDA"/>
<path d="M106.492 94.24C105.124 94.24 104.015 93.1297 104.015 91.76C104.015 90.3903 105.124 89.28 106.492 89.28C107.859 89.28 108.968 90.3903 108.968 91.76C108.968 93.1297 107.859 94.24 106.492 94.24Z" fill="#01CCDA"/>
<path d="M106.492 109.12C105.124 109.12 104.015 108.01 104.015 106.64C104.015 105.27 105.124 104.16 106.492 104.16C107.859 104.16 108.968 105.27 108.968 106.64C108.968 108.01 107.859 109.12 106.492 109.12Z" fill="#01CCDA"/>
<path d="M106.492 124C105.124 124 104.015 122.89 104.015 121.52C104.015 120.15 105.124 119.04 106.492 119.04C107.859 119.04 108.968 120.15 108.968 121.52C108.968 122.89 107.859 124 106.492 124Z" fill="#01CCDA"/>
<path d="M91.6322 79.36C90.2644 79.36 89.1557 78.2497 89.1557 76.88C89.1557 75.5103 90.2644 74.4 91.6322 74.4C93 74.4 94.1088 75.5103 94.1088 76.88C94.1088 78.2497 93 79.36 91.6322 79.36Z" fill="#01CCDA"/>
<path d="M91.6322 94.24C90.2644 94.24 89.1557 93.1297 89.1557 91.76C89.1557 90.3903 90.2644 89.28 91.6322 89.28C93 89.28 94.1088 90.3903 94.1088 91.76C94.1088 93.1297 93 94.24 91.6322 94.24Z" fill="#01CCDA"/>
<path d="M91.6322 109.12C90.2644 109.12 89.1557 108.01 89.1557 106.64C89.1557 105.27 90.2644 104.16 91.6322 104.16C93 104.16 94.1088 105.27 94.1088 106.64C94.1088 108.01 93 109.12 91.6322 109.12Z" fill="#01CCDA"/>
<path d="M91.6322 124C90.2644 124 89.1557 122.89 89.1557 121.52C89.1557 120.15 90.2644 119.04 91.6322 119.04C93 119.04 94.1088 120.15 94.1088 121.52C94.1088 122.89 93 124 91.6322 124Z" fill="#01CCDA"/>
<path d="M76.7729 79.36C75.4052 79.36 74.2964 78.2497 74.2964 76.88C74.2964 75.5103 75.4052 74.4 76.7729 74.4C78.1407 74.4 79.2495 75.5103 79.2495 76.88C79.2495 78.2497 78.1407 79.36 76.7729 79.36Z" fill="#01CCDA"/>
<path d="M76.7729 94.24C75.4051 94.24 74.2964 93.1297 74.2964 91.76C74.2964 90.3903 75.4052 89.28 76.7729 89.28C78.1407 89.28 79.2495 90.3903 79.2495 91.76C79.2495 93.1297 78.1407 94.24 76.7729 94.24Z" fill="#01CCDA"/>
<path d="M76.7729 109.12C75.4051 109.12 74.2964 108.01 74.2964 106.64C74.2964 105.27 75.4051 104.16 76.7729 104.16C78.1407 104.16 79.2495 105.27 79.2495 106.64C79.2495 108.01 78.1407 109.12 76.7729 109.12Z" fill="#01CCDA"/>
<path d="M76.7729 124C75.4051 124 74.2964 122.89 74.2964 121.52C74.2964 120.15 75.4051 119.04 76.7729 119.04C78.1407 119.04 79.2495 120.15 79.2495 121.52C79.2495 122.89 78.1407 124 76.7729 124Z" fill="#01CCDA"/>
<path d="M61.9136 79.36C60.5459 79.36 59.4371 78.2497 59.4371 76.88C59.4371 75.5103 60.5459 74.4 61.9136 74.4C63.2814 74.4 64.3902 75.5103 64.3902 76.88C64.3902 78.2497 63.2814 79.36 61.9136 79.36Z" fill="#01CCDA"/>
<path d="M61.9136 94.24C60.5459 94.24 59.4371 93.1297 59.4371 91.76C59.4371 90.3903 60.5459 89.28 61.9136 89.28C63.2814 89.28 64.3902 90.3903 64.3902 91.76C64.3902 93.1297 63.2814 94.24 61.9136 94.24Z" fill="#01CCDA"/>
<path d="M61.9136 109.12C60.5459 109.12 59.4371 108.01 59.4371 106.64C59.4371 105.27 60.5459 104.16 61.9136 104.16C63.2814 104.16 64.3902 105.27 64.3902 106.64C64.3902 108.01 63.2814 109.12 61.9136 109.12Z" fill="#01CCDA"/>
<path d="M61.9136 124C60.5458 124 59.4371 122.89 59.4371 121.52C59.4371 120.15 60.5459 119.04 61.9136 119.04C63.2814 119.04 64.3902 120.15 64.3902 121.52C64.3902 122.89 63.2814 124 61.9136 124Z" fill="#01CCDA"/>
<path d="M47.0543 79.36C45.6865 79.36 44.5778 78.2497 44.5778 76.88C44.5778 75.5103 45.6865 74.4 47.0543 74.4C48.4221 74.4 49.5309 75.5103 49.5309 76.88C49.5309 78.2497 48.4221 79.36 47.0543 79.36Z" fill="#01CCDA"/>
<path d="M47.0543 94.24C45.6865 94.24 44.5778 93.1297 44.5778 91.76C44.5778 90.3903 45.6865 89.28 47.0543 89.28C48.4221 89.28 49.5309 90.3903 49.5309 91.76C49.5309 93.1297 48.4221 94.24 47.0543 94.24Z" fill="#01CCDA"/>
<path d="M47.0543 109.12C45.6865 109.12 44.5778 108.01 44.5778 106.64C44.5778 105.27 45.6865 104.16 47.0543 104.16C48.4221 104.16 49.5309 105.27 49.5309 106.64C49.5309 108.01 48.4221 109.12 47.0543 109.12Z" fill="#01CCDA"/>
<path d="M47.0543 124C45.6865 124 44.5778 122.89 44.5778 121.52C44.5778 120.15 45.6865 119.04 47.0543 119.04C48.4221 119.04 49.5309 120.15 49.5309 121.52C49.5309 122.89 48.4221 124 47.0543 124Z" fill="#01CCDA"/>
<path d="M32.195 79.36C30.8272 79.36 29.7185 78.2497 29.7185 76.88C29.7185 75.5103 30.8272 74.4 32.195 74.4C33.5628 74.4 34.6716 75.5103 34.6716 76.88C34.6716 78.2497 33.5628 79.36 32.195 79.36Z" fill="#01CCDA"/>
<path d="M32.195 94.24C30.8272 94.24 29.7185 93.1297 29.7185 91.76C29.7185 90.3903 30.8272 89.28 32.195 89.28C33.5628 89.28 34.6716 90.3903 34.6716 91.76C34.6716 93.1297 33.5628 94.24 32.195 94.24Z" fill="#01CCDA"/>
<path d="M32.195 109.12C30.8272 109.12 29.7185 108.01 29.7185 106.64C29.7185 105.27 30.8272 104.16 32.195 104.16C33.5628 104.16 34.6716 105.27 34.6716 106.64C34.6716 108.01 33.5628 109.12 32.195 109.12Z" fill="#01CCDA"/>
<path d="M32.195 124C30.8272 124 29.7185 122.89 29.7185 121.52C29.7185 120.15 30.8272 119.04 32.195 119.04C33.5628 119.04 34.6716 120.15 34.6716 121.52C34.6716 122.89 33.5628 124 32.195 124Z" fill="#01CCDA"/>
<path d="M17.3357 79.36C15.9679 79.36 14.8592 78.2497 14.8592 76.88C14.8592 75.5103 15.9679 74.4 17.3357 74.4C18.7035 74.4 19.8123 75.5103 19.8123 76.88C19.8123 78.2497 18.7035 79.36 17.3357 79.36Z" fill="#01CCDA"/>
<path d="M17.3357 94.24C15.9679 94.24 14.8592 93.1297 14.8592 91.76C14.8592 90.3903 15.9679 89.28 17.3357 89.28C18.7035 89.28 19.8123 90.3903 19.8123 91.76C19.8123 93.1297 18.7035 94.24 17.3357 94.24Z" fill="#01CCDA"/>
<path d="M17.3357 109.12C15.9679 109.12 14.8592 108.01 14.8592 106.64C14.8592 105.27 15.9679 104.16 17.3357 104.16C18.7035 104.16 19.8123 105.27 19.8123 106.64C19.8123 108.01 18.7035 109.12 17.3357 109.12Z" fill="#01CCDA"/>
<path d="M17.3357 124C15.9679 124 14.8592 122.89 14.8592 121.52C14.8592 120.15 15.9679 119.04 17.3357 119.04C18.7035 119.04 19.8123 120.15 19.8123 121.52C19.8123 122.89 18.7035 124 17.3357 124Z" fill="#01CCDA"/>
<path d="M2.47641 79.36C1.10864 79.36 -0.000138039 78.2497 -0.00013798 76.88C-0.00013792 75.5103 1.10864 74.4 2.47641 74.4C3.84416 74.4 4.95297 75.5103 4.95297 76.88C4.95297 78.2497 3.84416 79.36 2.47641 79.36Z" fill="#01CCDA"/>
<path d="M2.47641 94.24C1.10864 94.24 -0.00013869 93.1297 -0.00013863 91.76C-0.00013857 90.3903 1.10864 89.28 2.47641 89.28C3.84416 89.28 4.95297 90.3903 4.95297 91.76C4.95297 93.1297 3.84416 94.24 2.47641 94.24Z" fill="#01CCDA"/>
<path d="M2.47641 109.12C1.10864 109.12 -0.00013934 108.01 -0.00013928 106.64C-0.000139221 105.27 1.10864 104.16 2.47641 104.16C3.84416 104.16 4.95297 105.27 4.95297 106.64C4.95297 108.01 3.84416 109.12 2.47641 109.12Z" fill="#01CCDA"/>
<path d="M2.47641 124C1.10864 124 -0.000139991 122.89 -0.000139931 121.52C-0.000139871 120.15 1.10864 119.04 2.47641 119.04C3.84416 119.04 4.95297 120.15 4.95297 121.52C4.95297 122.89 3.84416 124 2.47641 124Z" fill="#01CCDA"/>
</svg>
