<svg width="44" height="20" viewBox="0 0 44 20" fill="none" xmlns="http://www.w3.org/2000/svg">
<g clip-path="url(#clip0_69_144)">
<path d="M19.1109 17.2952H15.6006L17.7962 3.58154H21.3063L19.1109 17.2952Z" fill="white"/>
<path d="M31.8356 3.91685C31.1432 3.63938 30.0451 3.33301 28.6872 3.33301C25.2206 3.33301 22.7795 5.20031 22.7645 7.86999C22.7357 9.83967 24.5123 10.9337 25.841 11.5904C27.1991 12.2615 27.6608 12.6996 27.6608 13.2978C27.6469 14.2165 26.5634 14.64 25.5527 14.64C24.1512 14.64 23.4003 14.4216 22.2591 13.9105L21.7969 13.6914L21.3057 16.7698C22.129 17.1487 23.6458 17.4849 25.2206 17.4997C28.9039 17.4997 31.3018 15.6613 31.3302 12.8163C31.3442 11.2552 30.4061 10.059 28.3837 9.0815C27.1559 8.45403 26.404 8.03093 26.404 7.38891C26.4184 6.80526 27.04 6.20745 28.4259 6.20745C29.5671 6.17817 30.4056 6.45526 31.0407 6.73254L31.3582 6.87816L31.8356 3.91685Z" fill="white"/>
<path d="M36.5013 12.437C36.7904 11.6491 37.9028 8.59999 37.9028 8.59999C37.8882 8.62927 38.1913 7.79761 38.3646 7.28706L38.61 8.46871C38.61 8.46871 39.2747 11.7513 39.419 12.437C38.8704 12.437 37.1947 12.437 36.5013 12.437ZM40.8343 3.58154H38.1191C37.2818 3.58154 36.6457 3.82935 36.2844 4.71937L31.0703 17.2951H34.7536C34.7536 17.2951 35.3599 15.6025 35.4903 15.2379C35.8944 15.2379 39.4774 15.2379 39.9972 15.2379C40.098 15.7194 40.4161 17.2951 40.4161 17.2951H43.6663L40.8343 3.58154Z" fill="white"/>
<path d="M12.6686 3.58154L9.23084 12.933L8.85518 11.0364C8.21962 8.84799 6.22634 6.47033 4.00195 5.2881L7.1508 17.2807H10.8629L16.3804 3.58154H12.6686Z" fill="white"/>
<path d="M6.03852 3.58252H0.390786L0.333008 3.85961C4.7386 4.99763 7.65633 7.7408 8.8551 11.038L7.62735 4.73528C7.42522 3.85942 6.80405 3.61141 6.03852 3.58252Z" fill="#FAA61A"/>
</g>
<defs>
<clipPath id="clip0_69_144">
<rect width="43.3333" height="20" fill="white" transform="translate(0.333008)"/>
</clipPath>
</defs>
</svg>
